<?xml version="1.0" standalone="no"?>
<!DOCTYPE svg PUBLIC "-//W3C//DTD SVG 1.1//EN" "http://www.w3.org/Graphics/SVG/1.1/DTD/svg11.dtd">
<svg xmlns="http://www.w3.org/2000/svg">
<defs >
<font id="Caladea" horiz-adv-x="510" ><font-face
    font-family="Caladea"
    units-per-em="1000"
    panose-1="2 4 5 3 5 4 6 3 2 4"
    ascent="900"
    descent="-250"
    alphabetic="0" />
<glyph unicode=" " glyph-name="space" horiz-adv-x="220" />
<glyph unicode="!" glyph-name="exclam" horiz-adv-x="286" d="M99 257T100 288L101 405Q101 568 83 646Q106 663 143 663Q173 663 185 644T198 588Q198 550 178 423Q157 290 151 212L99 203Q99 257 100 288ZM100 -7T87 8T73 51Q73 79 86 94T126 109Q152 109 165
94T179 51Q179 23 166 8T126 -7Q100 -7 87 8Z" />
<glyph unicode="&quot;" glyph-name="quotedbl" horiz-adv-x="393" d="M73 604T73 632Q73 653 85 665T119 678Q139 678 152 666T165 632Q165 605 141 471H97Q73 604 73 632ZM233 604T233 632Q233 653 245 665T279 678Q299 678 312 666T325 632Q325 605 301 471H257Q233
604 233 632Z" />
<glyph unicode="#" glyph-name="numbersign" horiz-adv-x="619" d="M125 5L162 174H43L53 227H173L201 353H95L105 406H212L252 585L303 573L266 406H390L430 585L480 573L443 406H563L553 353H431L404 227H511L501 174H392L353 -7L302 5L339 174H215L175 -7L125
5ZM351 227L379 353H254L226 227H351Z" />
<glyph unicode="$" glyph-name="dollar" horiz-adv-x="506" d="M261 -64T243 -59V32Q157 32 108 65T59 158Q59 180 75 194T114 209Q126 209 138 204T157 191Q151 172 151 156Q151 123 176 102T243 79V303Q189 325 157 343T102 395T79 480Q79 544 125 587T243 634V726L249
732Q271 732 283 728V633Q346 627 388 597T430 528Q430 500 418 484T386 467Q359 467 337 483Q348 500 348 520Q348 545 331 562T283 585V384Q332 363 364 344T418 291T440 208Q440 136 398 90T283 34V-58L277 -64Q261 -64 243 -59ZM203 582T182 558T161 495Q161
461 182 440T243 401V586Q203 582 182 558ZM358 100T358 180Q358 217 339 240T283 284V83Q358 100 358 180Z" />
<glyph unicode="%" glyph-name="percent" horiz-adv-x="890" d="M193 -19L642 706L692 676L244 -49L193 -19ZM130 302T95 352T60 492Q60 582 95 632T201 682Q272 682 307 632T342 492Q342 402 307 352T201 302Q130 302 95 352ZM245 341T260 378T275 492Q275 569
260 606T201 643Q158 643 143 606T127 492Q127 416 142 379T201 341Q245 341 260 378ZM612 -7T577 43T542 183Q542 273 577 323T683 373Q754 373 789 323T824 183Q824 93 789 43T683 -7Q612 -7 577 43ZM727 32T742 69T757 183Q757 260 742 297T683 334Q640 334
625 297T609 183Q609 107 624 70T683 32Q727 32 742 69Z" />
<glyph unicode="&amp;" glyph-name="ampersand" horiz-adv-x="687" d="M185 -8T115 46T44 196Q44 339 182 386Q142 404 120 437T97 518Q97 594 150 632T284 670Q362 670 412 639T463 552Q463 522 448 504T410 486Q396 486 383 493T362 512Q376 534 376 553Q376
594 351 612T284 631Q236 631 210 601T183 517Q183 476 210 445T296 412V364Q223 355 180 312T136 200Q136 122 183 82T312 42Q371 42 419 64T497 134T527 251Q527 315 504 384Q464 382 447 370T429 335Q429 311 449 294Q430 275 405 275Q383 275 369 292T355 335Q355
426 514 426Q568 426 592 437T617 476Q617 501 598 518Q617 537 641 537Q663 537 677 522T691 481Q691 436 656 411T552 385Q581 315 581 237Q581 120 508 56T313 -8Q185 -8 115 46Z" />
<glyph unicode="&apos;" glyph-name="quotesingle" horiz-adv-x="237" d="M97 471T90 508Q88 519 81 563T73 625Q73 648 86 661T119 674Q139 674 152 661T165 625Q165 608 158 564T148 508Q141 471 141 467H97Q97 471 90 508Z" />
<glyph unicode="(" glyph-name="parenleft" horiz-adv-x="382" d="M198 -78T143 35T88 282Q88 387 120 473T196 618T284 710L309 685Q160 529 160 283Q160 37 309 -119L284 -145Q198 -78 143 35Z" />
<glyph unicode=")" glyph-name="parenright" horiz-adv-x="382" d="M222 37T222 283Q222 528 73 685L98 710Q180 645 237 534T294 282Q294 141 237 31T98 -145L73 -119Q222 37 222 283Z" />
<glyph unicode="*" glyph-name="asterisk" horiz-adv-x="427" d="M145 389T134 399T123 424Q123 438 129 445T150 463Q180 484 199 512Q173 509 156 502T136 494Q116 484 105 484Q89 484 79 494T69 521Q69 537 79 547T105 557Q116 557 136 547Q170 531 200 528Q182
553 152 574Q136 586 130 594T123 617Q123 630 134 640T160 651Q181 651 187 641T197 605Q201 565 214 538Q222 556 226 574T232 607Q236 632 242 641T268 651Q284 651 294 641T305 615Q305 601 298 593T276 574Q246 553 229 529Q257 532 291 547Q311 557 323 557Q339
557 349 547T360 521Q360 505 350 495T323 484Q314 484 290 494Q256 509 228 512Q246 487 278 464Q293 454 299 447T305 425Q305 410 294 400T267 389Q247 389 242 397T233 428Q231 450 228 466T214 504Q202 479 200 460T198 438Q198 435 197 425T192 408Q179 389
160 389Q145 389 134 399Z" />
<glyph unicode="+" glyph-name="plus" horiz-adv-x="554" d="M72 312H244V490H304V312H481V259H304V82H244V259H72V312Z" />
<glyph unicode="," glyph-name="comma" horiz-adv-x="205" d="M59 -89T71 -65T83 -18Q83 -4 78 5T63 14Q59 14 51 11Q40 24 40 48Q40 70 57 84T101 99Q129 99 146 79T164 26Q164 -23 138 -64T63 -135L39 -106Q59 -89 71 -65Z" />
<glyph unicode="-" glyph-name="hyphen" horiz-adv-x="329" d="M50 285H279V231H50V285Z" />
<glyph unicode="." glyph-name="period" horiz-adv-x="206" d="M77 -7T64 8T50 51Q50 79 63 94T103 109Q129 109 142 94T156 51Q156 23 143 8T103 -7Q77 -7 64 8Z" />
<glyph unicode="/" glyph-name="slash" horiz-adv-x="490" d="M77 -112L390 699L445 678L132 -132L77 -112Z" />
<glyph unicode="0" glyph-name="zero" horiz-adv-x="517" d="M146 -7T86 81T26 333Q26 496 86 583T259 671Q372 671 431 584T491 333Q491 168 432 81T259 -7Q146 -7 86 81ZM310 42T341 71T386 163T400 333Q400 437 386 500T341 592T259 621Q207 621 177 593T132
501T118 333Q118 226 132 163T176 71T259 42Q310 42 341 71Z" />
<glyph unicode="1" glyph-name="one" horiz-adv-x="362" d="M112 44T159 64V572H25V615Q126 624 214 671L247 656V64Q266 54 303 46T372 34L369 0H21L23 34Q112 44 159 64Z" />
<glyph unicode="2" glyph-name="two" horiz-adv-x="472" d="M141 166T205 242T296 378T323 496Q323 621 220 621Q173 621 146 598T119 534Q119 504 140 477Q118 455 88 455Q63 455 45 474T26 531Q26 600 81 635T220 671Q315 671 365 623T416 486Q416 399 351 303T132
74H442V0H27V58Q141 166 205 242Z" />
<glyph unicode="3" glyph-name="three" horiz-adv-x="461" d="M129 -7T76 29T22 130Q22 155 38 170T80 186Q104 186 127 169Q119 147 119 127Q119 88 148 65T228 42Q279 42 308 79T337 182Q337 251 292 289T166 328V372Q244 374 284 409T325 508Q325 563 301 592T230
621Q187 621 161 598T134 537Q134 513 145 499Q121 481 94 481Q72 481 60 498T47 546Q47 580 71 609T138 654T232 671Q315 671 366 626T417 508Q417 452 384 412T286 351Q425 314 425 181Q425 126 400 84T328 17T223 -7Q129 -7 76 29Z" />
<glyph unicode="4" glyph-name="four" horiz-adv-x="492" d="M16 183L9 217L250 680Q291 678 332 652L88 238H302V433Q326 434 344 445T369 475H391V240Q418 231 478 221L473 183H386V0H302V183H16Z" />
<glyph unicode="5" glyph-name="five" horiz-adv-x="475" d="M172 -8T126 8T54 55T28 123Q28 152 43 168T85 185Q114 185 134 169Q125 146 125 128Q125 90 154 66T229 42Q289 42 320 85T351 211Q351 284 318 323T224 362Q159 362 91 323L60 356L86 656L106 670L137
669Q249 667 255 667Q312 667 380 669L400 655L392 596H141L123 392Q180 416 240 416Q332 416 385 363T438 211Q438 151 412 101T338 21T229 -8Q172 -8 126 8Z" />
<glyph unicode="6" glyph-name="six" horiz-adv-x="470" d="M126 -7T76 59T26 250Q26 414 117 520T363 675L381 636Q269 586 206 515T127 330Q186 369 255 369Q339 369 393 321T447 190Q447 131 421 87T348 18T241 -7Q126 -7 76 59ZM299 42T326 83T354 189Q354
248 327 284T245 320Q173 320 122 264L121 250Q121 42 242 42Q299 42 326 83Z" />
<glyph unicode="7" glyph-name="seven" horiz-adv-x="470" d="M167 -8T148 17T128 82Q128 130 142 175T194 293T318 504L373 594H109Q91 543 88 486Q81 484 67 484Q59 484 47 486L32 653L46 668Q86 667 237 667Q388 667 432 668L450 625Q430 593 377 495T276 284T228
108Q228 58 263 33Q236 -8 198 -8Q167 -8 148 17Z" />
<glyph unicode="8" glyph-name="eight" horiz-adv-x="485" d="M141 -7T84 39T27 172Q27 224 58 271T147 355Q98 381 75 418T52 505Q52 580 104 625T243 671Q329 671 378 629T427 513Q427 472 401 434T328 366Q395 332 426 288T457 181Q457 95 400 44T245 -7Q141
-7 84 39ZM311 413T326 442T341 514Q341 562 314 591T242 621Q192 621 165 593T137 514Q137 488 149 469T192 431T277 389Q311 413 326 442ZM302 42T334 78T367 177Q367 211 352 235T300 281T197 332Q156 305 137 268T118 178Q118 114 152 78T245 42Q302 42 334
78Z" />
<glyph unicode="9" glyph-name="nine" horiz-adv-x="478" d="M201 78T264 151T344 338Q287 299 216 299Q132 299 79 347T25 478Q25 568 82 619T233 671Q340 671 392 609T445 419Q445 255 354 146T108 -10L90 29Q201 78 264 151ZM296 348T349 404V418Q349 508 324
564T232 621Q177 621 147 584T117 479Q117 420 144 384T225 348Q296 348 349 404Z" />
<glyph unicode=":" glyph-name="colon" horiz-adv-x="264" d="M105 327T92 342T78 385Q78 413 91 428T131 443Q157 443 170 428T184 385Q184 357 171 342T131 327Q105 327 92 342ZM105 -7T92 8T78 51Q78 79 91 94T131 109Q157 109 170 94T184 51Q184 23 171 8T131
-7Q105 -7 92 8Z" />
<glyph unicode=";" glyph-name="semicolon" horiz-adv-x="264" d="M105 327T92 342T78 385Q78 413 91 428T131 443Q157 443 170 428T184 385Q184 357 171 342T131 327Q105 327 92 342ZM88 -89T100 -65T112 -18Q112 -4 107 5T92 14Q88 14 80 11Q69 24 69 48Q69
70 86 84T130 99Q158 99 175 79T193 26Q193 -23 167 -64T92 -135L68 -106Q88 -89 100 -65Z" />
<glyph unicode="&lt;" glyph-name="less" horiz-adv-x="554" d="M64 312L447 493L472 442L143 286L472 129L447 79L64 260V312Z" />
<glyph unicode="=" glyph-name="equal" horiz-adv-x="554" d="M62 383H492V331H62V383ZM62 240H492V187H62V240Z" />
<glyph unicode="&gt;" glyph-name="greater" horiz-adv-x="554" d="M77 129L406 286L77 442L102 493L485 312V260L102 79L77 129Z" />
<glyph unicode="?" glyph-name="question" horiz-adv-x="422" d="M120 203T107 221T94 265Q94 310 115 339T179 405Q221 441 242 469T263 541Q263 574 240 594T181 614Q150 614 131 602T111 562Q111 545 122 526Q112 511 101 504T74 497Q24 497 24 554Q24 603
70 629T177 656Q252 656 297 626T342 529Q342 493 329 465T298 415T249 366Q214 334 198 312T181 263Q181 243 187 219Q167 203 143 203Q120 203 107 221ZM127 -7T114 8T100 51Q100 79 113 94T153 109Q179 109 192 94T206 51Q206 23 193 8T153 -7Q127 -7 114 8Z"
/>
<glyph unicode="@" glyph-name="at" horiz-adv-x="885" d="M323 -142T235 -94T99 43T51 251Q51 361 100 450T239 592T451 645Q571 645 658 600T792 477T838 298Q838 179 790 104T653 28Q544 28 520 81Q486 52 457 42T392 32Q337 32 307 59T277 139Q277 261 441
275L511 281V349Q511 396 494 417T438 439Q405 439 386 427T367 395Q367 373 396 363Q396 339 382 327T340 314Q315 314 300 330T285 370Q285 419 327 447T438 476Q512 476 553 443T595 349V139Q595 75 659 75Q701 75 725 140T749 298Q749 384 717 452T618 561T451
602Q358 602 287 555T178 428T140 251Q140 155 177 76T282 -50T441 -97Q486 -97 527 -88T600 -59L622 -94Q546 -142 441 -142Q323 -142 235 -94ZM439 75T461 86T511 126V238L445 233Q406 230 383 206T360 147Q360 75 416 75Q439 75 461 86Z" />
<glyph unicode="A" glyph-name="A" horiz-adv-x="599" d="M29 41T45 46T77 63L264 667H324L530 62Q555 44 596 37L592 0H342L347 37Q405 44 439 64L388 215H186L140 64Q173 45 237 37L233 0H1L6 37Q29 41 45 46ZM371 267L283 528L202 267H371Z" />
<glyph unicode="B" glyph-name="B" horiz-adv-x="579" d="M94 44T128 64V604Q93 624 30 631L35 667H294Q409 667 466 625T523 501Q523 387 406 354Q475 334 513 292T551 188Q551 101 491 51T321 0H31L36 37Q94 44 128 64ZM368 376T402 406T436 499Q436 562 402
591T293 621Q260 621 216 617V376H296Q368 376 402 406ZM390 49T425 84T460 187Q460 254 419 290T295 327H216V53Q258 49 321 49Q390 49 425 84Z" />
<glyph unicode="C" glyph-name="C" horiz-adv-x="519" d="M151 -7T89 76T26 334Q26 508 89 592T285 676Q342 676 387 659T458 612T484 544Q484 511 467 488T426 465Q406 465 390 476T368 504Q387 530 387 554Q387 585 359 603T285 622Q204 622 165 552T126 334Q126
189 164 121T285 53Q337 53 386 77T461 135L496 97Q465 59 410 26T282 -7Q151 -7 89 76Z" />
<glyph unicode="D" glyph-name="D" horiz-adv-x="625" d="M66 41T87 46T127 63V604Q92 623 30 631L35 667H250Q425 667 512 587T599 333Q599 158 512 79T244 0H31L36 37Q66 41 87 46ZM381 49T440 113T499 334Q499 489 441 553T264 617H216V53Q233 49 261 49Q381
49 440 113Z" />
<glyph unicode="E" glyph-name="E" horiz-adv-x="540" d="M62 40T89 47T128 64V604Q90 624 30 631L35 667H481L489 515Q476 510 461 510Q456 510 446 512Q433 578 404 614H216V364L329 369Q350 370 363 388T385 436H417V238H385Q373 281 362 296T326 312L216 318V58H429Q459
100 472 171Q484 173 491 173Q496 173 512 171L503 0H30L36 37Q62 40 89 47Z" />
<glyph unicode="F" glyph-name="F" horiz-adv-x="509" d="M62 40T89 47T128 64V604Q89 624 30 631L35 667H481L489 515Q476 510 462 510Q451 510 446 512Q434 574 399 614H216V356L329 361Q351 362 365 383T385 429H417V231H385Q377 267 364 285T328 304L216 310V64Q247
45 313 37L309 0H30L36 37Q62 40 89 47Z" />
<glyph unicode="G" glyph-name="G" horiz-adv-x="539" d="M151 -7T89 80T26 334Q26 500 89 588T299 676Q349 676 397 662T478 618T510 544Q510 509 493 487T451 465Q431 465 415 476T393 504Q412 532 412 554Q412 587 381 604T300 622Q198 622 163 546T127 334Q127
199 162 123T298 46Q339 46 373 58T421 83V258Q380 275 319 279L323 316L510 325V42Q469 19 411 6T298 -7Q151 -7 89 80Z" />
<glyph unicode="H" glyph-name="H" horiz-adv-x="696" d="M62 40T82 46T123 64V604Q83 625 30 631L35 667H309L303 631Q248 624 211 604V368H486V604Q447 624 388 631L393 667H666L661 631Q612 625 574 604V64Q608 44 666 37L662 0H388L394 37Q452 44 486 64V317H211V64Q247
44 309 37L304 0H30L36 37Q62 40 82 46Z" />
<glyph unicode="I" glyph-name="I" horiz-adv-x="343" d="M94 44T128 64V604Q89 624 30 631L35 667H312L307 631Q253 624 216 604V64Q249 45 313 37L308 0H30L36 37Q94 44 128 64Z" />
<glyph unicode="J" glyph-name="J" horiz-adv-x="304" d="M46 -143T78 -105T110 1V604Q71 624 12 631L17 667H294L289 631Q233 624 198 604V16Q198 -72 148 -122T3 -198L-8 -168Q46 -143 78 -105Z" />
<glyph unicode="K" glyph-name="K" horiz-adv-x="630" d="M64 40T86 46T127 64V604Q90 624 30 631L35 667H314L308 631Q253 625 216 604V64Q252 44 314 37L309 0H30L36 37Q64 40 86 46ZM454 12T450 26T439 48L226 348L414 582Q420 594 420 602Q420 615 403 622T358
631L364 667H599L595 631Q566 629 545 623T504 599L318 366L536 64Q565 43 621 38L615 0H455Q454 12 450 26Z" />
<glyph unicode="L" glyph-name="L" horiz-adv-x="501" d="M95 44T126 64V604Q89 624 30 631L35 667H312L307 631Q252 624 215 604V58H402Q433 102 445 171Q453 174 463 174Q473 174 485 171L476 0H30L36 37Q95 44 126 64Z" />
<glyph unicode="M" glyph-name="M" horiz-adv-x="888" d="M92 43T126 64V604Q89 624 30 631L34 667H227L451 123L667 667H858L853 631Q798 625 761 604V64Q794 45 858 37L854 0H576L581 37Q610 40 631 46T673 64V529H669L466 0H407L194 538H190V64Q225 43 287
37L283 0H30L35 37Q92 43 126 64Z" />
<glyph unicode="N" glyph-name="N" horiz-adv-x="693" d="M94 44T128 64V604Q89 624 30 631L35 667H194L509 191V604Q474 623 413 631L418 667H671L666 631Q611 625 574 604V0H531L191 515V64Q224 45 288 37L284 0H30L36 37Q94 44 128 64Z" />
<glyph unicode="O" glyph-name="O" horiz-adv-x="599" d="M153 -7T90 81T26 334Q26 500 89 588T300 676Q446 676 509 588T573 333Q573 168 510 81T300 -7Q153 -7 90 81ZM371 42T408 80T459 182T472 333Q472 422 459 485T409 587T300 626Q229 626 191 587T140 486T127
334Q127 197 162 120T300 42Q371 42 408 80Z" />
<glyph unicode="P" glyph-name="P" horiz-adv-x="533" d="M94 44T128 64V604Q89 624 30 631L35 667H292Q405 667 459 620T514 482Q514 378 446 336T248 293H216V64Q249 45 313 37L309 0H31L37 37Q94 44 128 64ZM332 338T378 373T424 484Q424 625 282 625Q251 625
216 619V338H248Q332 338 378 373Z" />
<glyph unicode="Q" glyph-name="Q" horiz-adv-x="599" d="M348 -144T277 -6Q143 0 85 87T26 334Q26 500 89 588T300 676Q446 676 509 588T573 333Q573 186 523 101T358 -2Q376 -49 417 -85T512 -140V-146Q512 -161 502 -170Q348 -144 277 -6ZM371 42T408 80T459
182T472 333Q472 422 459 485T409 587T300 626Q229 626 191 587T140 486T127 334Q127 197 162 120T300 42Q371 42 408 80Z" />
<glyph unicode="R" glyph-name="R" horiz-adv-x="613" d="M94 44T128 64V604Q93 624 30 631L35 667H292Q521 667 521 491Q521 425 488 384T383 326Q402 314 416 293T445 240L524 64Q554 44 608 38L602 0H451L364 223Q347 266 335 283T302 305T236 311H216V64Q231
55 253 49T313 37L308 0H31L36 37Q94 44 128 64ZM341 357T386 390T431 493Q431 559 396 592T291 626Q257 626 216 619V357H247Q341 357 386 390Z" />
<glyph unicode="S" glyph-name="S" horiz-adv-x="453" d="M151 -7T97 10T18 45V209L67 214Q73 166 80 133T103 66Q153 43 217 43Q273 43 307 74T342 160Q342 199 323 226T275 269T198 306Q144 329 110 350T51 408T27 499Q27 580 81 628T233 676Q283 676 326 659T395
613T421 549Q421 485 371 485Q348 485 336 492T313 513Q334 534 334 564Q334 590 307 607T232 625Q176 625 145 599T113 524Q113 488 131 464T177 425T252 389Q310 364 346 342T407 281T433 181Q433 90 370 42T203 -7Q151 -7 97 10Z" />
<glyph unicode="T" glyph-name="T" horiz-adv-x="557" d="M203 44T235 64V622Q158 621 104 615Q86 590 77 558T66 499Q59 498 45 498Q29 498 22 499V671Q160 667 278 667Q357 667 430 668T535 671V499Q528 498 514 498Q499 498 491 499Q484 571 455 614Q390 621
323 622V64Q358 45 421 37L416 0H138L144 37Q203 44 235 64Z" />
<glyph unicode="U" glyph-name="U" horiz-adv-x="687" d="M224 -7T167 45T109 210V604Q70 624 12 631L16 667H296L290 631Q233 621 200 604V210Q200 122 236 84T352 45Q430 45 472 89T514 216V604Q477 624 417 631L422 667H675L670 631Q611 621 578 604V216Q578
109 520 51T352 -7Q224 -7 167 45Z" />
<glyph unicode="V" glyph-name="V" horiz-adv-x="598" d="M44 622T4 631L9 667H251L245 631Q193 624 159 604L316 153L459 604Q419 625 368 631L373 667H593L587 631Q553 625 525 605L329 0H281L65 604Q44 622 4 631Z" />
<glyph unicode="W" glyph-name="W" horiz-adv-x="889" d="M42 622T4 631L8 667H251L245 631Q193 624 159 604L291 159L440 667H472L632 161L751 604Q711 625 660 631L665 667H885L879 631Q846 625 819 606L646 0H598L444 462L304 0H256L64 605Q42 622 4 631Z" />
<glyph unicode="X" glyph-name="X" horiz-adv-x="571" d="M37 41T68 61L242 339L71 605Q49 621 10 631L15 667H262L256 631Q207 624 176 604L298 412L418 604Q387 622 338 631L343 667H560L555 631Q519 626 491 605L335 355L523 61Q539 50 556 45T597 37L592 0H326L331
37Q365 37 384 43T417 63L277 283L140 61Q158 37 233 37L229 0H-25L-20 37Q37 41 68 61Z" />
<glyph unicode="Y" glyph-name="Y" horiz-adv-x="557" d="M171 41T193 46T236 64V265L66 605Q42 623 4 631L9 667H256L251 631Q199 624 164 604L289 343L417 605Q379 625 328 631L333 667H553L547 631Q511 624 486 605L324 277V64Q358 45 426 37L422 0H134L139
37Q171 41 193 46Z" />
<glyph unicode="Z" glyph-name="Z" horiz-adv-x="507" d="M370 615Q339 616 254 616L158 615Q150 614 132 614Q115 599 103 568T84 502L63 501Q51 501 46 502L34 648L60 672Q185 667 282 667Q341 667 476 672L485 632L130 52L247 51L375 52Q422 108 441 181Q453
183 462 183Q470 183 484 181L475 -3Q406 0 225 0Q154 0 101 -1T27 -4L24 46L370 615Z" />
<glyph unicode="[" glyph-name="bracketleft" horiz-adv-x="350" d="M111 709H292V676L179 666V-96L292 -106V-140H111V709Z" />
<glyph unicode="\" glyph-name="backslash" horiz-adv-x="490" d="M49 671L105 692L411 -104L355 -125L49 671Z" />
<glyph unicode="]" glyph-name="bracketright" horiz-adv-x="350" d="M58 -106L171 -96V666L58 676V709H239V-140H58V-106Z" />
<glyph unicode="^" glyph-name="asciicircum" horiz-adv-x="554" d="M70 356L251 674H303L484 356L434 331L277 604L121 331L70 356Z" />
<glyph unicode="_" glyph-name="underscore" horiz-adv-x="371" d="M0 -58H371V-112H0V-58Z" />
<glyph unicode="`" glyph-name="grave" horiz-adv-x="151" d="M12 640T6 648T0 668Q0 682 11 692T36 703Q55 703 68 686L151 570L127 546L25 629Q12 640 6 648Z" />
<glyph unicode="a" glyph-name="a" horiz-adv-x="470" d="M94 -7T60 23T26 107Q26 172 74 209T213 253L295 259V340Q295 390 274 413T206 436Q166 436 145 424T123 391Q123 365 153 354Q153 331 139 319T96 306Q70 306 54 322T38 364Q38 415 83 445T206 476Q288
476 334 440T380 340V61Q389 54 409 46T450 34L446 0H308L298 45Q267 16 233 5T156 -7Q94 -7 60 23ZM209 34T236 47T295 92V218L215 211Q168 207 141 182T114 116Q114 34 181 34Q209 34 236 47Z" />
<glyph unicode="b" glyph-name="b" horiz-adv-x="520" d="M213 -7T160 42Q145 19 140 0H92V567Q92 604 77 617T22 633L25 663Q64 669 106 681T158 697L178 687V406Q193 435 226 455T296 476Q398 476 445 412T492 237Q492 128 436 61T276 -7Q213 -7 160 42ZM353
35T377 91T401 237Q401 298 394 339T365 407T298 433Q225 433 202 371T178 205V85Q204 62 228 49T281 35Q353 35 377 91Z" />
<glyph unicode="c" glyph-name="c" horiz-adv-x="421" d="M126 -7T77 54T28 238Q30 356 84 416T243 476Q312 476 354 447T397 370Q397 347 382 329T344 311Q325 311 311 321T292 347Q305 368 305 383Q305 409 288 424T243 440Q172 440 147 386T121 238Q121 173
129 132T164 67T244 42Q281 42 314 55T371 89L397 59Q369 31 328 12T239 -7Q126 -7 77 54Z" />
<glyph unicode="d" glyph-name="d" horiz-adv-x="520" d="M120 -7T74 51T28 224Q28 347 86 411T254 476Q297 476 339 459V567Q339 604 324 617T270 633L272 662Q318 670 385 691L405 697L425 687V61Q448 43 494 34L491 0H347L339 59Q297 -7 211 -7Q120 -7 74 51ZM278
36T308 83T339 224V414Q321 423 301 428T251 434Q187 434 152 379T116 224Q116 127 141 82T220 36Q278 36 308 83Z" />
<glyph unicode="e" glyph-name="e" horiz-adv-x="441" d="M125 -7T77 54T28 238Q28 349 81 412T237 476Q336 476 376 424T419 270L398 243H120V238Q120 173 128 132T163 67T243 42Q283 42 316 57T371 89L396 59Q371 36 331 15T237 -7Q125 -7 77 54ZM329 366T309
401T233 436Q176 436 149 395T120 280L329 287Q329 366 309 401Z" />
<glyph unicode="f" glyph-name="f" horiz-adv-x="313" d="M58 40T72 45T100 62V417H26L21 452Q67 456 100 470V524Q100 607 134 658T245 709Q295 709 331 685T367 622Q367 592 352 576T315 560Q298 560 286 570T270 598Q288 616 288 635Q288 651 275 661T238 672Q203
672 188 649T173 590Q173 572 179 532Q185 488 185 470H289V417H185V62Q207 45 261 34L258 0H30L34 36Q58 40 72 45Z" />
<glyph unicode="g" glyph-name="g" horiz-adv-x="459" d="M129 -219T76 -185T22 -93Q22 -58 30 -37T54 -2T99 28Q77 53 77 95L159 153Q100 167 68 207T35 308Q35 390 81 432T218 475Q287 475 330 451Q366 462 366 490Q366 500 359 510T338 526Q338 541 350 550T385
560Q408 560 421 547T435 510Q435 480 417 458T365 423Q402 382 402 308Q402 234 353 191T218 147H204L162 95Q164 80 177 74T226 67H268Q360 67 403 26T447 -80Q447 -147 395 -183T235 -219Q129 -219 76 -185ZM267 188T289 217T311 311Q311 376 289 405T218 435Q169
435 147 406T125 311Q125 246 147 217T218 188Q267 188 289 217ZM355 -178T355 -80Q355 -39 327 -20T244 -1H159Q114 -30 114 -80Q114 -129 145 -153T235 -178Q355 -178 355 -80Z" />
<glyph unicode="h" glyph-name="h" horiz-adv-x="554" d="M53 40T67 45T96 62V567Q96 604 81 617T26 633L29 663Q68 669 110 681T162 697L181 687V408Q206 439 239 457T310 476Q383 476 423 440T464 338V62Q473 54 493 46T534 34L530 0H310L313 34Q351 40 379
62V329Q379 428 294 428Q259 428 228 405T181 344V62Q206 43 251 35L247 0H26L30 37Q53 40 67 45Z" />
<glyph unicode="i" glyph-name="i" horiz-adv-x="277" d="M57 40T71 45T100 61V349Q100 386 85 399T30 415L33 444Q73 451 115 464T165 479L185 468V61Q210 43 255 34L251 0H30L34 36Q57 40 71 45ZM79 553T79 611Q79 669 131 669Q157 669 170 654T184 611Q184
583 171 568T131 553Q79 553 79 611Z" />
<glyph unicode="j" glyph-name="j" horiz-adv-x="255" d="M19 -216T-11 -198T-42 -139Q-42 -116 -29 -100T6 -84Q33 -84 45 -104Q38 -109 34 -118T30 -137Q30 -152 40 -162T67 -173Q107 -173 107 -108Q107 -83 105 -60T102 -29Q95 17 95 73V349Q95 386 80 399T25
415L28 444Q79 453 161 479L180 468V-33Q180 -136 147 -179Q120 -216 66 -216Q19 -216 -11 -198ZM78 553T78 611Q78 669 130 669Q156 669 169 654T183 611Q183 583 170 568T130 553Q78 553 78 611Z" />
<glyph unicode="k" glyph-name="k" horiz-adv-x="525" d="M53 40T67 45T96 62V567Q96 604 81 617T26 633L29 663Q68 669 110 681T162 697L181 687V273L318 411Q344 439 351 467H484L487 437Q418 434 377 394L285 302L435 63Q471 43 527 35L523 0H380L227 244L181
199V62Q206 43 251 35L247 0H26L30 37Q53 40 67 45Z" />
<glyph unicode="l" glyph-name="l" horiz-adv-x="271" d="M53 40T67 45T96 62V567Q96 604 81 617T26 633L29 663Q68 669 110 681T162 697L181 687V62Q206 43 251 35L247 0H26L30 37Q53 40 67 45Z" />
<glyph unicode="m" glyph-name="m" horiz-adv-x="813" d="M58 40T72 45T100 62V347Q100 384 85 397T30 413L33 442Q69 449 124 466Q130 468 156 476L174 467L181 415Q198 434 228 455T303 476Q395 476 435 414Q466 442 498 459T568 476Q636 476 679 440T723 326V62Q733
54 752 46T793 34L789 0H570L572 34Q610 40 638 62V329Q638 380 619 404T559 428Q527 428 499 408T457 361V62Q466 54 486 46T527 34L523 0H303L306 34Q344 40 372 62V329Q372 380 353 404T293 428Q258 428 227 404T186 350V62Q209 44 255 34L251 0H30L34 36Q58
40 72 45Z" />
<glyph unicode="n" glyph-name="n" horiz-adv-x="558" d="M57 40T71 45T100 62V347Q100 384 85 397T30 413L33 442Q64 448 122 466L155 476L173 467L182 405Q205 438 240 457T314 476Q387 476 427 440T468 338V62Q477 54 497 46T538 34L534 0H314L317 34Q355 40
383 62V329Q383 428 297 428Q263 428 232 405T185 344V62Q209 43 255 34L251 0H30L34 36Q57 40 71 45Z" />
<glyph unicode="o" glyph-name="o" horiz-adv-x="480" d="M135 -7T82 55T28 235Q28 353 81 414T240 476Q345 476 398 415T452 235Q452 117 399 55T240 -7Q135 -7 82 55ZM305 39T334 85T364 235Q364 339 335 384T240 430Q175 430 147 385T118 235Q118 131 146 85T240
39Q305 39 334 85Z" />
<glyph unicode="p" glyph-name="p" horiz-adv-x="520" d="M52 -171T66 -166T95 -149V348Q95 385 80 398T26 414L29 443Q60 449 118 467L151 477L169 467L178 406Q219 476 309 476Q400 476 446 418T492 244Q492 122 434 58T266 -7Q219 -7 181 9V-149Q207 -169 250
-176L247 -210H26L30 -174Q52 -171 66 -166ZM333 35T368 90T404 244Q404 341 379 387T301 433Q242 433 212 386T181 245V55Q217 35 269 35Q333 35 368 90Z" />
<glyph unicode="q" glyph-name="q" horiz-adv-x="501" d="M288 -172T302 -167T331 -151V59Q289 -7 217 -7Q118 -7 73 57T28 232Q28 344 78 410T235 476Q295 476 347 429L363 467H416V-151Q441 -169 486 -178L482 -212H261L265 -176Q288 -172 302 -167ZM282 35T306
91T331 240V383Q282 434 233 434Q182 434 157 405T125 333T118 232Q118 138 137 87T217 35Q282 35 306 91Z" />
<glyph unicode="r" glyph-name="r" horiz-adv-x="396" d="M57 40T71 45T100 62V347Q100 384 85 397T30 413L33 442Q64 448 122 466L155 476L173 467L183 397Q206 432 237 454T303 476Q339 476 365 455T392 395Q392 370 378 351T339 332Q322 332 307 340T288 363Q292
367 295 375T298 391Q298 421 270 421Q252 421 232 402T199 354T185 294V62Q212 44 264 34L260 0H30L34 36Q57 40 71 45Z" />
<glyph unicode="s" glyph-name="s" horiz-adv-x="392" d="M148 -6T103 5T34 32V155L87 162Q91 120 96 96T114 49Q146 39 191 39Q232 39 258 61T284 116Q284 149 259 165T178 201Q132 217 104 232T55 275T35 347Q35 407 79 441T202 475Q244 475 279 462T336 427T357
377Q357 325 311 325Q292 325 280 331T257 352Q274 364 274 388Q274 409 252 422T196 435Q156 435 133 417T110 368Q110 343 125 327T163 300T226 276Q269 260 296 245T343 204T362 136Q362 69 315 32T183 -6Q148 -6 103 5Z" />
<glyph unicode="t" glyph-name="t" horiz-adv-x="325" d="M139 -10T115 18T91 113V413H10V443Q107 476 138 564H178V467H306V413H177V106Q177 69 186 53T230 37Q252 37 268 42T300 57L320 27Q299 12 274 1T206 -10Q139 -10 115 18Z" />
<glyph unicode="u" glyph-name="u" horiz-adv-x="546" d="M88 -7T88 154V349Q88 386 73 399T19 415L21 444Q67 452 134 473L154 479L174 469V143Q174 94 194 66T260 38Q286 38 315 57T366 117V349Q366 386 351 399T296 415L299 444Q345 452 412 473L432 479L451
469V62Q460 54 480 47T520 35L517 0H384L374 63Q348 28 316 11T249 -7Q88 -7 88 154Z" />
<glyph unicode="v" glyph-name="v" horiz-adv-x="470" d="M36 410T21 420T-30 437L-28 467H195L192 437Q170 434 156 430T130 415L236 96L342 415Q321 430 282 437L285 467H475L472 437Q436 430 422 423T403 401L253 0H186L43 390Q36 410 21 420Z" />
<glyph unicode="w" glyph-name="w" horiz-adv-x="720" d="M35 411T21 420T-30 437L-28 467H195L192 437Q170 434 156 430T130 415L226 104L338 450H377L499 103L592 415Q573 430 533 437L536 467H725L722 437Q686 430 672 423T653 401L512 0H451L344 291L241 0H179L42
391Q35 411 21 420Z" />
<glyph unicode="x" glyph-name="x" horiz-adv-x="483" d="M28 39T44 44T73 62L200 229L73 402Q62 418 48 426T11 437L14 467H229L224 437Q188 434 163 416L255 292L343 409Q328 421 313 427T276 437L279 467H480L476 437Q446 433 430 426T402 405L285 250L424
62Q436 49 449 45T483 37L479 0H263L267 36Q291 39 305 42T330 53L230 188L131 56Q143 46 158 43T198 36L195 0H-3L0 36Q28 39 44 44Z" />
<glyph unicode="y" glyph-name="y" horiz-adv-x="482" d="M67 -218T41 -197T15 -141Q15 -114 29 -99T64 -84Q82 -84 99 -95Q87 -112 87 -130Q87 -145 96 -154T120 -164Q142 -164 158 -143T190 -73L211 -8L48 392Q41 409 25 419T-24 436L-22 467H196L193 437Q174
435 160 431T134 415L250 110L349 415Q327 432 290 437L292 467H487L485 437Q445 431 431 424T411 404L242 -84Q217 -157 186 -187T106 -218Q67 -218 41 -197Z" />
<glyph unicode="z" glyph-name="z" horiz-adv-x="428" d="M291 421Q235 425 215 425Q158 425 126 420Q117 408 109 385T99 339Q86 334 72 334Q57 334 46 338L37 448L62 469Q93 469 117 468L235 467Q318 467 386 469L393 433L132 46Q147 45 221 45Q280 45 303 46Q327
79 343 138Q355 141 368 141Q375 141 391 139L384 21L365 -3Q326 0 202 0Q157 0 67 -3L40 -4L32 38L291 421Z" />
<glyph unicode="{" glyph-name="braceleft" horiz-adv-x="387" d="M272 -142T232 -121T168 -63T143 18Q143 45 156 104Q157 111 163 142T169 194Q169 223 155 241T120 267V301Q140 307 154 325T169 373Q169 392 163 423T156 462Q143 523 143 549Q143 593 167 629T231
687T317 708V675Q269 671 243 637T217 556Q217 522 226 481Q227 476 231 453T235 404Q235 365 223 334T189 284Q210 266 222 234T235 163Q235 138 231 115T226 86Q217 45 217 11Q217 -36 243 -70T317 -107V-142Q272 -142 232 -121Z" />
<glyph unicode="|" glyph-name="bar" horiz-adv-x="316" d="M126 754H190V-146H126V754Z" />
<glyph unicode="}" glyph-name="braceright" horiz-adv-x="387" d="M118 -105T144 -71T170 11Q170 45 161 86Q160 91 156 114T152 163Q152 202 164 234T198 284Q177 302 165 333T152 404Q152 429 156 452T161 481Q170 522 170 556Q170 603 144 637T70 675V708Q115
708 155 687T220 630T244 549Q244 523 231 462Q230 454 224 423T218 373Q218 344 232 326T267 301V267Q247 260 233 242T218 194Q218 174 224 143T231 104Q244 45 244 18Q244 -26 220 -63T155 -121T70 -142V-107Q118 -105 144 -71Z" />
<glyph unicode="~" glyph-name="asciitilde" horiz-adv-x="712" d="M114 248T106 262Q175 342 254 342Q289 342 373 316Q382 314 407 307T450 297T480 293Q510 293 534 303T585 333Q597 326 606 314Q586 283 551 257T471 231Q446 231 416 237T345 257Q301 270
277 275T230 281Q201 281 177 271T127 241Q114 248 106 262Z" />
<glyph unicode="&#xa0;" glyph-name="uni00A0" horiz-adv-x="220" />
<glyph unicode="&#xa1;" glyph-name="exclamdown" horiz-adv-x="286" d="M108 371T95 386T81 429Q81 457 94 472T134 487Q160 487 173 472T187 429Q187 401 174 386T134 371Q108 371 95 386ZM89 -197T77 -178T64 -122Q64 -83 84 44Q105 174 111 254L163 263L162
178Q160 106 160 61Q160 -99 179 -180Q156 -197 120 -197Q89 -197 77 -178Z" />
<glyph unicode="&#xa2;" glyph-name="cent" horiz-adv-x="441" d="M242 -64T220 -60V33Q132 41 87 96T42 250Q42 346 87 403T220 471V562L226 569Q242 569 260 564V473Q327 472 369 443T411 369Q411 346 396 329T358 312Q339 312 325 321T306 346Q318 366 318
382Q318 407 302 421T260 437V82Q296 83 329 97T385 129L411 99Q384 72 344 53T260 32V-58L254 -64Q242 -64 220 -60ZM170 421T153 375T135 250Q135 106 220 85V433Q170 421 153 375Z" />
<glyph unicode="&#xa3;" glyph-name="sterling" horiz-adv-x="528" d="M64 -7T40 10T15 60Q15 94 40 115T104 136Q134 136 167 125Q168 132 168 148Q168 201 139 308H53L48 341L55 348H129Q110 432 110 468Q110 568 162 621T311 675Q375 675 423 645T472 557Q472
526 456 507T417 487Q398 487 383 496T362 520Q380 544 380 568Q380 594 360 610T303 627Q200 627 200 476Q200 426 220 348H369L374 314L367 308H231Q247 242 247 199Q247 150 230 104Q307 76 375 76Q402 76 410 90T419 133V151Q448 150 468 132T489 83Q489 36
460 15T381 -7Q342 -7 309 7T232 48Q225 52 220 55T210 61Q166 -7 100 -7Q64 -7 40 10ZM146 32T161 87Q130 99 104 99Q84 99 73 89T61 62Q61 32 99 32Q146 32 161 87Z" />
<glyph unicode="&#xa4;" glyph-name="currency" horiz-adv-x="544" d="M132 170Q91 217 91 294Q91 372 134 421L74 486L113 524L178 454Q219 476 272 476Q323 476 365 455L431 524L470 486L409 421Q452 370 452 294Q452 219 411 170L470 105L431 68L370 136Q330
112 272 112Q215 112 173 136L113 68L74 105L132 170ZM330 153T358 190T387 294Q387 360 359 397T272 435Q212 435 184 397T156 294Q156 227 185 190T272 153Q330 153 358 190Z" />
<glyph unicode="&#xa5;" glyph-name="yen" horiz-adv-x="609" d="M532 624T507 605L398 384H510Q514 369 514 351L508 345H379L347 281H510Q514 268 514 248L508 242H345V64Q379 45 447 37L443 0H155L160 37Q192 41 214 46T257 64V242H99Q94 259 94 275L101 281H249L217
345H99Q94 355 94 378L101 384H198L87 605Q63 623 25 631L30 667H277L272 631Q220 624 185 604L310 343L438 605Q400 625 349 631L354 667H574L568 631Q532 624 507 605Z" />
<glyph unicode="&#xa6;" glyph-name="brokenbar" horiz-adv-x="316" d="M126 754H190V398H126V754ZM126 210H190V-146H126V210Z" />
<glyph unicode="&#xa7;" glyph-name="section" horiz-adv-x="500" d="M169 -31T126 1T82 87Q82 117 97 137T139 157Q160 157 172 150T193 128Q171 106 171 73Q171 43 191 28T244 12Q315 12 315 85Q315 121 299 155T260 218T196 293Q138 358 108 408T78 517Q78
599 132 648T274 697Q348 697 390 664T432 576Q432 545 418 527T379 509Q357 509 345 516T324 537Q346 559 346 593Q346 622 327 637T274 653Q242 653 224 635T205 580Q205 532 225 499T291 416Q333 369 344 355L361 334Q402 284 422 245T443 148Q443 66 388 18T244
-31Q169 -31 126 1ZM378 93T384 113T390 157Q390 197 375 231T337 293T275 361Q236 402 213 431T172 497T153 576Q143 565 138 546T132 504Q132 472 146 442T181 386T240 318Q282 273 307 240T351 167T369 81Q378 93 384 113Z" />
<glyph unicode="&#xa8;" glyph-name="dieresis" horiz-adv-x="261" d="M0 558T0 611Q0 663 47 663Q70 663 82 650T94 611Q94 585 82 572T47 558Q0 558 0 611ZM167 558T167 611Q167 663 213 663Q237 663 249 650T261 611Q261 558 213 558Q167 558 167 611Z" />
<glyph unicode="&#xa9;" glyph-name="copyright" horiz-adv-x="851" d="M345 16T279 54T174 159T135 304Q135 382 174 448T279 553T425 592Q504 592 571 554T677 449T716 304Q716 226 677 160T572 55T425 16Q345 16 279 54ZM491 53T548 86T638 178T671 304Q671
372 638 429T548 521T425 555Q359 555 303 521T213 430T179 304Q179 236 212 178T302 87T425 53Q491 53 548 86ZM350 127T313 169T276 301Q276 388 316 432T433 476Q483 476 514 455T546 399Q546 382 535 369T507 355Q493 355 482 362T468 382Q478 397 478 408Q478
426 466 437T433 449Q387 449 366 414T345 301Q345 224 364 191T430 158Q491 158 513 221L543 211Q531 173 501 150T430 127Q350 127 313 169Z" />
<glyph unicode="&#xaa;" glyph-name="ordfeminine" horiz-adv-x="417" d="M115 340T92 360T69 418Q69 505 193 516L240 520V568Q240 603 229 618T190 634Q169 634 156 627T143 606Q143 593 154 581Q153 566 142 558T117 550Q100 550 88 560T76 588Q76 623 108
644T195 665Q248 665 277 639T307 568V387Q320 378 354 371L351 345H250L244 369Q210 340 157 340Q115 340 92 360ZM209 372T240 398V488L196 485Q169 483 153 466T137 423Q137 398 147 385T178 372Q209 372 240 398ZM69 290H352V256H69V290Z" />
<glyph unicode="&#xab;" glyph-name="guillemotleft" horiz-adv-x="491" d="M60 241L220 439L259 415L159 241L259 68L220 43L60 241ZM247 241L407 439L446 415L346 241L446 68L407 43L247 241Z" />
<glyph unicode="&#xac;" glyph-name="logicalnot" horiz-adv-x="554" d="M418 345H39V398H478V177H418V345Z" />
<glyph unicode="&#xad;" glyph-name="uni00AD" horiz-adv-x="332" d="M52 285H281V231H52V285Z" />
<glyph unicode="&#xae;" glyph-name="registered" horiz-adv-x="851" d="M345 16T279 54T174 159T135 304Q135 382 174 448T279 553T425 592Q504 592 571 554T677 449T716 304Q716 226 677 160T572 55T425 16Q345 16 279 54ZM491 53T548 86T638 178T671 304Q671
372 638 429T548 521T425 555Q359 555 303 521T213 430T179 304Q179 236 212 178T302 87T425 53Q491 53 548 86ZM337 194V430L294 442L297 467H427Q482 467 510 446T539 383Q539 354 524 336T477 308Q487 301 493 294T503 275L540 194L575 186L571 160H489L450
261Q441 285 431 291T394 297V194L436 185L433 160H294L297 185L337 194ZM443 330T462 343T481 383Q481 409 467 423T427 437H394V330H408Q443 330 462 343Z" />
<glyph unicode="&#xaf;" glyph-name="overscore" horiz-adv-x="278" d="M0 622H278V578H0V622Z" />
<glyph unicode="&#xb0;" glyph-name="degree" horiz-adv-x="375" d="M147 390T115 408T65 458T47 527Q47 565 65 596T115 646T187 665Q227 665 259 647T310 597T328 527Q328 490 310 459T260 409T187 390Q147 390 115 408ZM222 425T240 454T259 527Q259 571 241
600T187 629Q153 629 135 600T116 527Q116 483 134 454T187 425Q222 425 240 454Z" />
<glyph unicode="&#xb1;" glyph-name="plusminus" horiz-adv-x="554" d="M72 380H244V558H304V380H481V327H304V150H244V327H72V380ZM75 80H475V27H75V80Z" />
<glyph unicode="&#xb2;" glyph-name="uni00B2" horiz-adv-x="407" d="M156 541T198 597T240 703Q240 772 175 772Q146 772 130 760T113 726Q113 707 130 692Q110 674 89 674Q71 674 58 686T45 724Q45 768 82 790T176 812Q240 812 274 783T309 698Q309 646 268
590T132 459H326V405H46V447Q156 541 198 597Z" />
<glyph unicode="&#xb3;" glyph-name="uni00B3" horiz-adv-x="407" d="M119 401T83 424T47 487Q47 504 58 514T89 525Q106 525 125 512Q118 498 118 485Q118 465 136 453T186 440Q218 440 236 460T254 518Q254 556 225 577T142 599V635Q193 637 219 656T246 711Q246
740 231 756T187 772Q160 772 144 760T128 728Q128 717 138 704Q117 689 98 689Q82 689 73 701T64 733Q64 766 100 789T189 812Q245 812 279 784T314 711Q314 645 241 618Q319 593 319 517Q319 465 281 433T183 401Q119 401 83 424Z" />
<glyph unicode="&#xb4;" glyph-name="acute" horiz-adv-x="151" d="M83 686Q96 703 115 703Q129 703 140 693T151 668Q151 657 145 648T126 629L22 546L0 570L83 686Z" />
<glyph unicode="&#xb5;" glyph-name="uni00B5" horiz-adv-x="544" d="M87 386T72 399T18 415L21 444Q63 452 132 473L153 479L173 469V143Q173 94 193 66T259 38Q285 38 314 57T365 117V349Q365 386 350 399T295 415L298 444Q344 452 411 473L431 479L450 469V62Q459
54 479 47T520 35L516 0H383L373 63Q347 29 315 11T248 -7Q209 -7 173 5V-205H87V349Q87 386 72 399Z" />
<glyph unicode="&#xb6;" glyph-name="paragraph" horiz-adv-x="588" d="M207 -179T177 -159T146 -97Q146 -70 161 -54T198 -37Q226 -37 238 -62Q220 -78 220 -101Q220 -121 231 -132T261 -143Q280 -143 290 -128T301 -91V314Q188 314 128 352T67 484Q67 579 128
618T301 657H521L516 620Q488 617 467 611T426 593V0Q426 -106 373 -142T261 -179Q207 -179 177 -159ZM385 -117T385 -47V612L349 615V-78Q349 -93 345 -109T333 -132Q385 -117 385 -47ZM166 613T166 485Q166 424 202 391T301 358V613Q166 613 166 485Z" />
<glyph unicode="&#xb7;" glyph-name="middot" horiz-adv-x="106" d="M27 235T14 250T0 293Q0 321 13 336T53 351Q79 351 92 336T106 293Q106 265 93 250T53 235Q27 235 14 250Z" />
<glyph unicode="&#xb8;" glyph-name="cedilla" horiz-adv-x="285" d="M91 -204T68 -184T45 -138Q45 -122 54 -111T78 -99Q87 -99 96 -103Q92 -117 92 -124Q92 -145 105 -158T137 -171Q180 -171 180 -121Q180 -84 125 -76L107 -56L147 9L173 4L155 -46Q192 -53
211 -71T231 -125Q231 -158 204 -181T136 -204Q91 -204 68 -184Z" />
<glyph unicode="&#xb9;" glyph-name="uni00B9" horiz-adv-x="407" d="M153 442T180 452V743H92V779Q162 785 219 812L245 802V452Q258 446 285 441T327 435L324 405H89L91 435Q153 442 180 452Z" />
<glyph unicode="&#xba;" glyph-name="ordmasculine" horiz-adv-x="428" d="M138 340T102 381T66 502Q66 581 102 623T208 665Q279 665 315 623T352 502Q352 422 316 381T208 340Q138 340 102 381ZM247 375T265 405T283 502Q283 569 265 599T208 629Q170 629 153
599T135 502Q135 435 152 405T208 375Q247 375 265 405ZM66 290H353V256H66V290Z" />
<glyph unicode="&#xbb;" glyph-name="guillemotright" horiz-adv-x="491" d="M45 68L144 241L45 415L84 439L244 241L84 43L45 68ZM232 68L331 241L232 415L271 439L431 241L271 43L232 68Z" />
<glyph unicode="&#xbc;" glyph-name="onequarter" horiz-adv-x="829" d="M212 -6L522 680L573 657L262 -32L212 -6ZM97 327T118 332T147 339V609H70V637Q138 649 185 672L210 662V339Q231 332 273 323L271 295H75L78 323Q97 327 118 332ZM483 91L477 116L608 371Q648
371 669 354L539 131H659V231Q674 231 686 238T702 256H724V130L779 121V91H722V0H659V91H483Z" />
<glyph unicode="&#xbd;" glyph-name="onehalf" horiz-adv-x="867" d="M234 -6L544 680L595 657L284 -32L234 -6ZM97 327T118 332T147 339V609H70V637Q138 649 185 672L210 662V339Q231 332 273 323L271 295H75L78 323Q97 327 118 332ZM644 127T683 178T723 275Q723
338 664 338Q637 338 622 324T607 290Q607 272 620 253Q604 237 582 237Q564 237 552 249T540 286Q540 309 557 330T602 364T664 377Q723 377 757 349T791 270Q791 223 752 172T621 52H807V0H539V40Q644 127 683 178Z" />
<glyph unicode="&#xbe;" glyph-name="threequarters" horiz-adv-x="866" d="M264 -6L574 680L625 657L314 -32L264 -6ZM155 288T120 313T85 378Q85 396 97 405T126 415Q143 415 161 402Q155 387 155 375Q155 353 171 340T217 327Q248 327 264 344T281 395Q281
431 254 451T174 472V503Q222 505 248 523T274 577Q274 602 260 616T219 630Q194 630 180 617T165 586Q165 573 172 562Q154 548 135 548Q119 548 110 559T100 591Q100 624 134 646T220 669Q274 669 306 644T339 577Q339 549 324 527T267 489Q308 477 328 453T348
395Q348 349 311 319T214 288Q155 288 120 313ZM520 91L514 116L645 371Q685 371 706 354L576 131H696V231Q711 231 723 238T739 256H761V130L816 121V91H759V0H696V91H520Z" />
<glyph unicode="&#xbf;" glyph-name="questiondown" horiz-adv-x="422" d="M208 371T195 386T181 429Q181 457 194 472T234 487Q260 487 273 472T287 429Q287 401 274 386T234 371Q208 371 195 386ZM133 -191T88 -161T43 -64Q43 -28 56 0T87 50T136 99Q171 131
187 153T204 203Q204 222 198 246Q219 263 242 263Q265 263 278 245T291 201Q291 156 270 126T205 60Q164 25 143 -4T122 -76Q122 -109 145 -128T204 -148Q234 -148 254 -136T274 -97Q274 -79 263 -61Q284 -31 311 -31Q360 -31 360 -89Q360 -139 314 -165T208 -191Q133
-191 88 -161Z" />
<glyph unicode="&#xc0;" glyph-name="Agrave" horiz-adv-x="599" d="M29 41T45 46T77 63L264 667H324L530 62Q555 44 596 37L592 0H342L347 37Q405 44 439 64L388 215H186L140 64Q173 45 237 37L233 0H1L6 37Q29 41 45 46ZM371 267L283 528L202 267H371ZM205 790T199
798T193 818Q193 832 204 842T229 853Q248 853 261 836L344 720L320 696L218 779Q205 790 199 798Z" />
<glyph unicode="&#xc1;" glyph-name="Aacute" horiz-adv-x="599" d="M29 41T45 46T77 63L264 667H324L530 62Q555 44 596 37L592 0H342L347 37Q405 44 439 64L388 215H186L140 64Q173 45 237 37L233 0H1L6 37Q29 41 45 46ZM371 267L283 528L202 267H371ZM326 835Q339
852 358 852Q372 852 383 842T394 817Q394 806 388 797T369 778L265 695L243 719L326 835Z" />
<glyph unicode="&#xc2;" glyph-name="Acircumflex" horiz-adv-x="599" d="M29 41T45 46T77 63L264 667H324L530 62Q555 44 596 37L592 0H342L347 37Q405 44 439 64L388 215H186L140 64Q173 45 237 37L233 0H1L6 37Q29 41 45 46ZM371 267L283 528L202 267H371ZM263
828Q277 844 294 844Q312 844 325 828L417 721L394 697L293 774L192 697L170 721L263 828Z" />
<glyph unicode="&#xc3;" glyph-name="Atilde" horiz-adv-x="599" d="M29 41T45 46T77 63L264 667H324L530 62Q555 44 596 37L592 0H342L347 37Q405 44 439 64L388 215H186L140 64Q173 45 237 37L233 0H1L6 37Q29 41 45 46ZM371 267L283 528L202 267H371ZM153 735T137
750Q148 778 174 803T237 828Q252 828 265 824T298 810Q330 793 351 793Q370 793 384 802T417 830Q434 824 450 811Q438 783 412 757T352 731Q335 731 322 735T288 750Q268 759 258 762T234 766Q216 766 201 757T169 731Q153 735 137 750Z" />
<glyph unicode="&#xc4;" glyph-name="Adieresis" horiz-adv-x="599" d="M29 41T45 46T77 63L264 667H324L530 62Q555 44 596 37L592 0H342L347 37Q405 44 439 64L388 215H186L140 64Q173 45 237 37L233 0H1L6 37Q29 41 45 46ZM371 267L283 528L202 267H371ZM163
723T163 776Q163 828 210 828Q233 828 245 815T257 776Q257 750 245 737T210 723Q163 723 163 776ZM330 723T330 776Q330 828 376 828Q400 828 412 815T424 776Q424 723 376 723Q330 723 330 776Z" />
<glyph unicode="&#xc5;" glyph-name="Aring" horiz-adv-x="599" d="M29 41T45 46T77 63L264 667H324L530 62Q555 44 596 37L592 0H342L347 37Q405 44 439 64L388 215H186L140 64Q173 45 237 37L233 0H1L6 37Q29 41 45 46ZM371 267L283 528L202 267H371ZM255 694T232
717T208 776Q208 813 231 836T293 859Q331 859 355 836T379 776Q379 740 355 717T293 694Q255 694 232 717ZM311 733T324 746T338 776Q338 794 325 807T293 821Q275 821 263 808T250 776Q250 758 262 746T293 733Q311 733 324 746Z" />
<glyph unicode="&#xc6;" glyph-name="AE" horiz-adv-x="866" d="M62 43T88 61L406 667H785L794 515Q781 510 766 510Q762 510 752 512Q740 576 710 614H521V364L633 369Q673 370 691 436H721V238H691Q679 278 667 294T632 312L521 318V58H734Q764 100 777 171Q791
173 797 173Q803 173 817 171L808 0H335L341 37Q369 40 390 46T433 64V271H265L157 64Q190 44 256 37L252 0H19L25 37Q62 43 88 61ZM433 318V590L290 318H433Z" />
<glyph unicode="&#xc7;" glyph-name="Ccedilla" horiz-adv-x="519" d="M466 61T416 29T297 -7L283 -46Q320 -53 339 -71T359 -125Q359 -158 332 -181T264 -204Q219 -204 196 -184T173 -138Q173 -122 182 -111T206 -99Q215 -99 224 -103Q220 -117 220 -124Q220
-145 233 -158T265 -171Q308 -171 308 -121Q308 -84 253 -76L235 -56L265 -7Q143 -2 85 81T26 334Q26 508 89 592T285 676Q342 676 387 659T458 612T484 544Q484 511 467 488T426 465Q406 465 390 476T368 504Q387 530 387 554Q387 585 359 603T285 622Q204 622
165 552T126 334Q126 189 164 121T285 53Q337 53 386 77T461 135L496 97Q466 61 416 29Z" />
<glyph unicode="&#xc8;" glyph-name="Egrave" horiz-adv-x="540" d="M62 40T89 47T128 64V604Q90 624 30 631L35 667H481L489 515Q476 510 461 510Q456 510 446 512Q433 578 404 614H216V364L329 369Q350 370 363 388T385 436H417V238H385Q373 281 362 296T326
312L216 318V58H429Q459 100 472 171Q484 173 491 173Q496 173 512 171L503 0H30L36 37Q62 40 89 47ZM183 790T177 798T171 818Q171 832 182 842T207 853Q226 853 239 836L322 720L298 696L196 779Q183 790 177 798Z" />
<glyph unicode="&#xc9;" glyph-name="Eacute" horiz-adv-x="540" d="M62 40T89 47T128 64V604Q90 624 30 631L35 667H481L489 515Q476 510 461 510Q456 510 446 512Q433 578 404 614H216V364L329 369Q350 370 363 388T385 436H417V238H385Q373 281 362 296T326
312L216 318V58H429Q459 100 472 171Q484 173 491 173Q496 173 512 171L503 0H30L36 37Q62 40 89 47ZM304 835Q317 852 336 852Q350 852 361 842T372 817Q372 806 366 797T347 778L243 695L221 719L304 835Z" />
<glyph unicode="&#xca;" glyph-name="Ecircumflex" horiz-adv-x="540" d="M62 40T89 47T128 64V604Q90 624 30 631L35 667H481L489 515Q476 510 461 510Q456 510 446 512Q433 578 404 614H216V364L329 369Q350 370 363 388T385 436H417V238H385Q373 281 362 296T326
312L216 318V58H429Q459 100 472 171Q484 173 491 173Q496 173 512 171L503 0H30L36 37Q62 40 89 47ZM241 828Q255 844 272 844Q290 844 303 828L395 721L372 697L271 774L170 697L148 721L241 828Z" />
<glyph unicode="&#xcb;" glyph-name="Edieresis" horiz-adv-x="540" d="M62 40T89 47T128 64V604Q90 624 30 631L35 667H481L489 515Q476 510 461 510Q456 510 446 512Q433 578 404 614H216V364L329 369Q350 370 363 388T385 436H417V238H385Q373 281 362 296T326
312L216 318V58H429Q459 100 472 171Q484 173 491 173Q496 173 512 171L503 0H30L36 37Q62 40 89 47ZM141 723T141 776Q141 828 188 828Q211 828 223 815T235 776Q235 750 223 737T188 723Q141 723 141 776ZM308 723T308 776Q308 828 354 828Q378 828 390 815T402
776Q402 723 354 723Q308 723 308 776Z" />
<glyph unicode="&#xcc;" glyph-name="Igrave" horiz-adv-x="343" d="M94 44T128 64V604Q89 624 30 631L35 667H312L307 631Q253 624 216 604V64Q249 45 313 37L308 0H30L36 37Q94 44 128 64ZM84 790T78 798T72 818Q72 832 83 842T108 853Q127 853 140 836L223
720L199 696L97 779Q84 790 78 798Z" />
<glyph unicode="&#xcd;" glyph-name="Iacute" horiz-adv-x="343" d="M94 44T128 64V604Q89 624 30 631L35 667H312L307 631Q253 624 216 604V64Q249 45 313 37L308 0H30L36 37Q94 44 128 64ZM205 835Q218 852 237 852Q251 852 262 842T273 817Q273 806 267 797T248
778L144 695L122 719L205 835Z" />
<glyph unicode="&#xce;" glyph-name="Icircumflex" horiz-adv-x="343" d="M94 44T128 64V604Q89 624 30 631L35 667H312L307 631Q253 624 216 604V64Q249 45 313 37L308 0H30L36 37Q94 44 128 64ZM142 828Q156 844 173 844Q191 844 204 828L296 721L273 697L172
774L71 697L49 721L142 828Z" />
<glyph unicode="&#xcf;" glyph-name="Idieresis" horiz-adv-x="343" d="M94 44T128 64V604Q89 624 30 631L35 667H312L307 631Q253 624 216 604V64Q249 45 313 37L308 0H30L36 37Q94 44 128 64ZM42 723T42 776Q42 828 89 828Q112 828 124 815T136 776Q136 750
124 737T89 723Q42 723 42 776ZM209 723T209 776Q209 828 255 828Q279 828 291 815T303 776Q303 723 255 723Q209 723 209 776Z" />
<glyph unicode="&#xd0;" glyph-name="Eth" horiz-adv-x="662" d="M425 667T512 587T599 333Q599 158 512 79T244 0H31L36 37Q66 41 87 46T127 63V304H60V348H127V604Q92 623 30 631L35 667H250Q425 667 512 587ZM381 49T440 113T499 334Q499 489 441 553T264 617H216V348H338V304H216V53Q233
49 261 49Q381 49 440 113Z" />
<glyph unicode="&#xd1;" glyph-name="Ntilde" horiz-adv-x="693" d="M94 44T128 64V604Q89 624 30 631L35 667H194L509 191V604Q474 623 413 631L418 667H671L666 631Q611 625 574 604V0H531L191 515V64Q224 45 288 37L284 0H30L36 37Q94 44 128 64ZM207 735T191
750Q202 778 228 803T291 828Q306 828 319 824T352 810Q384 793 405 793Q424 793 438 802T471 830Q488 824 504 811Q492 783 466 757T406 731Q389 731 376 735T342 750Q322 759 312 762T288 766Q270 766 255 757T223 731Q207 735 191 750Z" />
<glyph unicode="&#xd2;" glyph-name="Ograve" horiz-adv-x="599" d="M153 -7T90 81T26 334Q26 500 89 588T300 676Q446 676 509 588T573 333Q573 168 510 81T300 -7Q153 -7 90 81ZM371 42T408 80T459 182T472 333Q472 422 459 485T409 587T300 626Q229 626 191
587T140 486T127 334Q127 197 162 120T300 42Q371 42 408 80ZM211 790T205 798T199 818Q199 832 210 842T235 853Q254 853 267 836L350 720L326 696L224 779Q211 790 205 798Z" />
<glyph unicode="&#xd3;" glyph-name="Oacute" horiz-adv-x="599" d="M153 -7T90 81T26 334Q26 500 89 588T300 676Q446 676 509 588T573 333Q573 168 510 81T300 -7Q153 -7 90 81ZM371 42T408 80T459 182T472 333Q472 422 459 485T409 587T300 626Q229 626 191
587T140 486T127 334Q127 197 162 120T300 42Q371 42 408 80ZM332 835Q345 852 364 852Q378 852 389 842T400 817Q400 806 394 797T375 778L271 695L249 719L332 835Z" />
<glyph unicode="&#xd4;" glyph-name="Ocircumflex" horiz-adv-x="599" d="M153 -7T90 81T26 334Q26 500 89 588T300 676Q446 676 509 588T573 333Q573 168 510 81T300 -7Q153 -7 90 81ZM371 42T408 80T459 182T472 333Q472 422 459 485T409 587T300 626Q229 626
191 587T140 486T127 334Q127 197 162 120T300 42Q371 42 408 80ZM269 828Q283 844 300 844Q318 844 331 828L423 721L400 697L299 774L198 697L176 721L269 828Z" />
<glyph unicode="&#xd5;" glyph-name="Otilde" horiz-adv-x="599" d="M153 -7T90 81T26 334Q26 500 89 588T300 676Q446 676 509 588T573 333Q573 168 510 81T300 -7Q153 -7 90 81ZM371 42T408 80T459 182T472 333Q472 422 459 485T409 587T300 626Q229 626 191
587T140 486T127 334Q127 197 162 120T300 42Q371 42 408 80ZM159 735T143 750Q154 778 180 803T243 828Q258 828 271 824T304 810Q336 793 357 793Q376 793 390 802T423 830Q440 824 456 811Q444 783 418 757T358 731Q341 731 328 735T294 750Q274 759 264 762T240
766Q222 766 207 757T175 731Q159 735 143 750Z" />
<glyph unicode="&#xd6;" glyph-name="Odieresis" horiz-adv-x="599" d="M153 -7T90 81T26 334Q26 500 89 588T300 676Q446 676 509 588T573 333Q573 168 510 81T300 -7Q153 -7 90 81ZM371 42T408 80T459 182T472 333Q472 422 459 485T409 587T300 626Q229 626
191 587T140 486T127 334Q127 197 162 120T300 42Q371 42 408 80ZM169 723T169 776Q169 828 216 828Q239 828 251 815T263 776Q263 750 251 737T216 723Q169 723 169 776ZM336 723T336 776Q336 828 382 828Q406 828 418 815T430 776Q430 723 382 723Q336 723 336
776Z" />
<glyph unicode="&#xd7;" glyph-name="multiply" horiz-adv-x="554" d="M81 134L235 286L84 436L125 478L276 328L428 478L469 436L319 286L473 134L432 92L276 244L122 92L81 134Z" />
<glyph unicode="&#xd8;" glyph-name="Oslash" horiz-adv-x="653" d="M68 -20T57 -4L120 82Q58 165 58 334Q58 500 121 588T332 676Q444 676 511 620L560 686Q580 676 591 660L540 590Q605 505 605 333Q605 168 542 81T332 -7Q213 -7 148 52L88 -30Q68 -20 57 -4ZM423
626T332 626Q261 626 223 587T172 486T159 334Q159 221 177 161L464 556Q423 626 332 626ZM403 42T440 80T491 182T504 333Q504 450 483 512L195 117Q237 42 332 42Q403 42 440 80Z" />
<glyph unicode="&#xd9;" glyph-name="Ugrave" horiz-adv-x="687" d="M224 -7T167 45T109 210V604Q70 624 12 631L16 667H296L290 631Q233 621 200 604V210Q200 122 236 84T352 45Q430 45 472 89T514 216V604Q477 624 417 631L422 667H675L670 631Q611 621 578
604V216Q578 109 520 51T352 -7Q224 -7 167 45ZM257 790T251 798T245 818Q245 832 256 842T281 853Q300 853 313 836L396 720L372 696L270 779Q257 790 251 798Z" />
<glyph unicode="&#xda;" glyph-name="Uacute" horiz-adv-x="687" d="M224 -7T167 45T109 210V604Q70 624 12 631L16 667H296L290 631Q233 621 200 604V210Q200 122 236 84T352 45Q430 45 472 89T514 216V604Q477 624 417 631L422 667H675L670 631Q611 621 578
604V216Q578 109 520 51T352 -7Q224 -7 167 45ZM378 835Q391 852 410 852Q424 852 435 842T446 817Q446 806 440 797T421 778L317 695L295 719L378 835Z" />
<glyph unicode="&#xdb;" glyph-name="Ucircumflex" horiz-adv-x="687" d="M224 -7T167 45T109 210V604Q70 624 12 631L16 667H296L290 631Q233 621 200 604V210Q200 122 236 84T352 45Q430 45 472 89T514 216V604Q477 624 417 631L422 667H675L670 631Q611 621
578 604V216Q578 109 520 51T352 -7Q224 -7 167 45ZM315 828Q329 844 346 844Q364 844 377 828L469 721L446 697L345 774L244 697L222 721L315 828Z" />
<glyph unicode="&#xdc;" glyph-name="Udieresis" horiz-adv-x="687" d="M224 -7T167 45T109 210V604Q70 624 12 631L16 667H296L290 631Q233 621 200 604V210Q200 122 236 84T352 45Q430 45 472 89T514 216V604Q477 624 417 631L422 667H675L670 631Q611 621 578
604V216Q578 109 520 51T352 -7Q224 -7 167 45ZM215 723T215 776Q215 828 262 828Q285 828 297 815T309 776Q309 750 297 737T262 723Q215 723 215 776ZM382 723T382 776Q382 828 428 828Q452 828 464 815T476 776Q476 723 428 723Q382 723 382 776Z" />
<glyph unicode="&#xdd;" glyph-name="Yacute" horiz-adv-x="557" d="M171 41T193 46T236 64V265L66 605Q42 623 4 631L9 667H256L251 631Q199 624 164 604L289 343L417 605Q379 625 328 631L333 667H553L547 631Q511 624 486 605L324 277V64Q358 45 426 37L422
0H134L139 37Q171 41 193 46ZM321 835Q334 852 353 852Q367 852 378 842T389 817Q389 806 383 797T364 778L260 695L238 719L321 835Z" />
<glyph unicode="&#xde;" glyph-name="Thorn" horiz-adv-x="574" d="M235 155V64Q268 45 332 37L327 0H49L55 37Q113 44 147 64V604Q108 624 49 631L54 667H331L326 631Q272 624 235 604V524H311Q530 524 530 341Q530 238 463 197T268 155H235ZM235 200H268Q350
200 395 235T440 343Q440 412 407 447T311 482Q269 482 235 476V200Z" />
<glyph unicode="&#xdf;" glyph-name="germandbls" horiz-adv-x="605" d="M248 -5T248 76Q248 102 263 118T303 134Q322 134 341 124Q332 103 332 87Q332 64 345 51T384 38Q421 38 442 74T464 171Q464 244 420 284T278 338V391Q309 396 338 419T385 474T403 538Q403
589 379 618T306 647Q262 647 241 624T213 563T206 470V0H51L55 36Q79 40 93 45T121 62V515Q121 599 169 642T305 686Q389 686 440 649T491 535Q491 487 453 443T353 371Q445 351 498 298T552 172Q552 122 530 82T469 18T382 -5Q248 -5 248 76Z" />
<glyph unicode="&#xe0;" glyph-name="agrave" horiz-adv-x="470" d="M94 -7T60 23T26 107Q26 172 74 209T213 253L295 259V340Q295 390 274 413T206 436Q166 436 145 424T123 391Q123 365 153 354Q153 331 139 319T96 306Q70 306 54 322T38 364Q38 415 83 445T206
476Q288 476 334 440T380 340V61Q389 54 409 46T450 34L446 0H308L298 45Q267 16 233 5T156 -7Q94 -7 60 23ZM209 34T236 47T295 92V218L215 211Q168 207 141 182T114 116Q114 34 181 34Q209 34 236 47ZM121 640T115 648T109 668Q109 682 120 692T145 703Q164 703
177 686L260 570L236 546L134 629Q121 640 115 648Z" />
<glyph unicode="&#xe1;" glyph-name="aacute" horiz-adv-x="470" d="M94 -7T60 23T26 107Q26 172 74 209T213 253L295 259V340Q295 390 274 413T206 436Q166 436 145 424T123 391Q123 365 153 354Q153 331 139 319T96 306Q70 306 54 322T38 364Q38 415 83 445T206
476Q288 476 334 440T380 340V61Q389 54 409 46T450 34L446 0H308L298 45Q267 16 233 5T156 -7Q94 -7 60 23ZM209 34T236 47T295 92V218L215 211Q168 207 141 182T114 116Q114 34 181 34Q209 34 236 47ZM242 686Q255 703 274 703Q288 703 299 693T310 668Q310 657
304 648T285 629L181 546L159 570L242 686Z" />
<glyph unicode="&#xe2;" glyph-name="acircumflex" horiz-adv-x="470" d="M94 -7T60 23T26 107Q26 172 74 209T213 253L295 259V340Q295 390 274 413T206 436Q166 436 145 424T123 391Q123 365 153 354Q153 331 139 319T96 306Q70 306 54 322T38 364Q38 415 83
445T206 476Q288 476 334 440T380 340V61Q389 54 409 46T450 34L446 0H308L298 45Q267 16 233 5T156 -7Q94 -7 60 23ZM209 34T236 47T295 92V218L215 211Q168 207 141 182T114 116Q114 34 181 34Q209 34 236 47ZM179 678Q193 694 210 694Q228 694 241 678L333 571L310
547L209 624L108 547L86 571L179 678Z" />
<glyph unicode="&#xe3;" glyph-name="atilde" horiz-adv-x="470" d="M94 -7T60 23T26 107Q26 172 74 209T213 253L295 259V340Q295 390 274 413T206 436Q166 436 145 424T123 391Q123 365 153 354Q153 331 139 319T96 306Q70 306 54 322T38 364Q38 415 83 445T206
476Q288 476 334 440T380 340V61Q389 54 409 46T450 34L446 0H308L298 45Q267 16 233 5T156 -7Q94 -7 60 23ZM209 34T236 47T295 92V218L215 211Q168 207 141 182T114 116Q114 34 181 34Q209 34 236 47ZM69 559T53 574Q64 602 90 627T153 652Q168 652 181 648T214
634Q246 617 267 617Q286 617 300 626T333 654Q350 648 366 635Q354 607 328 581T268 555Q251 555 238 559T204 574Q184 583 174 586T150 590Q132 590 117 581T85 555Q69 559 53 574Z" />
<glyph unicode="&#xe4;" glyph-name="adieresis" horiz-adv-x="470" d="M94 -7T60 23T26 107Q26 172 74 209T213 253L295 259V340Q295 390 274 413T206 436Q166 436 145 424T123 391Q123 365 153 354Q153 331 139 319T96 306Q70 306 54 322T38 364Q38 415 83 445T206
476Q288 476 334 440T380 340V61Q389 54 409 46T450 34L446 0H308L298 45Q267 16 233 5T156 -7Q94 -7 60 23ZM209 34T236 47T295 92V218L215 211Q168 207 141 182T114 116Q114 34 181 34Q209 34 236 47ZM79 558T79 611Q79 663 126 663Q149 663 161 650T173 611Q173
585 161 572T126 558Q79 558 79 611ZM246 558T246 611Q246 663 292 663Q316 663 328 650T340 611Q340 558 292 558Q246 558 246 611Z" />
<glyph unicode="&#xe5;" glyph-name="aring" horiz-adv-x="470" d="M94 -7T60 23T26 107Q26 172 74 209T213 253L295 259V340Q295 390 274 413T206 436Q166 436 145 424T123 391Q123 365 153 354Q153 331 139 319T96 306Q70 306 54 322T38 364Q38 415 83 445T206
476Q288 476 334 440T380 340V61Q389 54 409 46T450 34L446 0H308L298 45Q267 16 233 5T156 -7Q94 -7 60 23ZM209 34T236 47T295 92V218L215 211Q168 207 141 182T114 116Q114 34 181 34Q209 34 236 47ZM171 540T148 563T124 622Q124 659 147 682T209 705Q247 705
271 682T295 622Q295 586 271 563T209 540Q171 540 148 563ZM227 579T240 592T254 622Q254 640 241 653T209 667Q191 667 179 654T166 622Q166 604 178 592T209 579Q227 579 240 592Z" />
<glyph unicode="&#xe6;" glyph-name="ae" horiz-adv-x="708" d="M94 -7T60 23T26 107Q26 172 74 209T213 253L294 259V340Q294 390 273 413T206 436Q166 436 144 424T122 391Q122 365 153 354Q153 331 139 319T96 306Q70 306 54 322T38 364Q38 415 83 445T206
476Q258 476 295 462T354 419Q408 476 504 476Q603 476 643 424T686 270L665 243H387V238Q387 173 395 132T430 67T510 42Q547 42 580 55T638 89L663 59Q635 31 594 12T506 -7Q383 -7 334 68Q296 32 255 13T156 -7Q94 -7 60 23ZM462 281T596 287Q596 365 576 400T500
436Q443 436 416 394T387 280Q462 281 596 287ZM209 34T235 47T294 92V218L215 211Q168 207 141 182T114 116Q114 34 181 34Q209 34 235 47Z" />
<glyph unicode="&#xe7;" glyph-name="ccedilla" horiz-adv-x="421" d="M281 42T314 55T371 89L397 59Q370 33 331 14T246 -7L232 -46Q269 -53 288 -71T308 -125Q308 -158 281 -181T213 -204Q168 -204 145 -184T122 -138Q122 -122 131 -111T155 -99Q164 -99 173
-103Q169 -117 169 -124Q169 -145 182 -158T214 -171Q257 -171 257 -121Q257 -84 202 -76L184 -56L215 -6Q115 1 72 61T28 238Q30 356 84 416T243 476Q312 476 354 447T397 370Q397 347 382 329T344 311Q325 311 311 321T292 347Q305 368 305 383Q305 409 288 424T243
440Q172 440 147 386T121 238Q121 173 129 132T164 67T244 42Q281 42 314 55Z" />
<glyph unicode="&#xe8;" glyph-name="egrave" horiz-adv-x="441" d="M125 -7T77 54T28 238Q28 349 81 412T237 476Q336 476 376 424T419 270L398 243H120V238Q120 173 128 132T163 67T243 42Q283 42 316 57T371 89L396 59Q371 36 331 15T237 -7Q125 -7 77 54ZM329
366T309 401T233 436Q176 436 149 395T120 280L329 287Q329 366 309 401ZM135 640T129 648T123 668Q123 682 134 692T159 703Q178 703 191 686L274 570L250 546L148 629Q135 640 129 648Z" />
<glyph unicode="&#xe9;" glyph-name="eacute" horiz-adv-x="441" d="M125 -7T77 54T28 238Q28 349 81 412T237 476Q336 476 376 424T419 270L398 243H120V238Q120 173 128 132T163 67T243 42Q283 42 316 57T371 89L396 59Q371 36 331 15T237 -7Q125 -7 77 54ZM329
366T309 401T233 436Q176 436 149 395T120 280L329 287Q329 366 309 401ZM256 686Q269 703 288 703Q302 703 313 693T324 668Q324 657 318 648T299 629L195 546L173 570L256 686Z" />
<glyph unicode="&#xea;" glyph-name="ecircumflex" horiz-adv-x="441" d="M125 -7T77 54T28 238Q28 349 81 412T237 476Q336 476 376 424T419 270L398 243H120V238Q120 173 128 132T163 67T243 42Q283 42 316 57T371 89L396 59Q371 36 331 15T237 -7Q125 -7 77
54ZM329 366T309 401T233 436Q176 436 149 395T120 280L329 287Q329 366 309 401ZM193 678Q207 694 224 694Q242 694 255 678L347 571L324 547L223 624L122 547L100 571L193 678Z" />
<glyph unicode="&#xeb;" glyph-name="edieresis" horiz-adv-x="441" d="M125 -7T77 54T28 238Q28 349 81 412T237 476Q336 476 376 424T419 270L398 243H120V238Q120 173 128 132T163 67T243 42Q283 42 316 57T371 89L396 59Q371 36 331 15T237 -7Q125 -7 77 54ZM329
366T309 401T233 436Q176 436 149 395T120 280L329 287Q329 366 309 401ZM93 558T93 611Q93 663 140 663Q163 663 175 650T187 611Q187 585 175 572T140 558Q93 558 93 611ZM260 558T260 611Q260 663 306 663Q330 663 342 650T354 611Q354 558 306 558Q260 558
260 611Z" />
<glyph unicode="&#xec;" glyph-name="igrave" horiz-adv-x="277" d="M57 40T71 45T100 61V349Q100 386 85 399T30 415L33 444Q73 451 115 464T165 479L185 468V61Q210 43 255 34L251 0H30L34 36Q57 40 71 45ZM43 640T37 648T31 668Q31 682 42 692T67 703Q86 703
99 686L182 570L158 546L56 629Q43 640 37 648Z" />
<glyph unicode="&#xed;" glyph-name="iacute" horiz-adv-x="277" d="M57 40T71 45T100 61V349Q100 386 85 399T30 415L33 444Q73 451 115 464T165 479L185 468V61Q210 43 255 34L251 0H30L34 36Q57 40 71 45ZM164 686Q177 703 196 703Q210 703 221 693T232 668Q232
657 226 648T207 629L103 546L81 570L164 686Z" />
<glyph unicode="&#xee;" glyph-name="icircumflex" horiz-adv-x="277" d="M57 40T71 45T100 61V349Q100 386 85 399T30 415L33 444Q73 451 115 464T165 479L185 468V61Q210 43 255 34L251 0H30L34 36Q57 40 71 45ZM101 678Q115 694 132 694Q150 694 163 678L255
571L232 547L131 624L30 547L8 571L101 678Z" />
<glyph unicode="&#xef;" glyph-name="idieresis" horiz-adv-x="277" d="M7 559T7 612Q7 664 54 664Q77 664 89 651T101 612Q101 586 89 573T54 559Q7 559 7 612ZM142 559T142 612Q142 664 188 664Q212 664 224 651T236 612Q236 559 188 559Q142 559 142 612ZM57
40T71 45T100 61V349Q100 386 85 399T30 415L33 444Q73 451 115 464T165 479L185 468V61Q210 43 255 34L251 0H30L34 36Q57 40 71 45Z" />
<glyph unicode="&#xf0;" glyph-name="eth" horiz-adv-x="530" d="M160 -7T108 53T56 225Q56 347 112 411T276 476Q319 476 355 461Q331 528 278 573L131 517L114 557L233 605Q205 624 138 651L155 694Q252 659 296 630L410 676L430 631L344 599Q409 547 439 470T469
277V235Q469 117 417 55T262 -7Q160 -7 108 53ZM325 39T353 85T381 235V263Q380 356 370 408Q350 421 330 427T273 434Q212 434 178 379T144 225Q144 130 172 85T262 39Q325 39 353 85Z" />
<glyph unicode="&#xf1;" glyph-name="ntilde" horiz-adv-x="558" d="M57 40T71 45T100 62V347Q100 384 85 397T30 413L33 442Q64 448 122 466L155 476L173 467L182 405Q205 438 240 457T314 476Q387 476 427 440T468 338V62Q477 54 497 46T538 34L534 0H314L317
34Q355 40 383 62V329Q383 428 297 428Q263 428 232 405T185 344V62Q209 43 255 34L251 0H30L34 36Q57 40 71 45ZM144 559T128 574Q139 602 165 627T228 652Q243 652 256 648T289 634Q321 617 342 617Q361 617 375 626T408 654Q425 648 441 635Q429 607 403 581T343
555Q326 555 313 559T279 574Q259 583 249 586T225 590Q207 590 192 581T160 555Q144 559 128 574Z" />
<glyph unicode="&#xf2;" glyph-name="ograve" horiz-adv-x="480" d="M135 -7T82 55T28 235Q28 353 81 414T240 476Q345 476 398 415T452 235Q452 117 399 55T240 -7Q135 -7 82 55ZM305 39T334 85T364 235Q364 339 335 384T240 430Q175 430 147 385T118 235Q118
131 146 85T240 39Q305 39 334 85ZM152 640T146 648T140 668Q140 682 151 692T176 703Q195 703 208 686L291 570L267 546L165 629Q152 640 146 648Z" />
<glyph unicode="&#xf3;" glyph-name="oacute" horiz-adv-x="480" d="M135 -7T82 55T28 235Q28 353 81 414T240 476Q345 476 398 415T452 235Q452 117 399 55T240 -7Q135 -7 82 55ZM305 39T334 85T364 235Q364 339 335 384T240 430Q175 430 147 385T118 235Q118
131 146 85T240 39Q305 39 334 85ZM273 686Q286 703 305 703Q319 703 330 693T341 668Q341 657 335 648T316 629L212 546L190 570L273 686Z" />
<glyph unicode="&#xf4;" glyph-name="ocircumflex" horiz-adv-x="480" d="M135 -7T82 55T28 235Q28 353 81 414T240 476Q345 476 398 415T452 235Q452 117 399 55T240 -7Q135 -7 82 55ZM305 39T334 85T364 235Q364 339 335 384T240 430Q175 430 147 385T118 235Q118
131 146 85T240 39Q305 39 334 85ZM210 678Q224 694 241 694Q259 694 272 678L364 571L341 547L240 624L139 547L117 571L210 678Z" />
<glyph unicode="&#xf5;" glyph-name="otilde" horiz-adv-x="480" d="M135 -7T82 55T28 235Q28 353 81 414T240 476Q345 476 398 415T452 235Q452 117 399 55T240 -7Q135 -7 82 55ZM305 39T334 85T364 235Q364 339 335 384T240 430Q175 430 147 385T118 235Q118
131 146 85T240 39Q305 39 334 85ZM100 559T84 574Q95 602 121 627T184 652Q199 652 212 648T245 634Q277 617 298 617Q317 617 331 626T364 654Q381 648 397 635Q385 607 359 581T299 555Q282 555 269 559T235 574Q215 583 205 586T181 590Q163 590 148 581T116
555Q100 559 84 574Z" />
<glyph unicode="&#xf6;" glyph-name="odieresis" horiz-adv-x="480" d="M135 -7T82 55T28 235Q28 353 81 414T240 476Q345 476 398 415T452 235Q452 117 399 55T240 -7Q135 -7 82 55ZM305 39T334 85T364 235Q364 339 335 384T240 430Q175 430 147 385T118 235Q118
131 146 85T240 39Q305 39 334 85ZM110 558T110 611Q110 663 157 663Q180 663 192 650T204 611Q204 585 192 572T157 558Q110 558 110 611ZM277 558T277 611Q277 663 323 663Q347 663 359 650T371 611Q371 558 323 558Q277 558 277 611Z" />
<glyph unicode="&#xf7;" glyph-name="divide" horiz-adv-x="554" d="M251 388T240 402T228 441Q228 493 274 493Q323 493 323 441Q323 416 311 402T274 388Q251 388 240 402ZM62 312H491V259H62V312ZM251 78T240 92T228 131Q228 183 274 183Q323 183 323 131Q323
106 311 92T274 78Q251 78 240 92Z" />
<glyph unicode="&#xf8;" glyph-name="oslash" horiz-adv-x="490" d="M42 -11T28 3L81 68Q38 127 38 235Q38 353 91 414T250 476Q334 476 386 436L426 484H434Q446 476 455 464L411 411Q462 351 462 235Q462 117 409 55T250 -7Q157 -7 104 41L56 -17H50Q42 -11
28 3ZM315 430T250 430Q185 430 157 385T128 235Q128 176 137 135L344 385Q315 430 250 430ZM315 39T344 85T374 235Q374 308 360 350L150 96Q164 67 188 53T250 39Q315 39 344 85Z" />
<glyph unicode="&#xf9;" glyph-name="ugrave" horiz-adv-x="546" d="M88 -7T88 154V349Q88 386 73 399T19 415L21 444Q67 452 134 473L154 479L174 469V143Q174 94 194 66T260 38Q286 38 315 57T366 117V349Q366 386 351 399T296 415L299 444Q345 452 412 473L432
479L451 469V62Q460 54 480 47T520 35L517 0H384L374 63Q348 28 316 11T249 -7Q88 -7 88 154ZM180 640T174 648T168 668Q168 682 179 692T204 703Q223 703 236 686L319 570L295 546L193 629Q180 640 174 648Z" />
<glyph unicode="&#xfa;" glyph-name="uacute" horiz-adv-x="546" d="M88 -7T88 154V349Q88 386 73 399T19 415L21 444Q67 452 134 473L154 479L174 469V143Q174 94 194 66T260 38Q286 38 315 57T366 117V349Q366 386 351 399T296 415L299 444Q345 452 412 473L432
479L451 469V62Q460 54 480 47T520 35L517 0H384L374 63Q348 28 316 11T249 -7Q88 -7 88 154ZM301 686Q314 703 333 703Q347 703 358 693T369 668Q369 657 363 648T344 629L240 546L218 570L301 686Z" />
<glyph unicode="&#xfb;" glyph-name="ucircumflex" horiz-adv-x="546" d="M88 -7T88 154V349Q88 386 73 399T19 415L21 444Q67 452 134 473L154 479L174 469V143Q174 94 194 66T260 38Q286 38 315 57T366 117V349Q366 386 351 399T296 415L299 444Q345 452 412
473L432 479L451 469V62Q460 54 480 47T520 35L517 0H384L374 63Q348 28 316 11T249 -7Q88 -7 88 154ZM238 678Q252 694 269 694Q287 694 300 678L392 571L369 547L268 624L167 547L145 571L238 678Z" />
<glyph unicode="&#xfc;" glyph-name="udieresis" horiz-adv-x="546" d="M88 -7T88 154V349Q88 386 73 399T19 415L21 444Q67 452 134 473L154 479L174 469V143Q174 94 194 66T260 38Q286 38 315 57T366 117V349Q366 386 351 399T296 415L299 444Q345 452 412 473L432
479L451 469V62Q460 54 480 47T520 35L517 0H384L374 63Q348 28 316 11T249 -7Q88 -7 88 154ZM138 558T138 611Q138 663 185 663Q208 663 220 650T232 611Q232 585 220 572T185 558Q138 558 138 611ZM305 558T305 611Q305 663 351 663Q375 663 387 650T399 611Q399
558 351 558Q305 558 305 611Z" />
<glyph unicode="&#xfd;" glyph-name="yacute" horiz-adv-x="482" d="M67 -218T41 -197T15 -141Q15 -114 29 -99T64 -84Q82 -84 99 -95Q87 -112 87 -130Q87 -145 96 -154T120 -164Q142 -164 158 -143T190 -73L211 -8L48 392Q41 409 25 419T-24 436L-22 467H196L193
437Q174 435 160 431T134 415L250 110L349 415Q327 432 290 437L292 467H487L485 437Q445 431 431 424T411 404L242 -84Q217 -157 186 -187T106 -218Q67 -218 41 -197ZM276 686Q289 703 308 703Q322 703 333 693T344 668Q344 657 338 648T319 629L215 546L193 570L276
686Z" />
<glyph unicode="&#xfe;" glyph-name="thorn" horiz-adv-x="547" d="M50 -171T64 -166T93 -149V567Q93 604 78 617T24 633L26 662Q72 670 139 691L159 697L179 687V410Q221 476 307 476Q398 476 444 418T490 244Q490 122 432 58T264 -7Q217 -7 179 9V-149Q203 -168
248 -176L245 -210H24L27 -174Q50 -171 64 -166ZM331 35T366 90T402 244Q402 341 377 387T298 433Q240 433 210 386T179 245V54Q215 35 267 35Q331 35 366 90Z" />
<glyph unicode="&#xff;" glyph-name="ydieresis" horiz-adv-x="482" d="M67 -218T41 -197T15 -141Q15 -114 29 -99T64 -84Q82 -84 99 -95Q87 -112 87 -130Q87 -145 96 -154T120 -164Q142 -164 158 -143T190 -73L211 -8L48 392Q41 409 25 419T-24 436L-22 467H196L193
437Q174 435 160 431T134 415L250 110L349 415Q327 432 290 437L292 467H487L485 437Q445 431 431 424T411 404L242 -84Q217 -157 186 -187T106 -218Q67 -218 41 -197ZM113 558T113 611Q113 663 160 663Q183 663 195 650T207 611Q207 585 195 572T160 558Q113 558
113 611ZM280 558T280 611Q280 663 326 663Q350 663 362 650T374 611Q374 558 326 558Q280 558 280 611Z" />
<glyph unicode="&#x2013;" glyph-name="endash" horiz-adv-x="500" d="M38 284H462V230H38V284Z" />
<glyph unicode="&#x2014;" glyph-name="emdash" horiz-adv-x="1000" d="M44 284H956V230H44V284Z" />
<glyph unicode="&#x2018;" glyph-name="quoteleft" horiz-adv-x="221" d="M81 467T64 488T46 544Q46 623 126 674L150 649Q122 622 122 587Q122 571 128 562T144 553Q152 553 159 558Q170 545 170 521Q170 497 153 482T109 467Q81 467 64 488Z" />
<glyph unicode="&#x2019;" glyph-name="quoteright" horiz-adv-x="221" d="M100 520T100 554Q100 570 94 579T77 588Q70 588 62 583Q51 596 51 620Q51 644 68 659T112 674Q141 674 158 653T175 597Q175 518 95 467L71 492Q100 520 100 554Z" />
<glyph unicode="&#x201a;" glyph-name="quotesinglbase" horiz-adv-x="205" d="M59 -89T71 -65T83 -18Q83 -4 78 5T63 14Q59 14 51 11Q40 24 40 48Q40 70 57 84T101 99Q129 99 146 79T164 26Q164 -23 138 -64T63 -135L39 -106Q59 -89 71 -65Z" />
<glyph unicode="&#x201c;" glyph-name="quotedblleft" horiz-adv-x="375" d="M81 467T64 488T46 544Q46 623 126 674L150 649Q122 622 122 587Q122 571 128 562T144 553Q152 553 159 558Q170 545 170 521Q170 497 153 482T109 467Q81 467 64 488ZM245 467T228
488T210 544Q210 623 290 674L314 649Q286 622 286 587Q286 571 292 562T308 553Q316 553 323 558Q334 545 334 521Q334 497 317 482T273 467Q245 467 228 488Z" />
<glyph unicode="&#x201d;" glyph-name="quotedblright" horiz-adv-x="375" d="M91 520T91 554Q91 570 85 579T68 588Q61 588 53 583Q42 596 42 620Q42 644 59 659T103 674Q132 674 149 653T166 597Q166 518 86 467L62 492Q91 520 91 554ZM254 520T254 554Q254
570 248 579T231 588Q224 588 216 583Q205 596 205 620Q205 644 222 659T266 674Q295 674 312 653T329 597Q329 518 249 467L225 492Q254 520 254 554Z" />
<glyph unicode="&#x201e;" glyph-name="quotedblbase" horiz-adv-x="360" d="M44 -89T56 -65T68 -18Q68 -4 63 5T48 14Q43 14 36 11Q25 24 25 48Q25 70 42 84T86 99Q114 99 131 79T149 26Q149 -23 123 -64T48 -135L24 -106Q44 -89 56 -65ZM214 -89T226 -65T238
-18Q238 -4 233 5T218 14Q214 14 206 11Q195 24 195 48Q195 70 212 84T256 99Q284 99 301 79T319 26Q319 -23 293 -64T218 -135L194 -106Q214 -89 226 -65Z" />
<glyph unicode="&#x2022;" glyph-name="bullet" horiz-adv-x="443" d="M180 187T158 214T136 288Q136 334 158 361T222 388Q264 388 286 361T308 287Q308 240 286 214T222 187Q180 187 158 214Z" />
<glyph unicode="&#x2039;" glyph-name="guilsinglleft" horiz-adv-x="304" d="M60 241L220 439L259 415L159 241L259 68L220 43L60 241Z" />
<glyph unicode="&#x203a;" glyph-name="guilsinglright" horiz-adv-x="304" d="M45 68L144 241L45 415L84 439L244 241L84 43L45 68Z" />
</font>
</defs>
</svg>
