<?xml version="1.0" standalone="no"?>
<!DOCTYPE svg PUBLIC "-//W3C//DTD SVG 1.1//EN" "http://www.w3.org/Graphics/SVG/1.1/DTD/svg11.dtd">
<svg xmlns="http://www.w3.org/2000/svg">
<defs >
<font id="EBGaramond" horiz-adv-x="523" ><font-face
    font-family="EB Garamond"
    units-per-em="1000"
    panose-1="0 0 0 0 0 0 0 0 0 0"
    ascent="1007"
    descent="-298"
    alphabetic="0" />
<glyph unicode=" " horiz-adv-x="200" />
<glyph unicode="!" horiz-adv-x="287" d="M144 205Q137 205 136 213T138 244Q147 287 158 337T181 436T202 522T215 574Q222 596 232 613T255 639T281 649Q295 649 302 639T311 611T306 574Q302 559 288 522T253 437T212 337T174 244Q167 228 160 217T144 205ZM85
-14Q64 -14 50 2T36 38Q36 67 57 86T108 106Q129 106 143 90T157 54Q157 26 136 6T85 -14Z" />
<glyph unicode="&quot;" horiz-adv-x="330" d="M150 444Q146 444 147 452T151 467Q156 480 159 492T167 515Q175 539 181 563T195 619Q197 630 206 640T223 655Q237 664 248 670T270 676Q281 676 277 658T265 624Q254 598 242 576T219 535T196 499T176 469Q170
460 162 452T150 444ZM280 444Q276 444 277 452T281 467Q286 480 289 492T297 515Q305 539 311 563T325 619Q327 630 336 640T353 655Q367 664 378 670T400 676Q411 676 407 658T395 624Q384 598 372 576T349 535T326 499T306 469Q300 460 292 452T280 444Z" />
<glyph unicode="#" horiz-adv-x="449" d="M-20 -88Q-24 -88 -26 -84T-28 -76L-27 -73L61 104L1 101Q-4 101 -7 104T-9 113Q-8 118 -4 129T7 151T26 161L91 164L157 302L96 299Q91 299 88 302T85 311Q86 316 90 327T102 349T120 359L189 362L272 533Q277 544 290
547T314 550Q318 550 318 547T319 538Q319 537 318 536T317 533L235 364L344 370L429 544Q434 555 446 558T469 561Q473 561 475 558T475 549Q474 548 474 547T473 544L391 372L447 375Q452 375 455 372T457 364Q457 359 451 348T436 326T415 315L361 312L294 174L353
177Q358 177 361 174T363 165Q363 160 357 149T341 128T320 117L265 114L180 -62Q176 -72 165 -74T143 -77Q139 -77 137 -73T136 -65L137 -62L221 112L108 106L19 -73Q14 -83 2 -85T-20 -88ZM137 166L250 172L315 310L204 304L137 166Z" />
<glyph unicode="$" horiz-adv-x="483" d="M189 -15Q163 -15 136 -11T82 4Q69 9 60 12T47 16Q42 16 37 14T26 10Q19 6 14 3T5 0Q1 0 -7 6T-15 19Q-15 25 -6 46T15 99T33 171Q35 182 38 186T50 191Q58 191 60 182T62 152Q62 114 75 83T115 33T186 15Q231 15 265
33T319 83T339 153Q339 179 332 200T307 245T256 298Q210 339 181 380T151 482Q151 535 179 576T257 640T368 664Q385 664 403 661T440 652Q460 646 474 641T496 635Q508 635 516 640Q520 642 524 643T533 645Q541 645 543 639T546 629Q546 628 540 617T524 578T506
498Q504 483 499 475T490 466Q482 466 480 473T477 492Q477 562 444 598T356 635Q319 635 290 616T243 566T226 506Q226 480 235 457T266 409T323 352Q376 306 400 266T425 184Q425 129 398 84T319 12T189 -15ZM93 -95Q87 -95 84 -91T83 -80L416 712Q421 722 430
725T448 729Q453 729 455 724T455 712L121 -80Q118 -88 110 -91T93 -95Z" />
<glyph unicode="%" horiz-adv-x="644" d="M166 263Q127 263 106 289T81 359T92 449Q104 488 130 526T193 590T271 615Q309 615 328 590T351 525T340 439Q328 398 303 358T244 290T166 263ZM171 285Q202 285 223 309T259 368T284 437Q292 462 297 489T303 539T293
576T260 590Q231 590 210 568T173 513T148 449Q140 422 134 394T127 341T136 301T171 285ZM47 -29Q41 -29 37 -24T36 -14L642 654Q652 665 660 668T679 671Q690 671 693 665T691 654L85 -14Q77 -24 68 -26T47 -29ZM442 -17Q403 -17 382 9T357 79T368 169Q380 208
406 246T469 310T547 335Q585 335 604 310T627 245T616 159Q604 118 579 78T520 10T442 -17ZM447 5Q478 5 499 29T535 88T560 157Q568 182 573 209T579 259T569 296T536 310Q507 310 486 288T449 233T424 169Q416 142 410 114T403 61T412 21T447 5Z" />
<glyph unicode="&amp;" horiz-adv-x="822" d="M413 -15Q318 -15 245 18T131 111T90 249Q90 322 116 378T188 467T290 499Q340 498 369 476T399 416Q399 391 386 371T351 340T299 328Q254 328 220 354T167 426T147 534Q147 586 174 628T245 694T340 718Q384 717
410 696T436 636Q436 616 424 604T392 591Q381 591 371 601T360 621Q360 638 350 648T322 658Q289 658 261 641T216 594T199 525Q199 368 297 368Q324 368 340 382T356 419Q356 439 337 451T287 464Q222 464 184 415T146 289Q146 231 173 181T263 99T436 68Q531
68 594 104T688 198T719 322Q719 382 692 420T595 458Q561 458 543 439T524 391Q524 372 533 358T563 343Q574 343 579 348T588 361Q593 369 599 377T619 385Q642 385 652 373T662 343Q661 321 644 303T601 285Q549 285 518 314T486 391Q486 428 507 458T563 507T641
526L728 527Q799 528 834 553T869 630Q869 656 855 672T817 689Q809 689 804 684T798 671Q798 664 801 658T813 650Q821 648 824 641T828 627Q828 613 816 603T787 593Q763 593 748 608T733 647Q733 667 744 682T776 707T822 716Q862 716 886 687T910 607Q910 562
888 529T827 477T732 459Q724 459 721 456T722 446Q742 412 749 379T757 300Q757 208 713 137T592 25T413 -15Z" />
<glyph unicode="&apos;" horiz-adv-x="200" d="M150 444Q146 444 147 452T151 467Q156 480 159 492T167 515Q175 539 181 563T195 619Q197 630 206 640T223 655Q237 664 248 670T270 676Q281 676 277 658T265 624Q254 598 242 576T219 535T196 499T176 469Q170
460 162 452T150 444Z" />
<glyph unicode="(" horiz-adv-x="308" d="M122 -216Q95 -216 80 -177Q53 -106 42 -46T30 72Q30 192 72 303T191 514T369 693Q384 705 398 705Q408 705 408 699Q408 695 405 690T394 676Q336 615 284 546T190 403T125 249T101 89Q101 32 102 -14T109 -104T131 -194Q134
-203 132 -209T122 -216Z" />
<glyph unicode=")" horiz-adv-x="309" d="M215 708Q242 708 257 669Q284 598 295 538T307 420Q307 300 265 189T146 -22T-32 -201Q-47 -213 -61 -213Q-71 -213 -71 -207Q-71 -203 -68 -198T-57 -184Q1 -123 53 -54T147 89T212 243T236 403Q236 460 235 506T228
596T206 686Q203 695 205 701T215 708Z" />
<glyph unicode="*" horiz-adv-x="339" d="M211 378Q203 378 202 386T202 404Q203 409 206 423T214 454T222 481T225 493Q204 489 179 487T128 484Q122 484 116 486T109 494Q109 501 115 505T128 510Q133 512 146 515T176 524T204 532T216 535Q203 552 191 569T163
609Q158 616 158 624Q158 631 160 633T167 636Q172 636 178 632T186 625Q205 607 220 593T249 562Q256 582 265 602T285 647Q288 653 292 658T302 664Q310 664 311 658T312 645Q312 642 308 624T298 585T288 549Q302 551 323 553T363 557T385 558Q391 558 397 555T404
545Q404 538 398 535T385 530Q363 525 342 519T297 507Q311 491 322 475T349 437Q351 434 354 428T357 417Q357 410 355 408T347 405Q343 405 337 409T328 415Q311 435 295 449T264 480Q257 460 249 440T229 395Q226 389 222 384T211 378Z" />
<glyph unicode="+" horiz-adv-x="590" d="M282 -8Q278 -8 274 -4T270 6V217Q270 222 266 222H64Q59 222 55 226T50 234Q50 239 52 248T60 264T74 272H263Q268 272 269 274T270 280V451Q270 462 280 469T301 479T316 482Q321 482 325 478T330 469V278Q330 273 331
273T334 272H537Q542 272 547 268T550 258Q546 245 540 234T519 222H334Q330 222 330 218V16Q330 6 320 1T299 -6T282 -8Z" />
<glyph unicode="," horiz-adv-x="215" d="M-32 -129Q-39 -129 -44 -129T-50 -123Q-50 -118 -43 -115T-25 -106Q4 -90 24 -72T55 -34T66 6Q66 23 56 31T34 44Q23 50 14 57T4 80Q4 97 21 108T59 120Q86 120 105 103T125 50Q125 13 110 -20T70 -77T18 -115T-32 -129Z" />
<glyph unicode="-" horiz-adv-x="268" d="M38 170Q34 169 31 174T27 184Q27 201 39 215T59 230Q105 236 150 242T242 255Q247 256 248 254T250 247Q250 236 245 225T232 205T214 195Q170 189 126 183T38 170Z" />
<glyph unicode="." horiz-adv-x="215" d="M49 -14Q30 -14 17 1T4 36Q4 54 13 69T36 92T69 101Q89 101 101 86T114 51Q114 33 106 19T82 -5T49 -14Z" />
<glyph unicode="/" horiz-adv-x="276" d="M-46 -62Q-51 -62 -55 -57T-56 -47L346 648Q353 659 363 662T387 665Q392 665 394 659T394 648L-8 -47Q-14 -57 -24 -59T-46 -62Z" />
<glyph unicode="0" horiz-adv-x="480" d="M185 -14Q138 -14 112 14T77 88T73 191T96 302Q113 359 142 417T209 523T293 600T391 630Q438 630 464 602T500 528T504 426T481 316Q464 260 435 202T368 95T283 16T185 -14ZM191 12Q219 12 248 35T306 99T358 190T400
298Q417 353 426 407T434 505T420 576T378 603Q341 603 304 564T235 460T179 320Q163 266 153 212T141 112T151 40T191 12Z" />
<glyph unicode="1" horiz-adv-x="480" d="M44 -3Q40 -3 36 -1T32 6Q32 13 38 17T51 22Q101 32 139 48T190 103L306 477Q317 512 295 524T233 543Q228 544 223 547T218 556Q218 564 226 568T241 574Q269 577 299 587T359 610T409 633Q412 635 415 636T422 637Q426
637 429 635T430 628Q423 613 417 596T404 557L259 86Q252 62 262 51T295 35T346 22Q351 21 355 17T357 8Q356 4 351 1T341 -3Q315 -3 291 -2T243 1T197 2Q172 2 146 1T95 -1T44 -3Z" />
<glyph unicode="2" horiz-adv-x="480" d="M359 -3Q324 -1 306 0T277 2T258 3T232 3Q199 3 174 3T126 3T78 1T18 -2Q11 -2 7 8T13 28L226 205Q273 244 316 290T386 385T414 481Q414 525 392 545T326 565Q293 565 256 544T188 480Q184 475 179 471T168 466Q164 466
162 475T164 491Q171 501 189 523T234 570T296 612T371 630Q432 630 466 596T500 509Q500 466 481 427T432 353T370 290Q352 274 322 249T256 196T188 141T133 97T105 76Q98 72 103 69T114 64Q129 63 151 62T200 61Q226 61 253 62T306 64Q333 66 346 69T371 81T399
111Q404 117 412 125T430 134Q435 135 438 128T439 115Q423 90 416 80T405 65T398 52T383 21Q376 5 370 1T359 -3Z" />
<glyph unicode="3" horiz-adv-x="480" d="M83 -38Q46 -38 30 -28T13 -1Q13 16 19 28T40 41Q47 41 58 36T78 23Q90 15 105 8T139 0Q199 0 244 30T314 109T339 214Q339 252 323 278T269 304Q259 304 241 302T204 289Q200 288 196 289T191 297Q191 306 198 313T214
325T229 332Q254 340 282 355T336 392T377 442T393 501Q393 532 375 551T328 571Q287 571 259 555T201 498Q197 491 195 487T184 482Q181 482 173 492T165 511Q165 526 186 546T239 586T305 617T365 630Q396 630 422 619T465 586T481 535Q481 509 469 485T435 438T388
396T332 363Q329 362 328 360T331 356Q360 351 383 337T419 299T433 237Q433 196 412 154T355 75T271 10Q228 -15 178 -26T83 -38Z" />
<glyph unicode="4" horiz-adv-x="480" d="M124 -3Q121 -3 117 -1T112 5Q112 12 118 16T132 22Q186 27 207 39T235 76L263 169Q265 177 263 179T253 182Q215 182 182 181T111 178T25 175Q21 175 20 180T21 188Q38 204 45 210T57 221T71 235L434 614Q442 623 453
632T471 642H489Q492 642 491 640T487 634T482 628L113 240Q111 238 109 235T110 231H271Q275 231 279 233T284 239L341 424Q344 435 346 439T356 446Q373 454 389 456T412 459Q423 459 420 443T407 395L358 236Q356 230 361 230Q372 229 380 229T397 229Q411 229
424 229T453 231Q458 231 460 229T461 222Q457 214 451 206T440 191T430 185Q420 185 408 185T384 186Q376 186 369 186T355 184Q348 183 345 181T340 174L314 85Q304 53 315 40T366 22Q371 21 375 18T379 8Q379 4 373 1T358 -3Q332 -3 316 -2T284 1T247 2Q211
2 187 0T124 -3Z" />
<glyph unicode="5" horiz-adv-x="480" d="M80 -38Q50 -38 38 -23T25 9Q25 20 29 27T40 35Q54 35 64 26T96 9Q105 5 117 3T147 1Q173 1 207 11T272 43T324 102T345 193Q345 231 327 257T275 304T193 350Q171 361 165 369T158 387Q158 392 159 395T161 401Q166 416
176 436T200 477T226 519T249 556Q259 571 268 578T294 590Q317 596 341 601T392 610T445 619T503 627Q513 627 513 617Q513 612 507 600T490 575T468 552T448 541Q429 540 403 538T351 535T302 531T269 527Q263 526 250 511T224 477T206 448Q199 435 213 429Q272
404 320 378T396 316T425 226Q425 170 393 122T309 38T197 -18T80 -38Z" />
<glyph unicode="6" horiz-adv-x="480" d="M189 -14Q111 -14 78 20T46 107Q49 178 79 247T161 378T278 493T416 582T560 639Q566 640 568 639T571 634Q571 630 568 627T560 622Q500 600 439 560T323 468T224 358T155 243T130 134Q130 82 155 52T227 22Q263 22 294
47T345 111T361 187Q361 225 343 243T294 262Q278 262 261 257T225 240Q215 234 215 239T222 251Q239 270 261 286T308 312T351 322Q393 322 419 292T446 224Q446 172 421 129T357 53T273 4T189 -14Z" />
<glyph unicode="7" horiz-adv-x="480" d="M47 -32Q37 -32 34 -25T34 -6Q35 -3 45 10T66 35L496 541Q498 544 499 547T490 551H263Q238 551 216 542T179 511Q175 506 166 499T149 492Q142 492 142 502T148 522Q162 546 172 568T189 610Q192 617 196 619T202 621Q208
621 225 620T259 617Q273 617 290 617T328 616T370 616Q416 616 460 616T536 618T578 621Q583 621 586 616T587 607Q577 594 561 574T531 538L73 -5Q66 -13 58 -22T47 -32Z" />
<glyph unicode="8" horiz-adv-x="480" d="M186 -14Q143 -14 112 3T63 49T46 113Q46 151 61 183T118 246T241 309Q249 312 246 315T239 323Q221 349 206 369T181 410T171 462Q171 488 186 517T229 571T293 613T371 630Q415 630 444 614T487 573T502 521Q502 497
492 475T454 426T371 364Q364 360 356 355T339 344Q331 340 330 337T334 327Q374 281 399 245T425 156Q425 122 409 92T361 37T285 0T186 -14ZM200 15Q262 15 303 49T343 146Q343 183 324 215T273 285Q269 290 266 292T258 295Q254 295 245 289Q192 253 165 227T128
174T119 108Q120 83 130 62T158 28T200 15ZM326 358Q361 382 384 412T419 475T431 533Q430 566 412 586T358 606Q328 606 301 588T257 544T239 489Q239 458 256 429T305 361Q310 356 314 355T326 358Z" />
<glyph unicode="9" horiz-adv-x="480" d="M6 -31Q-1 -31 -3 -28T-5 -21Q-5 -16 0 -13T13 -9Q55 -9 102 13T196 74T286 161T362 263T414 368T434 465Q434 517 414 555T355 593Q322 593 292 570T243 513T224 443Q224 408 242 383T288 357Q317 357 333 365T370 383Q377
387 377 380Q377 379 376 375T374 369Q358 348 335 334Q327 329 311 320T275 305T239 298Q199 298 170 327T140 396Q140 435 164 476T226 552T310 608T397 629Q433 629 460 608T502 551T517 471Q517 420 494 364T431 251T340 144T232 54T116 -8T6 -31Z" />
<glyph unicode=":" horiz-adv-x="216" d="M135 262Q116 262 103 277T90 312Q90 330 99 345T122 368T155 377Q175 377 187 362T200 327Q200 309 192 295T168 271T135 262ZM50 -14Q31 -14 18 1T5 36Q5 54 14 69T37 92T70 101Q90 101 102 86T115 51Q115 33 107 19T83
-5T50 -14Z" />
<glyph unicode=";" horiz-adv-x="215" d="M-32 -129Q-39 -129 -44 -129T-50 -123Q-50 -118 -43 -115T-25 -106Q4 -90 24 -72T55 -34T66 6Q66 23 56 31T34 44Q23 50 14 57T4 80Q4 97 21 108T59 120Q86 120 105 103T125 50Q125 13 110 -20T70 -77T18 -115T-32 -129ZM135
262Q116 262 103 277T90 312Q90 330 99 345T122 368T155 377Q175 377 187 362T200 327Q200 309 192 295T168 271T135 262Z" />
<glyph unicode="&lt;" horiz-adv-x="590" d="M520 -4L94 195Q81 201 67 209T53 222Q53 229 62 245T86 268L516 466Q524 470 530 468T537 454Q537 441 529 428T505 408L132 234Q130 233 130 232T133 229L513 55Q527 48 532 33T537 11Q537 3 531 -1T520 -4Z" />
<glyph unicode="=" horiz-adv-x="590" d="M81 314Q76 314 72 318T67 326Q67 331 69 340T76 356T91 364H544Q549 364 553 361T558 353Q558 343 548 329T526 314H81ZM81 143Q76 143 72 147T67 155Q67 160 69 169T76 185T91 193H544Q549 193 553 190T558 182Q558
169 548 156T526 143H81Z" />
<glyph unicode="&gt;" horiz-adv-x="590" d="M78 -2Q68 -6 61 -3T54 13Q54 22 62 35T85 55L458 229Q460 230 460 231T457 234L77 408Q63 415 58 432T53 456Q53 460 56 464T64 469Q65 469 65 469T67 468L496 268Q509 262 523 254T537 241Q537 234 528 218T504 195L78 -2Z" />
<glyph unicode="?" horiz-adv-x="316" d="M150 176Q147 176 137 191T119 227T110 268Q110 294 119 315T155 357T240 404Q278 422 307 452T337 526Q337 561 315 579T255 597Q242 597 235 594T221 589Q212 586 207 583T194 580Q183 580 177 587T170 607Q170 627
190 644T238 661Q278 661 307 639T352 580T368 496Q368 460 358 434T331 389T289 357L201 312Q171 296 161 281T150 241Q150 231 152 222T156 204Q158 198 159 193T161 182Q161 178 157 177T150 176ZM134 -14Q116 -14 104 0T92 33Q92 59 110 77T153 95Q172 95 184
81T196 48Q196 23 178 5T134 -14Z" />
<glyph unicode="@" horiz-adv-x="761" d="M306 -137Q212 -137 151 -106T61 -23T32 91Q32 148 51 206T108 319T198 415T318 482T463 507Q528 507 577 487T660 434T711 363T728 288Q728 245 711 200T660 117T579 56T471 32Q449 32 439 41T427 63T424 88Q424 94 421
95T410 91Q403 86 386 76T347 56T298 47Q245 47 220 76T196 146Q197 180 215 217T269 285T354 337T470 357Q486 357 501 355T532 347Q543 344 546 343T553 341Q561 341 569 350T584 360Q586 360 590 359T598 356T600 352Q587 334 577 317T561 288L485 127Q477 110
477 92T500 74Q554 74 594 105T657 185T680 283Q680 332 654 374T574 443T441 470Q381 470 319 443T203 366T118 251T86 109Q86 35 115 -10T200 -76T330 -97Q399 -97 455 -78T560 -23Q566 -18 572 -16T582 -13Q589 -13 591 -16T592 -26Q589 -35 565 -53T500 -90T410
-123T306 -137ZM328 81Q346 81 361 87T395 103Q406 109 416 119T437 152L492 266Q497 277 499 285T502 300Q502 314 488 320T439 326Q397 326 365 310T310 269T277 215T264 158Q264 126 279 104T328 81Z" />
<glyph unicode="A" horiz-adv-x="658" d="M-36 -5Q-48 -5 -53 -2T-60 8Q-61 16 -52 20T-26 29Q2 37 25 48T69 74T105 108Q179 190 240 266T359 417T476 569Q488 584 497 596T512 615T522 622Q543 622 550 629T570 649Q584 665 589 670T600 676Q605 676 607 670T605
644L501 122Q491 74 499 54T536 25Q552 21 560 18T568 7Q568 1 561 -2T537 -5Q524 -5 504 -4T460 -1T416 1Q398 1 380 1T345 1T317 0Q296 0 293 12Q292 19 300 24T321 32Q354 38 372 45T401 68T419 112L450 231Q454 246 445 252T421 258L309 256Q293 256 284 253T266
238L163 102Q145 78 144 65T150 45T170 34Q181 30 188 25T195 12Q195 5 187 2T167 -1Q154 -1 135 0T89 1Q58 1 23 -2T-36 -5ZM334 290L441 291Q452 291 458 297T468 319L516 538Q519 550 519 555T513 561Q509 561 504 559T494 549L316 312Q309 302 308 296T334
290Z" />
<glyph unicode="B" horiz-adv-x="572" d="M4 -5Q-20 -5 -20 6Q-20 14 -11 17T16 24Q53 31 77 47T112 99L249 549Q260 586 252 600T209 621Q194 624 188 627T182 638Q182 645 192 647T215 650Q232 650 243 649T265 647T290 645Q305 645 324 647T361 652T392 655Q460
655 500 637T559 590T577 525Q577 489 560 462T516 414T458 382T398 366Q390 365 390 362T395 356Q453 334 486 298T520 192Q520 149 500 113T444 51T358 10T252 -4Q210 -4 182 -1T126 3Q102 3 85 1T50 -3T4 -5ZM249 21Q283 21 316 34T378 73T422 131T439 205Q439
274 398 310T274 346Q267 346 261 341T253 327L189 108Q184 90 185 73T199 45Q210 35 221 28T249 21ZM285 371Q308 371 330 374T377 383Q427 404 461 439T496 525Q496 566 464 595T373 625Q354 625 346 622T335 609L273 386Q269 371 285 371Z" />
<glyph unicode="C" horiz-adv-x="631" d="M330 -14Q289 -14 245 3T163 54T102 135T78 240Q78 330 110 407T200 542T330 632T485 665Q513 665 540 661T596 646Q615 640 629 635T653 630Q658 630 663 632T674 638Q680 640 686 642T697 645Q706 645 706 639T704 629Q693
614 679 589T654 537T637 487Q636 480 630 474T619 467Q610 467 607 475T604 493Q609 516 608 539T589 585Q572 607 545 620T482 634Q439 634 394 614T309 558T236 471T185 361T166 232Q166 171 183 130T229 64T291 28T357 17Q408 17 440 33T494 77T536 139Q541
147 546 152T559 158Q564 158 565 153T566 138Q566 131 557 108T535 57T511 11T494 -9Q490 -9 485 -6T475 2Q471 6 466 8T454 11Q447 11 437 8T413 0Q398 -5 377 -9T330 -14Z" />
<glyph unicode="D" horiz-adv-x="752" d="M317 -7Q308 -7 276 -5T202 -2T124 0Q106 0 92 -1T61 -3T20 -5Q8 -5 2 -3T-4 6Q-4 22 32 24Q64 25 80 33T106 58T123 99L273 560Q281 584 268 595T231 612T186 622Q171 625 167 630T162 642Q162 648 171 650T192 653Q232
653 265 651T329 649Q349 649 363 650T393 653T432 655Q526 655 596 624T705 531T745 377Q745 301 714 232T626 109T491 24T317 -7ZM322 23Q397 23 458 54T565 138T634 258T659 395Q659 472 633 522T559 597T442 622Q400 622 382 617T359 600T347 571L211 141Q197
97 207 71T246 34T322 23Z" />
<glyph unicode="E" horiz-adv-x="576" d="M-8 -5Q-20 -5 -26 -3T-32 6Q-32 18 4 24Q54 32 75 48T107 99L244 549Q258 592 245 605T188 625Q173 627 168 631T162 642Q162 648 171 650T193 653Q201 653 221 652T267 651T314 650H475Q530 650 558 652T598 657T612
660Q616 660 619 656T623 647Q623 641 617 626T604 587T593 535Q592 525 587 521T576 516Q571 516 568 523T565 541Q568 587 557 604T506 622H384Q360 622 350 616T335 592L268 380Q262 362 265 355T284 349L408 352Q434 353 449 363T477 389Q484 397 492 408T510
420Q518 420 518 412T514 392Q505 375 499 360T487 331Q481 315 477 298T467 258Q466 251 463 244T454 237Q446 237 444 248T441 264Q441 295 431 307T403 320L288 322Q271 322 259 318T240 291L189 109Q175 58 183 42T223 26H378Q403 26 422 34T458 53Q473 64
486 79T512 116Q516 122 520 128T530 134Q535 134 536 127T537 114Q537 105 530 86T514 48T498 16Q492 6 485 1T465 -5Q424 -5 385 -5T308 -3T237 -1T172 0T112 1Q88 1 70 0T35 -3T-8 -5Z" />
<glyph unicode="F" horiz-adv-x="509" d="M14 -5Q2 -5 -4 -3T-10 6Q-10 14 -1 17T26 24Q63 31 81 46T110 99L247 549Q259 585 247 600T202 622Q187 625 182 630T177 642Q177 648 186 650T208 653Q219 653 252 652T317 650H476Q544 650 578 656T617 662Q622 662
623 660T625 652Q625 648 624 643T620 630Q615 613 608 587T597 540Q596 535 593 529T580 523Q573 523 571 530T569 546Q569 564 569 580T558 606Q553 611 544 614T521 618H377Q358 618 351 609T338 588Q337 585 328 559T308 496T286 426T269 374Q267 366 268 358T276
349L411 352Q453 354 482 389Q489 397 496 403T508 410Q513 410 516 406T517 394Q500 356 491 329T471 263Q469 256 466 251T458 246Q450 246 447 255T443 269Q443 298 433 308T406 320Q395 321 371 321T323 322T291 322Q274 322 262 318T243 291L192 113Q182 79
185 62T203 37T245 24Q260 21 265 18T270 6Q270 -1 261 -3T240 -5Q215 -5 199 -3T168 0T133 2Q99 2 76 -1T14 -5Z" />
<glyph unicode="G" horiz-adv-x="687" d="M389 -14Q325 -14 269 2T171 52T105 135T81 254Q81 341 113 415T205 545T343 632T514 663Q546 663 569 657T611 644Q626 638 638 634T663 629Q668 629 674 632T686 638Q691 641 696 643T706 645Q715 645 715 639T713 629Q702
614 688 589T663 537T646 487Q644 477 639 471T628 464Q608 464 613 493Q617 516 615 540T596 585Q583 602 559 618T495 634Q426 634 367 600T263 507T194 377T169 228Q169 178 189 139T241 71T312 29T389 14Q435 14 462 39T498 100L526 209Q531 228 527 237T508
250Q495 254 483 256T463 260Q453 262 443 265T432 275Q432 282 441 286T464 290Q487 290 505 289T540 286T581 284Q606 284 623 287T666 290Q687 290 687 276Q687 271 679 265T655 256Q633 252 620 243T598 213Q589 194 581 169T567 122T562 92Q562 83 564 76T573
60Q567 46 547 33T498 9T440 -8T389 -14Z" />
<glyph unicode="H" horiz-adv-x="751" d="M3 -5Q-9 -5 -14 -3T-20 6Q-20 13 -12 16T14 25Q46 34 61 42T84 72L233 551Q244 586 241 600T205 622Q190 625 186 630T181 642Q181 648 190 650T211 653Q236 653 250 652T276 651T306 650Q325 650 337 650T365 652T405
653Q429 653 429 642Q429 635 419 630T392 622Q368 618 351 609T324 585T307 551L246 354Q244 345 256 345H591Q597 345 601 357L662 552Q670 579 663 597T622 622Q607 625 603 630T598 642Q598 648 607 650T628 653Q653 653 669 652T699 651T735 650Q752 650 761
650T782 652T820 653Q832 653 838 651T844 642Q844 628 807 622Q770 615 758 598T737 552L592 81Q585 57 591 43T626 24Q641 21 646 17T651 6Q651 0 642 -2T621 -5Q596 -5 583 -4T557 -1T526 0Q507 0 494 -1T465 -3T425 -5Q401 -5 401 6Q401 13 410 17T437 24Q469
29 491 47T523 97L585 292Q587 297 588 302T585 307H240Q235 307 232 296L173 104Q160 61 174 46T220 24Q235 21 240 17T245 6Q245 0 236 -2T215 -5Q190 -5 174 -4T143 -1T107 0Q87 0 73 -1T44 -3T3 -5Z" />
<glyph unicode="I" horiz-adv-x="362" d="M4 -5Q-8 -5 -14 -3T-20 6Q-20 18 16 24Q53 31 77 47T112 98L250 550Q261 585 252 600T209 622Q194 625 190 630T185 642Q185 648 194 650T215 653Q240 653 256 652T287 651T323 650Q343 650 356 650T385 652T425 653Q449
653 449 642Q449 635 439 630T412 622Q388 618 371 610T342 588T324 550L186 98Q179 75 183 60T201 37T237 24Q252 21 257 17T262 6Q262 0 253 -2T232 -5Q207 -5 191 -4T161 -1T124 0Q90 0 66 -2T4 -5Z" />
<glyph unicode="J" horiz-adv-x="293" d="M-95 -200Q-140 -200 -162 -182T-184 -147Q-184 -126 -179 -114T-160 -102Q-152 -102 -140 -113T-112 -135Q-100 -144 -85 -153T-54 -162Q-34 -162 -17 -150T17 -103T54 -5L223 551Q234 586 226 600T184 622Q169 625 164
630T159 642Q159 648 168 650T190 653Q215 653 230 652T261 651T297 650Q314 650 324 650T348 652T386 653Q409 653 409 642Q409 635 400 630T373 622Q349 618 335 610T314 588T298 551L173 142Q149 63 131 16T97 -59T67 -103T39 -134Q11 -163 -21 -181T-95 -200Z"
/>
<glyph unicode="K" horiz-adv-x="699" d="M7 -5Q-5 -5 -11 -3T-17 6Q-17 18 19 24Q56 31 75 47T105 101L243 551Q254 586 245 600T202 622Q187 625 182 630T177 642Q177 648 186 650T208 653Q233 653 248 653T277 652T311 651Q329 651 339 651T363 652T402 653Q426
653 426 642Q426 635 416 630T389 622Q365 618 352 612T332 592T317 551L261 360Q259 353 262 350T272 347Q287 347 303 357T339 385L550 567Q563 578 572 587T581 605Q581 608 578 612T562 620Q551 624 545 628T538 640Q538 646 550 648T574 651H624Q664 651 706
653T776 655Q793 655 793 644Q793 637 783 632T756 624Q719 617 678 602T595 558Q552 527 515 497T440 432T356 357Q352 353 352 349T355 339Q414 233 458 169T537 70Q560 48 581 40T628 24Q644 20 648 17T653 6Q653 0 644 -2T623 -5Q596 -5 577 -4T534 -1T463
0Q452 0 445 0T427 0T396 -1Q384 -1 379 1T373 10Q373 17 381 20T403 27Q423 32 430 36T436 48T424 72L284 306Q279 315 267 319T251 323Q247 323 245 316T241 302L187 110Q175 67 185 49T228 24Q243 21 248 17T253 6Q253 0 244 -2T223 -5Q198 -5 184 -3T158 0T126
2Q92 2 69 -1T7 -5Z" />
<glyph unicode="L" horiz-adv-x="583" d="M4 -5Q-8 -5 -14 -3T-20 6Q-20 18 16 24Q53 31 83 47T123 99L264 560Q275 596 268 605T227 622Q212 625 207 630T202 642Q202 648 211 650T232 653Q257 653 272 652T302 650T336 648Q359 648 377 649T414 652T458 653Q481
653 481 642Q481 634 470 631T442 625Q416 623 396 617T361 599T341 567L206 113Q195 75 203 53T248 30H328Q383 30 416 41T469 72Q488 91 501 110T530 152Q535 158 537 160T546 162Q551 162 552 159T554 150Q554 143 549 125T535 85T519 42T503 11Q499 5 493 0T480
-5Q423 -5 375 -4T283 -2T202 0T129 1Q92 1 67 -2T4 -5Z" />
<glyph unicode="M" horiz-adv-x="991" d="M387 -14Q383 -14 381 -7T378 11Q382 136 381 261T374 512Q373 534 365 533T345 509Q299 418 257 328T175 146Q155 99 150 74T151 39T172 26Q187 24 194 20T202 9Q202 3 191 0T168 -3Q143 -3 128 -2T98 -1T60 0Q43 0 34
-1T12 -4T-26 -6Q-50 -6 -50 4Q-50 11 -41 15T-15 23Q14 28 35 39T75 75T118 144L317 532Q330 557 330 576T312 607T252 625Q230 628 222 631T213 642Q213 650 224 654T255 658Q272 658 302 657T364 655T417 653Q430 653 436 647T445 626T446 585L454 163Q455 141
463 144T484 160Q546 230 604 298T721 436T839 575Q850 596 856 609T870 636Q878 650 891 650H929Q937 650 954 652T989 656T1016 658Q1028 658 1038 654T1049 643Q1049 635 1041 630T1008 621Q978 617 962 611T936 589T916 536Q889 444 867 347T827 154Q814 87
824 59T868 26Q883 24 888 20T894 9Q894 5 885 1T864 -3Q839 -3 821 -1T784 5T743 8Q720 8 706 5T676 0T635 -3Q623 -3 618 0T612 9Q612 15 621 19T647 28Q679 36 695 53T723 104Q748 180 767 244T802 371T836 502Q838 507 834 508T824 504L529 162L412 10Q402
-2 396 -8T387 -14Z" />
<glyph unicode="N" horiz-adv-x="771" d="M16 -5Q4 -5 -2 -3T-8 6Q-8 13 -2 16T21 24Q68 35 87 53T113 95L252 526Q262 556 263 577T250 610T197 625Q180 627 169 631T158 644Q158 654 168 656T183 658Q210 658 233 657T275 655T312 653Q320 653 327 649T338 636L567
154Q569 150 575 143T587 135Q592 135 600 155Q604 166 614 196T637 267T663 354T689 439T709 508T719 544Q727 579 708 596T641 620Q614 624 614 639Q614 645 624 648T647 651Q674 651 699 649T754 647Q774 647 789 648T822 651T869 653Q892 653 892 642Q892 635
882 630T855 622Q830 620 816 615T792 595T772 555Q770 549 759 518T732 440T698 342T664 242T637 159T622 113Q618 97 619 88T626 66Q632 52 641 46T659 33Q667 27 672 22T678 6Q678 2 676 1T670 0Q652 0 638 -1T613 -3T593 -5Q577 -5 568 0T551 21Q533 59 515
100T478 184T440 270T402 355T363 438T324 515Q318 526 312 532T300 539Q295 539 288 531T276 505Q266 468 252 420T222 318T190 207T161 96Q154 68 169 50T223 23Q238 20 245 17T252 6Q252 0 243 -2T222 -5Q197 -5 182 -4T153 -1T123 0Q103 0 88 -1T57 -3T16 -5Z"
/>
<glyph unicode="O" horiz-adv-x="694" d="M303 -14Q225 -14 176 21T102 115T78 243Q78 315 103 389T179 525T301 626T468 664Q546 664 596 629T669 535T693 407Q693 335 668 261T592 125T470 24T303 -14ZM306 17Q360 17 406 42T490 111T554 210T594 326T608 445Q608
492 594 536T548 608T465 636Q413 636 367 610T284 540T220 441T178 324T163 205Q163 158 177 115T223 45T306 17Z" />
<glyph unicode="P" horiz-adv-x="566" d="M25 -5Q13 -5 7 -3T1 6Q1 13 10 17T37 24Q74 31 96 47T129 100L263 537Q277 581 265 602T202 627Q187 629 182 632T177 642Q177 648 186 650T208 653Q213 653 229 653T264 653T297 652Q308 652 329 653T372 655T408 656Q471
656 519 634T593 571T620 472Q620 424 598 384T537 315T449 270T347 254Q337 254 321 256T305 267Q305 273 312 276T328 280Q342 282 356 284T383 290Q426 302 460 326T514 389T535 480Q535 522 518 556T466 610T382 630Q374 630 369 626T361 612T352 588L206 111Q193
71 204 52T254 24Q269 21 274 17T279 6Q279 0 270 -2T249 -5Q224 -5 208 -3T179 0T148 2Q112 2 88 -1T25 -5Z" />
<glyph unicode="Q" horiz-adv-x="694" d="M544 -270Q491 -270 443 -247T350 -198Q307 -173 262 -154T167 -135Q150 -135 134 -137T106 -144Q91 -150 80 -155T59 -161Q51 -161 49 -160T47 -152Q47 -141 67 -128T120 -101T188 -74T258 -48T313 -26Q404 15 471 82T576
241T614 445Q614 492 598 535T547 607T456 635Q405 635 361 610T280 540T218 440T178 324T164 205Q164 158 183 113T249 37T374 7Q380 7 386 7T398 8L363 -10Q359 -10 345 -12T314 -14Q233 -14 181 21T104 115T79 243Q79 315 104 389T178 525T300 626T469 664Q547
664 598 629T674 535T699 407Q699 340 675 270T601 138T478 29Q435 1 398 -20T318 -61T209 -100L188 -93Q201 -89 213 -87T239 -85Q283 -85 328 -102T412 -142Q459 -170 503 -193T584 -217Q616 -217 641 -203T684 -165Q692 -155 697 -155T705 -159T704 -171Q696
-188 681 -205T644 -237T597 -261T544 -270Z" />
<glyph unicode="R" horiz-adv-x="687" d="M27 -5Q15 -5 9 -3T3 6Q3 18 39 24Q76 31 98 47T131 100L265 538Q276 573 276 589T259 612T204 622Q189 624 183 628T176 639Q176 647 187 650T210 653Q215 653 235 653T274 653T299 652Q318 652 338 652T378 654T410
655Q461 655 506 640T579 593T607 507Q607 453 582 414T517 351T434 312Q420 307 425 295Q430 282 442 255T468 197T495 139T515 98Q535 59 553 46T600 27Q613 25 623 23T634 13Q634 2 619 -1T583 -4Q556 -4 533 -2T492 9T465 32Q449 61 430 100T393 179T362 249Q350
278 339 288T301 298Q279 298 272 295T261 280L208 111Q197 75 204 53T244 24Q259 21 264 17T269 6Q269 0 260 -2T239 -5Q214 -5 201 -3T178 0T150 2Q114 2 90 -1T27 -5ZM338 318Q359 318 390 327T452 357T503 416T524 508Q524 559 490 594T402 630Q388 630 379
625T362 603T345 555L292 356Q286 333 295 326T338 318Z" />
<glyph unicode="S" horiz-adv-x="467" d="M182 -15Q157 -15 131 -11T79 4Q66 9 58 12T46 16Q41 16 36 14T25 10Q19 6 14 3T5 0Q1 0 -6 6T-14 19Q-14 25 -5 46T15 99T32 171Q35 191 48 191Q56 191 58 182T60 152Q60 114 72 83T111 33T179 15Q243 15 287 51T332
155Q332 181 325 203T299 248T249 302Q206 341 176 383T145 482Q145 535 172 576T247 640T354 664Q370 664 388 661T423 652Q443 646 456 641T477 635Q488 635 496 640Q500 642 504 643T513 645Q521 645 523 639T525 629Q525 628 519 617T504 578T487 498Q485 483
480 475T471 466Q464 466 462 473T459 492Q459 562 427 598T342 635Q307 635 278 616T231 568T214 506Q214 480 223 456T252 406T307 348Q358 302 383 264T409 184Q409 129 383 84T307 12T182 -15Z" />
<glyph unicode="T" horiz-adv-x="622" d="M147 -5Q135 -5 129 -3T123 6Q123 13 133 16T160 22Q197 29 221 47T256 102L378 530Q392 581 390 597T375 614H292Q243 614 217 595T172 553Q163 543 156 532T142 512T129 504Q123 504 121 506T118 517Q118 519 120 527T128
548Q138 568 150 594T170 646Q172 653 177 659T187 666Q191 666 196 663T205 654Q208 651 214 648T235 644T281 642H638Q669 642 684 644T707 649T717 655Q722 660 726 663T734 666Q744 666 744 655Q744 648 741 640T734 627Q729 617 718 585T699 511Q698 503 695
500T688 497Q681 497 678 503T674 520Q674 566 660 590T607 614H507Q494 614 486 608T470 584T451 527L330 102Q320 66 333 48T380 22Q395 19 400 16T405 6Q405 0 396 -2T375 -5Q350 -5 334 -4T304 -1T268 0Q245 0 227 -1T191 -3T147 -5Z" />
<glyph unicode="U" horiz-adv-x="700" d="M301 -14Q253 -14 212 1T143 49T109 131T123 251L213 547Q224 583 216 599T193 620Q162 629 162 642Q162 648 175 650T200 653Q221 653 242 652T289 650Q311 650 330 651T364 652Q388 652 387 641Q386 634 377 630T350
621Q334 617 315 597T284 535L196 238Q174 164 188 117T241 48T328 26Q401 26 450 60T532 150T582 269Q593 307 605 346T629 420T646 474Q666 534 667 563T657 604T620 622Q611 624 603 628T594 640Q594 646 603 648T625 651Q639 651 657 651T695 651T727 650Q742
650 755 650T781 652T803 653Q815 653 821 651T827 642Q826 630 789 622Q773 618 761 611T736 580T704 506Q683 451 662 387T615 254Q587 177 548 116T450 21T301 -14Z" />
<glyph unicode="V" horiz-adv-x="683" d="M192 -14Q179 -14 170 1T169 63Q198 231 217 349T243 550Q245 582 239 599T192 623Q177 625 173 630T168 643Q168 650 177 653T198 656Q218 656 245 653T304 650Q322 650 340 650T374 651T401 651Q413 651 419 649T425
640Q425 633 415 628T390 621Q361 617 345 604T322 553L255 143Q252 126 253 119T259 112Q263 112 269 121T288 146L568 492Q604 536 614 563T619 605T599 621Q583 623 579 628T575 641Q575 647 584 649T605 652Q618 652 644 651T696 650Q727 650 745 653T787 656Q799
656 804 653T810 643Q810 636 800 631T773 620Q747 613 716 596T656 543L285 95Q269 76 255 57T229 22T207 -4T192 -14Z" />
<glyph unicode="W" horiz-adv-x="1067" d="M208 -14Q196 -14 190 0T184 36T188 78Q199 134 210 195T231 318T250 432T262 523Q267 565 265 584T247 610T199 623Q184 625 176 630T168 643Q168 651 179 653T205 656Q225 656 252 653T318 650Q336 650 353 650T386
651T412 651Q424 651 431 648T439 639Q439 632 426 627T399 620Q375 618 363 611T344 588T333 539Q319 446 304 354T274 167Q269 133 277 133T313 165L584 485Q612 517 622 536T632 570Q632 594 617 606T564 623Q549 625 542 630T534 644Q534 651 546 653T570 656Q585
656 608 655T657 652T701 650Q720 650 737 651T769 654T801 656Q824 656 824 643Q824 636 814 631T787 623Q740 616 725 601T704 551L648 167Q643 133 651 133T686 166L945 490Q981 535 991 562T993 603T960 621Q944 624 940 628T935 639Q935 646 944 649T966 652Q975
652 995 652T1039 651T1080 650Q1111 650 1129 653T1171 656Q1183 656 1188 653T1194 643Q1194 636 1184 630T1157 620Q1126 614 1098 597T1040 543L670 94Q653 73 633 48T596 4T572 -14Q558 -14 554 -2T550 31T556 72T564 112Q574 172 585 237T607 367T628 492L298
97Q285 81 271 62T245 26T223 -3T208 -14Z" />
<glyph unicode="X" horiz-adv-x="633" d="M-37 -5Q-49 -5 -55 -3T-61 6Q-61 13 -51 19T-23 28Q1 31 24 40T74 69T134 124L286 284Q300 299 308 313T308 351L256 529Q245 569 231 587T200 612T164 622Q150 624 141 630T132 643Q132 649 145 652T170 655Q193 655
227 653T296 650Q324 650 344 651T378 652Q390 652 396 650T402 641Q402 634 393 629T365 621Q327 618 321 601T330 528L365 397Q369 383 375 383T392 394L499 520Q531 558 540 578T543 607T519 620Q510 622 503 627T495 640Q495 646 504 648T525 651Q542 651 561
651T602 650Q629 650 660 653T710 656Q722 656 728 654T734 645Q734 638 724 634T697 625Q678 620 651 604T594 565T538 513L406 370Q393 355 390 348T388 331L448 111Q456 83 466 68T496 45T553 26Q568 22 573 18T578 6Q578 0 569 -2T548 -5Q535 -5 510 -4T457
-1T407 1Q379 1 358 1T320 0Q308 0 302 2T296 11Q296 18 310 23T334 31Q369 40 378 59T378 111L334 270Q331 281 326 282T315 275L169 100Q153 81 149 67T151 44T174 30Q189 26 193 23T198 12Q198 6 189 3T168 -1Q155 -1 131 0T82 1Q51 1 19 -2T-37 -5Z" />
<glyph unicode="Y" horiz-adv-x="575" d="M123 -5Q111 -5 105 -3T99 6Q99 13 108 17T135 24Q172 31 197 51T234 108L285 268Q292 288 291 304T284 342L228 548Q219 582 205 600T167 620Q153 622 146 628T139 642Q139 648 150 650T174 653Q195 653 222 652T282
650Q304 650 323 651T357 652Q369 652 374 650T380 641Q380 634 371 629T343 621Q315 617 308 606T310 560L352 401Q357 382 361 373T371 363Q376 363 385 372T407 395Q440 432 464 463T523 537Q556 578 555 595T524 620Q514 622 507 627T500 640Q500 646 509 648T530
651Q551 651 568 651T608 650Q637 650 663 651T706 653Q718 653 724 651T731 642Q731 635 721 632T697 623Q678 617 654 602T607 568T570 534Q545 508 514 473T453 405T404 352Q382 328 372 307T353 256L308 108Q298 74 310 53T356 24Q371 21 376 17T381 6Q381
0 372 -2T351 -5Q326 -5 310 -4T279 -1T243 0Q220 0 202 -1T166 -3T123 -5Z" />
<glyph unicode="Z" horiz-adv-x="635" d="M502 -5Q466 -5 421 -5T330 -3T241 -2T167 -1Q151 -1 118 -1T48 -2T-16 -3Q-20 -3 -19 4T-18 11Q-16 16 -3 32T30 69T64 104Q133 174 190 234T302 353T415 471T542 601Q546 605 548 610T533 617Q517 618 487 618T422 616T353
612T294 608Q272 606 236 585T172 518Q165 507 159 500T145 493Q139 493 136 499T133 512Q133 515 135 522T141 537Q150 557 163 584T183 627Q188 640 195 646T213 653Q225 653 248 651T297 647Q333 646 378 646T455 646Q494 646 527 646T592 647T658 649Q664 649
669 640T671 627L594 550Q524 480 467 423T357 312T249 200T130 67Q107 41 136 38Q156 36 180 34T235 32Q256 32 288 33T354 36T409 41Q460 48 504 73T579 150Q583 156 588 162T600 169Q608 169 608 163T609 150Q609 142 600 124T577 83T551 41T533 12Q529 6 523
1T502 -5Z" />
<glyph unicode="[" horiz-adv-x="361" d="M21 -200Q10 -200 4 -198T-2 -189T2 -170L250 640Q254 652 257 666T267 691T290 702L456 701Q462 701 466 698T470 690Q470 680 459 677T440 674Q418 674 400 674T359 673Q349 673 341 664T328 644Q316 607 296 546T252
410T203 256T155 101T113 -38T83 -142Q79 -158 83 -162T102 -167Q116 -167 125 -167T146 -169T179 -172Q187 -173 193 -175T200 -185Q200 -192 190 -196T172 -200H21Z" />
<glyph unicode="\" horiz-adv-x="410" d="M289 -68Q279 -67 271 -63T261 -50L170 655Q169 663 175 667T188 671Q199 670 207 666T217 651L310 -54Q311 -62 304 -65T289 -68Z" />
<glyph unicode="]" horiz-adv-x="360" d="M371 702Q382 702 388 700T394 691T390 672L142 -138Q138 -150 135 -164T125 -189T102 -200L-64 -199Q-70 -199 -74 -196T-78 -188Q-78 -178 -67 -175T-48 -172Q-26 -172 -8 -172T33 -171Q43 -171 51 -162T64 -142Q76
-105 96 -44T140 92T189 246T237 401T279 540T309 644Q313 660 309 664T290 669Q276 669 267 669T246 671T213 674Q205 675 199 677T192 687Q192 694 202 698T220 702H371Z" />
<glyph unicode="^" horiz-adv-x="501" d="M87 284Q83 284 81 287T78 295Q78 301 81 305L278 603H281L479 305Q483 299 482 292T473 284Q462 284 450 289T432 302L284 514Q280 519 279 519T274 514L128 303Q122 294 109 289T87 284Z" />
<glyph unicode="_" horiz-adv-x="464" d="M350 -132Q355 -132 357 -136T357 -146Q349 -159 340 -170T318 -182H-106Q-111 -182 -113 -178T-115 -170Q-113 -165 -108 -156T-96 -140T-81 -132H350Z" />
<glyph unicode="`" horiz-adv-x="200" d="M272 475Q280 475 281 481T278 495L203 639Q198 649 192 656T178 664Q173 664 164 658T147 644T139 628Q139 624 143 617T157 598L249 490Q253 484 259 480T272 475Z" />
<glyph unicode="a" horiz-adv-x="491" d="M45 -14Q33 -14 21 -8T2 9T-6 30Q-6 66 18 113T85 213T184 315Q238 362 272 385T322 409Q338 409 350 395Q364 377 363 378T362 380Q364 380 365 381T368 386Q382 410 385 415T385 416Q391 426 397 426Q406 426 415 423T429
415T435 405Q435 400 428 380L316 83Q303 49 329 49Q347 49 372 66T417 109Q419 111 421 112T426 114Q430 114 431 112T433 103Q433 96 419 76T390 40Q362 14 334 0T281 -14Q271 -14 261 -8T245 7T238 25Q238 36 244 48Q240 39 243 48T255 76T274 116T291 153Q296
164 296 169T289 168Q228 100 185 60T108 3T45 -14ZM101 49Q123 49 166 85T265 187Q303 231 325 268T347 323Q347 331 334 342Q328 347 321 350T309 353Q291 353 260 335T202 292Q169 260 139 220T91 143T72 83Q72 68 80 59T101 49Z" />
<glyph unicode="b" horiz-adv-x="449" d="M136 -8Q97 -8 74 14T51 74Q51 99 57 130T74 195L200 576Q205 590 207 603T210 630Q210 635 205 639T185 647Q154 655 154 662Q154 667 157 670T170 676Q181 680 198 685T234 696T266 704T285 707Q301 707 301 697Q301
688 300 682T294 664Q286 644 272 605T242 517T208 419T177 326T154 257Q150 247 154 245T166 252Q225 330 278 372T368 414Q400 414 421 393T442 340Q442 294 424 246T374 152T302 70T220 13T136 -8ZM162 24Q175 24 196 38T241 76T289 132Q313 164 333 202T364
276T376 336Q376 353 368 364T347 376Q316 376 276 341T183 234Q150 188 130 149T110 91Q110 64 125 44T162 24Z" />
<glyph unicode="c" horiz-adv-x="313" d="M99 -15Q81 -15 62 -2T29 35T15 90Q16 126 27 169T59 256T111 335T184 392T276 414Q303 414 317 405T331 382Q331 366 322 350T301 333Q293 333 288 340T277 357Q271 368 262 377T236 387Q212 387 186 358T138 284T101
189T87 98Q87 65 100 53T135 41Q167 41 186 53T224 84Q231 91 234 94T244 97Q252 97 252 84Q252 76 240 60T206 27T157 -3T99 -15Z" />
<glyph unicode="d" horiz-adv-x="516" d="M70 -14Q41 -14 23 6T5 58Q5 96 21 143T66 238T131 327Q170 371 210 395T282 420Q295 420 303 417T339 395Q360 382 362 381T363 379Q366 379 368 386L435 611Q437 617 437 620T438 625T439 628T439 631Q439 642 433 648T411
661Q389 669 385 670T381 675Q381 682 389 686T415 693Q430 695 445 697T474 701T496 704T508 705Q520 705 520 691Q520 686 519 681T516 668L354 107Q352 99 351 92T349 76Q349 54 363 54Q376 54 394 63T430 89T461 123Q463 126 465 127T469 128Q477 128 475 120Q475
109 464 92T435 57T397 22T357 -4T325 -14Q314 -14 304 -8T288 9T281 31Q281 36 285 57Q287 68 291 84T298 116T303 139T303 137Q305 145 303 148T297 147Q228 60 176 23T70 -14ZM107 33Q134 33 166 52T229 104T287 176T330 254T346 326Q346 355 333 371T296 388Q273
388 244 366T185 308T130 230T89 145T73 71Q73 49 80 41T107 33Z" />
<glyph unicode="e" horiz-adv-x="341" d="M106 -15Q85 -15 64 1T28 41T14 89Q14 139 34 195T91 301T174 382T275 414Q310 414 329 400T349 359Q349 328 330 305T277 266T204 238T121 219Q115 218 112 217T106 209Q99 187 92 161T85 112Q85 77 98 58T138 39Q174
39 199 57T240 93Q250 104 258 104Q268 104 268 94Q268 93 268 91T266 86Q246 53 221 31T168 -3T106 -15ZM128 242Q139 242 165 248T221 269T270 305T291 357Q291 370 284 379T264 389Q243 389 219 372T172 330T136 282T121 248Q121 242 128 242Z" />
<glyph unicode="f" horiz-adv-x="321" d="M-111 -290Q-148 -290 -171 -278T-194 -240Q-194 -225 -180 -212T-155 -198Q-147 -198 -140 -206T-123 -226Q-114 -236 -102 -243T-71 -250Q-52 -250 -38 -239T-11 -199T19 -115L153 339Q159 357 139 357L77 356Q70 356
67 359T64 368Q64 376 70 384T83 394L153 398Q167 400 172 418L180 450Q204 545 244 601T329 681T409 706Q453 706 478 687T503 636Q503 611 490 598T462 585Q455 585 449 596T435 624Q426 644 412 654T376 665Q348 665 329 652T293 604T257 503Q251 484 247 467T236
429Q234 422 233 418T231 409Q231 404 234 402T241 400Q271 400 298 401T351 403Q358 403 358 392Q358 388 355 381T345 369T329 363L238 362Q228 362 222 359T213 346Q178 233 145 118T83 -110Q73 -150 50 -183T-3 -240T-61 -277T-111 -290Z" />
<glyph unicode="g" horiz-adv-x="415" d="M113 -290Q55 -290 8 -277T-68 -239T-96 -180Q-96 -157 -65 -137T12 -98T103 -65Q111 -62 105 -56Q83 -37 70 -24T57 6Q57 20 71 35T107 67Q112 72 113 75T115 79Q115 82 107 85Q87 95 76 108T60 138T55 178Q55 212 70
252T111 330T172 390T247 414Q268 414 277 410T293 402Q300 398 307 395T321 391Q332 391 350 394T387 401T419 404Q425 404 433 399T441 381Q441 362 435 354T423 346Q414 346 398 349T368 355T345 358Q340 358 336 355T333 344Q335 336 336 327T337 308Q337 269
322 229T280 154T222 98T156 77Q149 77 144 74T134 65Q123 51 123 36Q123 18 132 6T167 -23Q184 -34 207 -49T254 -79T291 -105Q313 -121 321 -134T330 -163Q330 -189 310 -212T256 -252T186 -280T113 -290ZM143 -260Q183 -260 208 -250T245 -225T257 -191Q257
-176 248 -160T216 -130Q208 -124 189 -111T158 -93Q140 -83 130 -83Q124 -83 118 -84T105 -87Q45 -106 9 -128T-27 -182Q-27 -204 -2 -221T63 -249T143 -260ZM153 101Q171 101 189 119T225 166T255 227T277 290T285 339Q285 354 275 370T250 386Q231 386 212 370T176
328T144 270T122 207T112 149Q112 130 124 116T153 101Z" />
<glyph unicode="h" horiz-adv-x="488" d="M56 -18Q51 -18 47 -14T41 -4T39 8Q39 23 42 38T52 75L193 558Q198 575 203 595T208 626Q208 636 196 641T171 650Q164 652 159 654T153 661Q153 665 156 668T170 676Q178 679 192 684T223 694T253 703T272 707Q277 707
283 706T289 697Q289 689 288 683T284 670L148 200Q146 193 148 193T154 197Q198 262 245 312T334 392T406 421Q439 421 456 399T474 348Q474 297 456 240T407 131T342 42Q336 36 324 27T296 8T264 -7T233 -14Q226 -14 217 -8T201 7T194 23Q194 28 198 35T208 47T220
52Q229 52 235 49T247 40Q253 35 259 31T273 27Q290 27 309 47T345 100T377 172T399 252T408 326Q408 349 399 361T370 374Q348 374 321 353T264 296T206 221T155 143T118 78Q93 30 81 6T56 -18Z" />
<glyph unicode="i" horiz-adv-x="294" d="M66 -14Q49 -14 38 -3T27 20Q27 24 27 28T30 36Q71 119 99 192T149 321Q153 333 144 333Q139 333 125 328T94 313T66 295Q61 291 56 293T51 300Q51 305 58 314T79 336T112 361T153 388T201 413Q210 417 219 411T233 396T237
382L115 93Q111 85 110 78T108 64Q108 57 113 55T124 52Q138 52 156 65T194 98T234 137Q236 139 238 139Q240 139 242 138T244 134Q244 118 225 94T178 45T119 3T66 -14ZM268 513Q253 513 243 525T233 552Q233 576 249 594T289 613Q305 613 314 600T323 570Q323
548 307 531T268 513Z" />
<glyph unicode="j" horiz-adv-x="259" d="M-122 -290Q-157 -290 -178 -276T-200 -247Q-200 -238 -194 -229T-179 -214T-161 -207Q-152 -207 -145 -213T-130 -227Q-122 -235 -111 -242T-83 -249Q-56 -249 -39 -222T-7 -151L136 288Q141 305 139 313T128 321Q120
321 103 314T63 295Q60 294 55 295T49 301Q49 305 51 308T58 316Q80 336 98 349T133 373T168 392T208 414Q220 418 231 407T239 386Q229 359 220 332T200 275L67 -128Q58 -156 36 -184T-14 -237T-70 -275T-122 -290ZM248 513Q233 513 223 525T213 552Q213 576 229
594T269 613Q285 613 294 600T303 570Q303 548 287 531T248 513Z" />
<glyph unicode="k" horiz-adv-x="455" d="M289 -21Q265 -21 251 -9T226 28L188 134Q182 151 171 164T142 178Q135 178 128 163T115 136Q112 129 106 113T91 76T77 40T68 16Q62 0 58 -7T42 -15Q35 -15 26 -9T16 7Q16 12 18 23T24 49L191 567Q197 586 199 599T201
624Q201 636 179 644Q169 648 161 651T153 658Q153 662 154 665T159 669Q170 675 186 681T220 693T252 702T272 706Q277 706 282 705T288 696Q288 688 288 684T285 673L150 262Q146 251 150 252T159 258Q193 306 231 341T309 395T381 415Q401 415 420 404T440 370Q440
344 418 315T364 260T297 215T236 188Q227 186 231 177L277 68Q282 58 290 49T310 39Q329 39 348 57T380 97Q385 106 388 108T396 110Q398 110 400 106T402 98Q402 82 389 62T357 23T320 -8T289 -21ZM184 203Q215 203 247 218T308 255T353 300T370 340Q370 355
361 363T334 372Q313 372 286 353T232 307T189 255T172 220Q172 214 175 209T184 203Z" />
<glyph unicode="l" horiz-adv-x="286" d="M56 -14Q43 -14 27 0T11 30Q11 36 13 42L203 583Q208 597 210 610T213 636Q213 645 204 653T180 664Q170 666 164 669T158 677Q158 680 158 682T160 686T164 688Q183 693 210 697T260 705T292 709Q297 709 300 706T304
694Q304 688 302 681T298 666L96 90Q93 82 92 75T91 61Q91 45 101 45Q115 45 135 60T176 98T208 137Q214 145 222 152T234 160Q238 160 238 157T239 147Q239 127 226 105T190 62T143 23T95 -4T56 -14Z" />
<glyph unicode="m" horiz-adv-x="789" d="M75 -17Q70 -17 66 -12T60 0T57 13Q57 18 63 37T80 84L172 325Q177 338 172 347T155 356Q140 356 124 349T83 310Q79 306 75 306T68 314Q68 320 70 329T76 349T85 364Q102 385 126 399T184 414Q198 414 211 410T231 393T230
360L173 212Q170 205 174 204T182 208Q225 274 264 320T340 390T409 414Q428 414 443 403T464 371T459 317L423 212Q420 205 424 204T432 208Q474 277 514 322T593 391T663 414Q682 414 697 402T716 367T707 308L621 86Q606 50 626 50Q638 50 655 61T689 87T720
114T737 131Q738 132 738 132T740 132Q743 132 745 130T748 123Q748 115 745 107T730 87Q697 50 656 18T568 -14Q560 -14 552 -8T539 10T538 32L654 331Q662 351 654 361T634 372Q618 373 591 356T531 297Q516 278 490 240T436 159T388 78Q371 46 356 25T329 -6T309
-17Q304 -17 300 -13T294 -2T291 10Q291 15 297 35T314 84L407 334Q416 357 405 365T387 375Q371 377 344 359T284 299Q272 285 254 259T216 202T176 138T141 78Q115 30 101 7T75 -17Z" />
<glyph unicode="n" horiz-adv-x="527" d="M63 -16Q57 -16 52 -12T42 -1T37 14T38 28L154 312Q172 356 156 356Q146 356 135 354T111 341T82 310Q78 306 74 306T67 314Q67 320 70 329T79 348T88 364Q103 387 128 400T188 414Q199 414 208 409T221 393T221 371L155
201Q152 194 156 193T164 197Q205 267 247 315T329 389T398 414Q419 414 434 400T454 361T445 304L353 86Q338 50 358 50Q370 50 387 59T423 80T454 103T472 118Q473 119 473 119T475 119Q478 119 480 117T483 110Q483 102 479 96Q453 65 424 40T363 1T299 -14Q290
-14 281 -8T268 9T268 30Q297 97 326 163T382 297Q398 338 393 354T374 372Q363 373 348 365T314 339T273 294Q261 280 241 251T196 183T145 101T94 15Q85 -1 78 -8T63 -16Z" />
<glyph unicode="o" horiz-adv-x="380" d="M108 -14Q84 -14 63 2T30 44T17 99Q17 146 35 200T87 303T163 383T257 414Q307 414 334 380T362 296Q362 251 344 198T293 96T213 17T108 -14ZM124 16Q148 16 172 37T219 92T259 167T287 249T298 324Q298 350 290 367T255
384Q232 384 208 365T161 314T120 243T92 161T81 78Q81 45 92 31T124 16Z" />
<glyph unicode="p" horiz-adv-x="439" d="M-107 -286Q-112 -286 -117 -284T-123 -277Q-123 -269 -113 -264T-93 -257Q-72 -253 -60 -246T-41 -220L152 319Q157 333 158 340T155 349T141 350Q117 346 100 342T61 327Q53 323 47 325T40 334Q40 342 44 347T55 355Q71
363 101 377T171 401Q178 403 182 406T189 417Q203 464 215 485T249 506Q257 506 263 501T267 487L250 429Q247 419 249 415T255 411Q268 413 278 414T299 415Q349 415 377 399T417 354T429 290Q429 242 407 190T348 91T264 15T167 -14Q158 -14 147 -8T126 4Q117
10 112 8T99 -14L33 -209Q26 -230 37 -240T74 -253Q84 -254 94 -257T104 -268Q104 -274 95 -276T75 -279Q60 -279 44 -279T15 -278T-8 -279Q-33 -282 -56 -284T-107 -286ZM186 20Q209 20 238 45T293 111T337 196T355 281Q355 337 335 357T279 378Q270 378 261 378T241
376L149 106Q143 88 143 73T146 46Q151 33 160 27T186 20Z" />
<glyph unicode="q" horiz-adv-x="473" d="M110 -286Q105 -287 98 -285T90 -277Q90 -269 100 -264T120 -257Q141 -254 158 -242T183 -211Q203 -157 223 -104T263 2T304 110Q309 121 305 127T288 120Q251 79 215 49T143 2T71 -14Q39 -14 20 3T1 47Q1 89 21 139T74
239T148 331Q187 372 234 396T318 420Q341 420 354 412T375 394Q383 386 387 379T396 372Q407 372 415 388L424 407Q429 419 436 423T451 428Q457 428 459 419T454 390L259 -199Q252 -220 259 -232T285 -246Q295 -247 305 -250T315 -261Q315 -267 306 -269T286
-272Q253 -272 218 -274T153 -280T110 -286ZM96 22Q116 22 143 37T198 77T252 131T293 188Q315 226 331 266T348 337Q348 350 344 361T331 380T309 387Q290 387 261 365T198 306T136 226T89 139T71 61Q71 41 76 32T96 22Z" />
<glyph unicode="r" horiz-adv-x="379" d="M60 -17Q55 -17 49 -14T39 -5T35 7Q35 19 41 37T58 84L150 324Q155 337 155 348T144 359Q130 359 117 356T96 348Q90 344 85 346T79 356Q79 364 86 374T107 393Q119 402 135 408T170 414Q198 414 205 400T208 363T190
309L145 196Q141 189 147 187T157 190Q197 259 237 310T313 390T371 419Q397 419 407 404T418 369Q418 351 412 332T394 301T368 288Q360 288 356 297T352 323Q352 338 348 346T333 355Q323 355 307 342T265 297Q254 282 236 256T198 199T157 135T122 75Q95 27
84 5T60 -17Z" />
<glyph unicode="s" horiz-adv-x="276" d="M26 -14Q4 -14 -12 -2T-28 30Q-28 53 -18 64T0 76Q7 76 14 71T31 57Q42 49 55 42T91 34Q118 34 134 53T151 95Q151 117 144 142T122 193Q109 217 101 238T92 275Q92 304 107 329T145 374T190 403T225 414Q238 414 251
407T272 390T281 373Q281 367 275 359T261 343T247 336Q242 336 237 341T226 352Q220 358 212 363T189 368Q173 368 161 355T149 319Q149 311 154 294T167 259T182 227Q193 207 202 177T212 123Q212 93 195 68T149 25T89 -4T26 -14Z" />
<glyph unicode="t" horiz-adv-x="292" d="M64 -14Q56 -14 46 -8T30 7T23 23Q23 40 27 52T37 79L132 346Q134 353 131 355T122 358L82 360Q69 361 67 365T64 374Q64 376 69 381T81 392T98 398H134Q145 398 149 401T158 416L182 465Q186 473 197 483T219 502T236
510Q244 510 246 499T244 478L218 411Q216 404 219 402T231 400Q251 400 272 397T306 392Q322 389 325 386T329 377Q329 375 325 371T310 365Q288 364 268 363T226 360Q210 359 204 355T195 345L106 99Q102 87 102 78T107 64T124 59Q138 59 154 69T185 92T210 115Q221
126 229 125T237 118Q237 111 232 103T219 85Q203 68 186 53T150 26T115 5T85 -9T64 -14Z" />
<glyph unicode="u" horiz-adv-x="509" d="M67 -14Q56 -14 45 -5T27 18T24 39L129 292Q136 309 138 321T132 333Q127 333 116 325T90 305T60 280Q58 278 53 279T47 283Q47 287 49 294T59 313Q84 347 114 370T172 405T214 418Q219 418 225 413T236 400T236 385Q203
317 173 247T113 109Q104 89 102 72T110 55Q120 55 140 72T185 116T239 174Q277 217 312 263T374 346T408 398Q413 408 420 411T433 414Q439 414 445 408T454 394T455 380L327 86Q319 67 320 57T330 47Q343 47 364 61T407 93T444 127Q445 128 447 128Q450 128 453
126T456 119Q456 117 455 115T453 110T449 103T443 95T434 84Q415 60 390 38T337 1T276 -14Q263 -14 253 3T248 33Q262 63 278 97T306 160T324 203Q329 215 323 216T312 211Q260 154 220 112T151 42T101 0T67 -14Z" />
<glyph unicode="v" horiz-adv-x="410" d="M119 -14Q96 -14 79 6T57 56T62 115L127 288Q135 308 136 320T125 333Q118 333 101 318T67 286Q62 280 59 279T54 278Q47 278 47 283Q47 289 49 296T59 313Q77 338 95 357T131 390T162 411T188 418Q196 418 203 412T213
398T214 379L124 119Q113 85 121 64T154 43Q190 43 224 63T286 118T329 195T345 280Q345 297 339 314T321 344Q314 352 312 360T309 377Q309 386 318 395T340 411T368 418Q379 418 388 401T397 349Q397 305 388 262T358 178T302 96Q255 41 208 14T119 -14Z" />
<glyph unicode="w" horiz-adv-x="623" d="M127 -14Q102 -14 85 3T65 56T80 141L140 304Q145 318 143 325T133 332Q128 332 110 323T75 295Q71 290 66 288T59 286Q50 286 50 293Q50 297 51 302T62 319Q81 342 101 360T141 391T177 411T205 418Q211 418 216 414T225
401T224 381L133 120Q121 86 129 65T162 43Q181 43 204 60T250 103T287 152T304 186Q306 196 310 216T320 261T329 305T336 335Q339 349 345 360T359 376Q371 384 383 390T416 397Q423 397 424 384T424 353T416 322Q403 287 393 260T375 214Q368 197 362 176T354
143Q347 97 353 69T384 41Q412 41 442 64T497 124T539 204T555 288Q555 300 551 310T542 329Q535 340 529 349T522 365Q522 376 533 388T560 410T585 420Q596 420 605 402T614 349Q614 305 602 261T564 171T500 80Q460 33 421 10T347 -14Q322 -14 308 8T291 63T295
129L304 133Q280 95 246 62T179 7T127 -14Z" />
<glyph unicode="x" horiz-adv-x="438" d="M24 -14Q9 -14 -4 -5T-17 24Q-17 36 -10 50T9 76T28 87Q36 87 39 82T44 69Q47 57 52 52T63 46Q70 45 77 48T90 58Q110 79 125 96T157 133T194 176Q198 180 198 185T197 194L159 334Q156 345 153 348T144 351Q137 351 122
339T88 299Q86 296 82 290T71 283Q67 283 66 288T64 300Q64 315 74 334T101 371T136 402T171 414Q187 414 196 402T213 363L238 257Q241 241 252 255L322 355Q337 376 361 395T412 414Q432 414 447 399T463 371Q464 364 457 351T441 327T422 316Q416 316 412 321T404
333Q399 347 394 351T382 356Q370 356 356 346T325 314Q311 298 295 278T259 228Q255 222 254 214T257 193L291 70Q295 57 301 52T312 46Q326 46 344 67T378 126Q384 140 391 140Q395 140 397 137T400 118Q400 104 392 82T370 38T337 1T296 -14Q268 -14 255 3T233
53Q228 74 222 98T211 144Q208 156 205 157T195 150Q171 120 147 88T98 27Q77 2 60 -6T24 -14Z" />
<glyph unicode="y" horiz-adv-x="405" d="M-54 -290Q-69 -290 -84 -280T-99 -248Q-99 -234 -93 -223T-78 -205T-60 -198Q-50 -198 -43 -203T-29 -215Q-22 -221 -15 -225T1 -230Q36 -230 74 -186T146 -74Q169 -27 176 29T184 154Q184 228 174 272T150 335T126 355Q116
355 105 344T84 317T70 290Q69 285 63 273T51 261Q47 261 45 269T42 289Q42 312 51 334T76 374T110 403T145 414Q169 414 185 397T212 348Q226 305 237 242T243 78Q242 60 246 61T258 75Q291 138 317 221T344 404Q344 409 351 416T363 423Q367 423 375 418T389
402T396 380Q396 318 365 234T278 56T148 -130Q113 -173 77 -209T8 -268T-54 -290Z" />
<glyph unicode="z" horiz-adv-x="407" d="M229 -34Q204 -34 183 -18T143 16Q128 30 116 41T93 52Q63 52 47 35T30 -6Q30 -16 25 -18T15 -20Q12 -20 7 -12T1 6Q0 17 5 31T25 59L313 338L336 346Q326 332 318 326T297 319Q282 319 267 325T234 340Q215 350 194 358T149
366Q131 366 116 352T101 322Q101 315 103 305T111 286Q117 276 111 268Q104 261 90 254T70 246Q65 246 57 255T49 280Q49 307 62 326T99 368Q111 379 129 389T165 407T194 414Q211 414 227 409T260 398Q278 391 294 385T323 379Q338 379 347 384T368 400Q373 405
382 411T398 418Q401 418 404 415T407 406Q407 399 398 385T375 356L90 75L75 82Q87 93 95 95T116 98Q139 98 158 85T196 56Q213 42 229 30T263 18Q286 18 296 32T309 69T312 114Q312 132 315 137T327 143Q338 143 349 130T360 92Q360 71 345 49T308 8T265 -22T229
-34Z" />
<glyph unicode="{" horiz-adv-x="352" d="M191 -154Q158 -154 127 -147T74 -123T42 -82T44 -21Q55 14 66 42T89 98T110 157Q124 201 107 229T57 273Q54 275 52 276T50 282Q52 287 55 287T62 288Q90 298 115 314T158 352T186 404Q200 451 206 490T228 582Q239 617
263 642T320 684T388 707T457 715Q463 715 467 711T469 700Q467 692 458 690T441 688Q396 688 359 665T305 587Q295 553 289 525T278 470T264 414Q249 365 208 331T109 283Q105 281 109 279Q154 268 176 233T183 147Q174 118 163 92T141 37T118 -26Q102 -80 125
-103T192 -127Q200 -127 207 -129T212 -139Q210 -146 204 -150T191 -154Z" />
<glyph unicode="|" horiz-adv-x="260" d="M113 -289Q109 -289 105 -285T101 -275V676Q101 684 107 690T121 699T137 705T147 707Q152 707 156 703T161 694V-265Q161 -273 155 -277T141 -284T124 -288T113 -289Z" />
<glyph unicode="}" horiz-adv-x="352" d="M211 716Q244 716 275 709T328 685T360 644T358 583Q347 548 336 520T313 464T292 405Q278 361 295 333T345 289Q348 287 350 286T352 280Q350 275 347 275T340 274Q312 264 287 248T244 210T216 158Q202 111 196 72T174
-20Q163 -55 139 -80T82 -122T14 -145T-55 -153Q-61 -153 -65 -149T-67 -138Q-65 -130 -56 -128T-39 -126Q6 -126 43 -103T97 -25Q107 9 113 37T124 92T138 148Q153 197 194 231T293 279Q297 281 293 283Q248 294 226 329T219 415Q228 444 239 470T261 525T284
588Q300 642 277 665T210 689Q202 689 195 691T190 701Q192 708 198 712T211 716Z" />
<glyph unicode="~" horiz-adv-x="500" d="M102 258Q98 254 92 263T87 276Q95 291 108 309T140 343T176 370T212 381Q232 381 252 373T295 353Q313 345 332 339T374 333Q395 333 411 341T441 359Q453 368 461 375T477 382Q481 382 485 374T487 362Q482 352 469
335T438 301T400 272T362 260Q345 260 325 267T284 283Q262 292 239 300T195 308Q184 308 165 300T128 279T102 258Z" />
<glyph unicode="&#xa0;" horiz-adv-x="200" />
<glyph unicode="&#xa1;" horiz-adv-x="287" d="M168 275Q175 275 176 267T174 236Q165 193 154 143T131 44T110 -42T97 -94Q90 -116 80 -133T57 -159T31 -169Q17 -169 10 -159T1 -131T6 -94Q10 -79 24 -42T59 43T100 143T138 236Q145 252 152 263T168 275ZM227
494Q248 494 262 478T276 442Q276 413 255 394T204 374Q183 374 169 390T155 426Q155 454 176 474T227 494Z" />
<glyph unicode="&#xa2;" horiz-adv-x="395" d="M117 -80Q110 -80 107 -76T106 -65L129 -12Q77 5 50 42T22 128Q22 175 42 224T100 316T189 385T304 412L324 462Q327 470 336 474T354 479Q360 479 361 474T361 462L341 413Q364 412 386 404T423 382T434 353Q433
346 424 338T404 325T386 319Q379 319 374 322T368 329Q364 348 355 361T327 379L190 46Q194 45 197 45T205 45Q237 45 271 52T333 88Q338 93 344 93Q350 93 353 88T351 77Q309 31 265 10T165 -14L144 -65Q141 -72 133 -76T117 -80ZM155 53L292 384Q253 384 219
364T157 311T114 237T98 153Q98 119 111 92T155 53Z" />
<glyph unicode="&#xa3;" horiz-adv-x="499" d="M89 293Q84 293 80 297T75 305Q75 312 82 321T99 331L395 351Q400 351 405 347T408 337Q403 327 396 320T377 313L89 293ZM259 -37Q217 -37 188 -21T136 15Q117 31 99 43T60 55Q36 40 20 23T-11 -10Q-17 -17 -30
-15T-54 -4T-65 17Q-65 34 -47 52T1 81T63 92Q93 123 113 165T150 258T184 358Q218 457 264 516T363 602T470 629Q508 629 530 615T562 581T566 540T545 505T501 491Q496 491 494 493T491 499Q491 503 498 516T505 553Q505 573 492 586T455 600Q419 600 394 579T350
522T313 438T273 339Q255 299 233 257T181 176T110 102Q107 101 107 97T111 93Q151 92 176 81T222 57Q245 44 268 33T327 22Q359 22 384 42T409 91Q409 104 407 111T405 128Q405 141 412 147T428 154Q442 154 449 146T456 123Q456 95 443 67T405 15T343 -23T259
-37Z" />
<glyph unicode="&#xa4;" horiz-adv-x="488" d="M209 76Q161 76 130 96T83 149T67 219Q67 260 84 302T134 380T214 437T323 459Q372 459 403 439T449 386T465 316Q465 275 448 233T398 155T318 98T209 76ZM33 66Q25 66 15 77T7 99Q9 105 13 108L81 159L111 119L42
67Q40 66 38 66T33 66ZM380 68Q375 69 372 72L327 135L366 166L413 101Q415 100 415 98T415 94Q415 84 402 75T380 68ZM224 126Q269 126 304 142T363 184T400 241T413 303Q413 344 388 376T308 409Q263 409 228 393T169 351T132 294T119 232Q119 191 144 159T224
126ZM165 373L118 438Q116 440 116 445Q116 455 129 464T151 471Q156 470 159 467L204 404L165 373ZM450 380L420 420L489 472Q491 474 493 474T498 473Q506 473 516 462T524 440Q523 434 518 431L450 380Z" />
<glyph unicode="&#xa5;" horiz-adv-x="560" d="M118 -5Q106 -5 100 -3T95 6Q97 13 105 17T131 24Q168 31 193 51T229 108L257 197H140Q135 197 133 201T131 209Q133 216 142 224T160 232H268L275 256Q277 263 278 269T281 280H165Q160 280 158 284T156 292Q158
299 167 307T185 315H284Q283 320 283 323T280 330L220 557Q213 586 202 600T163 620Q150 623 144 629T139 642Q141 648 149 650T169 653Q190 653 221 652T285 650Q307 650 322 651T352 652Q364 652 371 650T376 641Q374 634 365 630T339 621Q327 617 313 604T305
560L347 395Q352 376 355 366T363 356Q368 356 377 366T403 395Q417 411 437 434T478 484T517 534Q545 572 546 591T522 620Q513 623 504 628T497 640Q499 646 507 648T528 651Q549 651 566 651T603 650Q629 650 653 651T693 653Q705 653 712 651T717 642Q715 635
706 631T680 622Q663 619 640 602T595 563T558 526Q508 471 465 422T399 346Q391 337 384 329T372 315H486Q491 315 494 311T494 301Q487 291 478 286T458 280H357L342 232H460Q465 232 468 228T467 218Q460 208 452 203T432 197H332L304 108Q294 74 306 53T351
24Q366 21 372 17T376 6Q375 0 367 -2T346 -5Q321 -5 306 -4T276 -1T239 0Q216 0 198 -1T162 -3T118 -5Z" />
<glyph unicode="&#xa6;" horiz-adv-x="260" d="M113 -290Q109 -290 105 -286T101 -276V156Q101 160 107 164T121 171T137 177T147 179Q152 179 156 172T161 157V-266Q161 -274 155 -278T141 -285T124 -289T113 -290ZM113 276Q109 276 105 284T101 299V674Q101
682 107 688T121 697T137 703T147 705Q152 705 156 701T161 692V297Q161 293 155 290T141 283T124 278T113 276Z" />
<glyph unicode="&#xa7;" horiz-adv-x="380" d="M33 -148Q12 -148 -2 -141T-16 -124Q-16 -111 -7 -97T14 -73T33 -62Q38 -63 45 -70T61 -84Q69 -90 80 -92T102 -94Q124 -94 141 -77T168 -35T179 10Q180 43 160 79T119 149Q100 180 89 210T77 269Q77 312 94 355T141
440T204 513Q220 542 247 571T306 620T372 640Q389 640 404 636T428 624T438 607Q438 602 429 590T407 567T387 556Q382 556 376 563T362 579Q355 586 348 591T330 596Q310 596 292 584T262 553T251 512Q251 485 266 452T305 385Q330 352 340 321T351 257Q351 181
318 115T235 -11Q207 -44 173 -75T104 -127T33 -148ZM245 51Q245 47 249 47T254 51Q265 71 273 87T287 124Q303 176 295 217T259 305Q246 327 231 353T204 407T191 458Q191 462 188 462T182 458Q163 424 151 391T139 323Q138 292 148 264T177 204Q190 183 205 156T233
102T245 51Z" />
<glyph unicode="&#xa8;" horiz-adv-x="300" d="M337 513Q322 513 312 525T302 552Q302 568 309 582T329 604T358 613Q374 613 383 600T392 570Q392 548 376 531T337 513ZM166 513Q151 513 141 525T131 552Q131 568 138 582T158 604T187 613Q203 613 212 600T221
570Q221 548 205 531T166 513Z" />
<glyph unicode="&#xa9;" horiz-adv-x="665" d="M371 24Q308 24 254 47T158 113T93 209T69 327Q69 390 92 444T158 541T254 606T372 630Q435 630 489 607T586 541T651 445T675 327Q675 264 652 210T586 113T489 48T371 24ZM385 154Q338 154 299 179T237 244T214
328Q214 378 241 415T313 473T406 494Q424 494 446 490T486 481Q494 479 497 478T502 468Q505 456 505 438T504 409Q504 406 501 402T494 398Q490 398 487 402T482 413Q478 424 472 432T454 448Q443 456 429 460T397 464Q346 464 315 425T284 331Q284 295 297 261T337
206T402 184Q430 184 453 192T488 225Q492 233 497 236T505 240Q510 240 510 227Q510 220 506 207T495 184Q489 175 489 174T478 167Q462 160 437 157T385 154ZM371 58Q426 58 474 79T558 137T614 223T635 327Q635 381 615 429T558 513T474 569T372 590Q318 590
270 570T186 513T130 429T109 327Q109 272 129 224T185 138T268 79T371 58Z" />
<glyph unicode="&#xaa;" horiz-adv-x="293" d="M44 161Q40 161 38 164T35 172Q35 179 45 187T63 196H243Q248 196 249 193T250 182Q250 174 238 168T216 161H44ZM123 268Q104 268 90 285T75 318Q75 344 88 358T126 380L214 408Q228 413 231 416T239 432L246 455Q251
475 243 485T220 496Q208 496 195 491T176 479Q172 474 171 465T167 449Q166 445 161 442T150 436T137 432T121 430Q116 430 114 435T113 444Q117 456 127 468T154 488Q169 496 186 504T222 518T257 524Q278 524 291 508T297 471L256 347Q250 329 252 319T265 308Q272
308 274 310T280 314Q286 318 289 318Q293 318 295 313T297 303Q297 302 293 298T283 289Q274 282 261 275T237 268Q219 268 213 275T206 290T205 302H201Q188 292 170 280T123 268ZM152 303Q165 303 175 307T196 318Q201 321 203 325T210 341L224 383Q227 391
222 393T212 394Q169 381 147 367T124 331Q124 320 134 312T152 303Z" />
<glyph unicode="&#xab;" horiz-adv-x="620" d="M289 19Q281 19 271 26T258 37Q242 53 217 73T165 115T112 153T70 181Q66 183 63 186T59 196Q59 201 63 204T70 209Q116 233 170 261T276 319T364 371Q369 375 375 378T392 381Q397 381 395 373T385 357Q352 328
313 298T237 242T175 200Q168 196 169 193T175 184Q192 166 214 142T257 92T292 42Q296 35 295 27T289 19ZM500 19Q492 19 482 26T469 37Q453 53 428 73T376 115T323 153T281 181Q277 183 274 186T270 196Q270 201 274 204T281 209Q327 233 381 261T487 319T575
371Q580 375 586 378T603 381Q608 381 606 373T596 357Q563 328 524 298T448 242T386 200Q379 196 380 193T386 184Q403 166 425 142T468 92T503 42Q507 35 506 27T500 19Z" />
<glyph unicode="&#xac;" horiz-adv-x="600" d="M502 43Q498 43 494 47T490 57V304Q490 322 476 322H64Q59 322 55 326T50 334Q50 339 51 350T58 372T74 382H537Q542 382 546 378T550 368V67Q550 57 540 52T519 45T502 43Z" />
<glyph unicode="&#xad;" horiz-adv-x="268" d="M38 170Q34 169 31 174T27 184Q27 201 39 215T59 230Q105 236 150 242T242 255Q247 256 248 254T250 247Q250 236 245 225T232 205T214 195Q170 189 126 183T38 170Z" />
<glyph unicode="&#xae;" horiz-adv-x="665" d="M371 24Q308 24 254 47T158 113T93 209T69 327Q69 390 92 444T158 541T254 606T372 630Q435 630 489 607T586 541T651 445T675 327Q675 264 652 210T586 113T489 48T371 24ZM371 58Q426 58 474 79T558 137T614 223T635
327Q635 381 615 429T558 513T474 569T372 590Q318 590 270 570T186 513T130 429T109 327Q109 272 129 224T185 138T268 79T371 58ZM509 173Q490 173 471 187T434 222T403 265T384 304Q382 310 374 315T346 320Q340 320 335 317T330 309L331 231Q331 215 342 209T365
199Q372 197 378 193T384 183Q384 179 379 176T368 172Q344 172 334 174T303 176Q289 176 282 175T266 173T242 172Q238 172 232 175T226 183Q226 189 232 193T245 199Q257 203 263 209T270 231V426Q270 447 269 454T262 463T247 468Q228 473 228 484Q228 498 248
496Q261 495 274 493T300 491Q323 491 346 493T392 496Q431 498 463 478T496 417Q496 386 477 366T434 337Q427 335 429 330T434 320Q444 294 463 267T502 222T537 204Q540 204 546 205T553 200Q553 187 538 180T509 173ZM357 347Q386 347 409 365T432 413Q432
437 413 452T368 467Q346 467 338 459T330 437V367Q330 353 338 350T357 347Z" />
<glyph unicode="&#xaf;" horiz-adv-x="300" d="M149 544Q145 544 143 546T140 553Q140 559 144 567T154 581T169 588H376Q385 588 385 578Q385 570 379 562T364 549T349 544H149Z" />
<glyph unicode="&#xb0;" horiz-adv-x="290" d="M246 402Q215 402 188 419T143 465T126 526Q126 558 143 585T187 628T246 645Q278 645 305 629T349 587T366 528Q366 496 349 467T305 420T246 402ZM246 444Q278 444 300 468T323 523Q323 556 301 579T246 602Q215
602 192 579T169 523Q169 492 192 468T246 444Z" />
<glyph unicode="&#xb1;" horiz-adv-x="590" d="M282 121Q278 121 274 125T270 135V346Q270 351 266 351H64Q59 351 55 355T50 363Q50 370 55 385T74 401H263Q268 401 269 403T270 409V580Q270 590 278 596T294 607T306 611Q311 611 315 607T320 598V407Q320 402
321 402T324 401H527Q532 401 537 397T540 387Q536 374 530 363T509 351H324Q320 351 320 347V145Q320 132 305 127T282 121ZM64 38Q59 38 55 42T50 50Q50 55 52 64T60 80T74 88H527Q532 88 537 84T540 74Q536 61 530 50T509 38H64Z" />
<glyph unicode="&#xb2;" horiz-adv-x="278" d="M293 437Q262 439 238 440T193 441Q179 441 165 441T134 440T98 438Q95 438 95 441Q95 448 103 454L216 548Q259 583 284 623T310 684Q310 705 297 716T263 727Q244 727 224 717T186 685Q183 682 181 681T177 679Q174
679 173 682T173 690Q179 707 197 727T244 762T304 777Q332 777 351 759T370 711Q370 675 351 652T309 605Q297 593 278 576T239 542T203 513T184 498Q181 495 185 494T194 492H258Q279 492 302 506T342 542Q344 546 349 548T358 550Q360 550 360 547T358 541Q347
523 338 508T321 480T305 450Q301 442 298 440T293 437Z" />
<glyph unicode="&#xb3;" horiz-adv-x="284" d="M180 434Q162 434 145 438T127 458Q127 467 137 481T154 495Q160 495 167 489T185 476Q192 473 200 471T219 468Q242 468 259 480T286 512T296 550Q296 570 285 582T250 595Q243 595 229 592T212 588Q208 588 204
592T204 599Q216 607 227 610T248 617T266 624Q291 638 311 656T331 697Q331 714 321 722T296 730Q276 730 259 723T218 699Q215 697 213 695T208 693Q204 693 203 697T203 705Q222 729 243 745T287 769T329 777Q355 776 371 762T388 718Q388 689 364 667T308 632Q305
631 304 629T306 627Q329 627 341 610T353 569Q353 542 336 518T292 475T235 445T180 434Z" />
<glyph unicode="&#xb4;" horiz-adv-x="200" d="M149 475Q141 475 140 481T143 495L218 639Q223 649 229 656T243 664Q248 664 257 658T274 644T282 628Q282 624 278 617T264 598L172 490Q168 484 162 480T149 475Z" />
<glyph unicode="&#xb5;" horiz-adv-x="502" d="M6 -285Q-4 -285 -13 -279T-28 -261T-34 -234Q-34 -201 -25 -161T-2 -79T23 0Q28 13 40 40T59 92Q62 102 70 129T88 194T109 269T129 340T145 390Q149 401 154 407T170 414Q187 414 201 409T225 396T234 382Q234
367 226 347T201 298T164 234T119 150Q113 137 112 125T111 105Q111 82 126 67T163 52Q176 52 193 63T234 101T295 176Q315 232 335 284T386 402Q390 410 395 412T407 414Q420 414 433 406T455 388T461 370Q456 356 441 326T405 260T364 190T328 137Q319 109 331
86T378 62Q397 62 416 75T451 102T470 115Q474 115 477 113T478 106Q464 70 442 43T394 1T346 -14Q326 -14 314 -5T297 22T293 60Q294 73 298 87T308 115H306Q302 109 287 89T251 45T208 4T167 -14Q138 -14 124 10T99 60Q98 64 96 68T92 74T86 77Q81 77 75 66T63
39Q58 25 51 -5T39 -66T34 -116Q34 -146 42 -164T59 -193Q67 -203 73 -208T80 -219Q80 -227 71 -238T50 -260T25 -278T6 -285Z" />
<glyph unicode="&#xb6;" horiz-adv-x="589" d="M142 -288Q82 -288 43 -258T4 -177Q4 -140 20 -111T63 -65T126 -48Q158 -48 176 -63T194 -101Q194 -126 179 -141T135 -157Q125 -157 115 -152T97 -140Q89 -134 82 -129T67 -123Q57 -123 51 -136T45 -162Q45 -206
74 -226T140 -246Q191 -246 233 -215T295 -120L362 100Q364 108 363 113T354 119Q276 119 219 143T132 212T101 322Q101 418 138 481T242 579T395 630T580 645Q594 645 612 645T647 645T675 642Q682 641 684 636T686 624Q685 617 682 610T671 603Q669 603 656 603T627
605T597 606T582 607Q575 607 569 603T560 589L351 -98Q329 -171 297 -212T226 -271T142 -288ZM358 156Q362 156 365 159T371 169L502 584Q502 585 502 585T502 586Q502 590 497 591T487 593Q470 593 453 588T419 564T382 504T341 392Q307 280 307 224Q307 188
320 172T358 156Z" />
<glyph unicode="&#xb7;" horiz-adv-x="201" d="M93 150Q74 150 61 165T48 200Q48 218 57 233T80 256T113 265Q133 265 145 250T158 215Q158 197 150 183T126 159T93 150Z" />
<glyph unicode="&#xb8;" horiz-adv-x="200" d="M-45 -281Q-68 -281 -85 -274T-112 -254T-122 -225Q-122 -198 -102 -198Q-93 -198 -84 -203T-68 -217Q-57 -226 -46 -234T-18 -243Q-7 -243 0 -235T8 -215Q8 -198 -2 -187T-23 -163Q-33 -152 -42 -139T-51 -108Q-51
-91 -34 -68T8 -22T61 17H91Q45 -20 30 -47T15 -88Q15 -98 24 -109T45 -132Q56 -143 65 -154T74 -180Q74 -196 60 -213T26 -246T-13 -271T-45 -281Z" />
<glyph unicode="&#xb9;" horiz-adv-x="244" d="M119 437Q115 437 114 441T113 449Q114 455 117 460T128 466Q148 468 167 474T196 512L248 683Q254 703 243 711T205 730Q198 733 198 740Q198 753 210 755Q247 761 277 768T317 780Q319 781 321 781T324 782Q333
782 328 768Q324 758 317 740T301 698L244 512Q236 483 243 477T280 466Q285 465 287 461T287 451Q286 446 282 442T272 437Q251 437 238 438T215 441T197 442Q183 442 166 440T119 437Z" />
<glyph unicode="&#xba;" horiz-adv-x="307" d="M49 161Q45 161 43 165T41 173Q41 180 50 188T68 196H262Q267 196 269 193T271 183Q271 176 259 169T236 161H49ZM175 268Q134 268 111 291T88 365Q88 401 107 437T163 499T254 524Q295 524 317 502T340 441Q340
398 322 358T266 293T175 268ZM187 288Q208 288 227 302T260 339T282 386T291 430Q291 451 287 467T272 492T246 502Q225 502 206 488T170 452T145 404T136 358Q136 340 142 324T159 298T187 288Z" />
<glyph unicode="&#xbb;" horiz-adv-x="700" d="M371 381Q379 381 389 374T402 363Q418 347 443 327T495 285T548 247T590 219Q594 217 597 214T601 204Q601 199 597 196T590 191Q544 167 490 139T384 81T296 29Q291 25 285 22T268 19Q263 19 265 27T275 43Q308
72 347 102T423 158T485 200Q492 204 491 207T485 216Q468 234 446 258T403 308T368 358Q364 365 365 373T371 381ZM160 381Q168 381 178 374T191 363Q207 347 232 327T284 285T337 247T379 219Q383 217 386 214T390 204Q390 199 386 196T379 191Q333 167 279 139T173
81T85 29Q80 25 74 22T57 19Q52 19 54 27T64 43Q97 72 136 102T212 158T274 200Q281 204 280 207T274 216Q257 234 235 258T192 308T157 358Q153 365 154 373T160 381Z" />
<glyph unicode="&#xbc;" horiz-adv-x="627" d="M69 277Q65 277 64 281T63 289Q64 295 67 300T78 306Q98 308 117 314T146 352L198 523Q204 543 193 551T155 570Q148 573 148 580Q148 593 160 595Q197 601 227 608T267 620Q269 621 271 621T274 622Q283 622 278
608Q274 598 267 580T251 538L194 352Q186 323 193 317T230 306Q235 305 237 301T237 291Q236 286 232 282T222 277Q201 277 188 278T165 281T147 282Q133 282 116 280T69 277ZM61 -29Q55 -29 51 -24T50 -14L656 654Q666 665 674 668T693 671Q704 671 707 665T705
654L99 -14Q91 -24 82 -26T61 -29ZM451 -8Q442 -8 445 0L469 83Q473 97 462 97Q428 97 401 96T329 93Q326 93 326 96T326 101Q369 143 412 184T498 265Q510 276 530 293T572 330Q577 334 581 338T589 342Q592 342 593 339T593 334L535 136Q533 132 537 132Q563
132 572 132T591 133Q595 133 595 129Q595 122 586 111T574 99Q570 99 557 99T534 100Q523 100 521 91L499 19Q497 13 490 9T475 0T460 -6T451 -8ZM389 133H478Q485 133 487 138L523 256Q524 258 522 258T518 257Q493 235 471 215T429 176T390 138Q385 133 389
133Z" />
<glyph unicode="&#xbd;" horiz-adv-x="659" d="M69 277Q65 277 64 281T63 289Q64 295 67 300T78 306Q98 308 117 314T146 352L198 523Q204 543 193 551T155 570Q148 573 148 580Q148 593 160 595Q197 601 227 608T267 620Q269 621 271 621T274 622Q283 622 278
608Q274 598 267 580T251 538L194 352Q186 323 193 317T230 306Q235 305 237 301T237 291Q236 286 232 282T222 277Q201 277 188 278T165 281T147 282Q133 282 116 280T69 277ZM58 -29Q52 -29 48 -24T47 -14L653 654Q663 665 671 668T690 671Q701 671 704 665T702
654L96 -14Q88 -24 79 -26T58 -29ZM534 -17Q503 -15 479 -14T434 -13Q420 -13 406 -13T375 -14T339 -16Q336 -16 336 -13Q336 -6 344 0L457 94Q500 129 525 169T551 230Q551 251 538 262T504 273Q485 273 465 263T427 231Q424 228 422 227T418 225Q415 225 414
228T414 236Q420 253 438 273T485 308T545 323Q573 323 592 305T611 257Q611 221 592 198T550 151Q538 139 519 122T480 88T444 59T425 44Q422 41 426 40T435 38H499Q520 38 543 52T583 88Q585 92 590 94T599 96Q601 96 601 93T599 87Q588 69 579 54T562 26T546
-4Q542 -12 539 -14T534 -17Z" />
<glyph unicode="&#xbe;" horiz-adv-x="642" d="M130 274Q112 274 95 278T77 298Q77 307 87 321T104 335Q110 335 117 329T135 316Q142 313 150 311T169 308Q192 308 209 320T236 352T246 390Q246 410 235 422T200 435Q193 435 179 432T162 428Q158 428 154 432T154
439Q166 447 177 450T198 457T216 464Q241 478 261 496T281 537Q281 554 271 562T246 570Q226 570 209 563T168 539Q165 537 163 535T158 533Q154 533 153 537T153 545Q172 569 193 585T237 609T279 617Q305 616 321 602T338 558Q338 529 314 507T258 472Q255 471
254 469T256 467Q279 467 291 450T303 409Q303 382 286 358T242 315T185 285T130 274ZM81 -29Q75 -29 71 -24T70 -14L676 654Q686 665 694 668T713 671Q724 671 727 665T725 654L119 -14Q111 -24 102 -26T81 -29ZM466 -8Q457 -8 460 0L484 83Q488 97 477 97Q443
97 416 96T344 93Q341 93 341 96T341 101Q384 143 427 184T513 265Q525 276 545 293T587 330Q592 334 596 338T604 342Q607 342 608 339T608 334L550 136Q548 132 552 132Q578 132 587 132T606 133Q610 133 610 129Q610 122 601 111T589 99Q585 99 572 99T549 100Q538
100 536 91L514 19Q512 13 505 9T490 0T475 -6T466 -8ZM404 133H493Q500 133 502 138L538 256Q539 258 537 258T533 257Q508 235 486 215T444 176T405 138Q400 133 404 133Z" />
<glyph unicode="&#xbf;" horiz-adv-x="316" d="M192 307Q195 307 205 292T223 256T232 215Q232 189 223 168T187 126T102 79Q64 61 35 31T5 -43Q5 -78 27 -96T87 -114Q100 -114 107 -111T121 -106Q130 -103 135 -100T148 -97Q159 -97 165 -104T172 -124Q172 -144
152 -161T104 -178Q64 -178 35 -156T-10 -97T-26 -13Q-26 23 -16 49T11 94T53 126L141 171Q171 187 181 202T192 242Q192 252 190 261T186 279Q184 285 183 290T181 301Q181 305 185 306T192 307ZM208 497Q226 497 238 483T250 450Q250 424 232 406T189 388Q170
388 158 402T146 435Q146 460 164 478T208 497Z" />
<glyph unicode="&#xc0;" horiz-adv-x="658" d="M-36 -5Q-48 -5 -53 -2T-60 8Q-61 16 -52 20T-26 29Q2 37 25 48T69 74T105 108Q179 190 240 266T359 417T476 569Q488 584 497 596T512 615T522 622Q543 622 550 629T570 649Q584 665 589 670T600 676Q605 676 607
670T605 644L501 122Q491 74 499 54T536 25Q552 21 560 18T568 7Q568 1 561 -2T537 -5Q524 -5 504 -4T460 -1T416 1Q398 1 380 1T345 1T317 0Q296 0 293 12Q292 19 300 24T321 32Q354 38 372 45T401 68T419 112L450 231Q454 246 445 252T421 258L309 256Q293 256
284 253T266 238L163 102Q145 78 144 65T150 45T170 34Q181 30 188 25T195 12Q195 5 187 2T167 -1Q154 -1 135 0T89 1Q58 1 23 -2T-36 -5ZM334 290L441 291Q452 291 458 297T468 319L516 538Q519 550 519 555T513 561Q509 561 504 559T494 549L316 312Q309 302
308 296T334 290ZM633 697Q631 697 627 699T615 706Q586 729 550 755T485 808Q472 820 472 827Q472 834 483 839T509 847T530 850Q548 850 557 837Q577 808 596 778T634 718Q639 710 639 703Q639 697 633 697Z" />
<glyph unicode="&#xc1;" horiz-adv-x="658" d="M-36 -5Q-48 -5 -53 -2T-60 8Q-61 16 -52 20T-26 29Q2 37 25 48T69 74T105 108Q179 190 240 266T359 417T476 569Q488 584 497 596T512 615T522 622Q543 622 550 629T570 649Q584 665 589 670T600 676Q605 676 607
670T605 644L501 122Q491 74 499 54T536 25Q552 21 560 18T568 7Q568 1 561 -2T537 -5Q524 -5 504 -4T460 -1T416 1Q398 1 380 1T345 1T317 0Q296 0 293 12Q292 19 300 24T321 32Q354 38 372 45T401 68T419 112L450 231Q454 246 445 252T421 258L309 256Q293 256
284 253T266 238L163 102Q145 78 144 65T150 45T170 34Q181 30 188 25T195 12Q195 5 187 2T167 -1Q154 -1 135 0T89 1Q58 1 23 -2T-36 -5ZM334 290L441 291Q452 291 458 297T468 319L516 538Q519 550 519 555T513 561Q509 561 504 559T494 549L316 312Q309 302
308 296T334 290ZM567 697Q561 697 561 703Q561 710 566 718Q584 748 603 778T643 837Q652 850 670 850Q677 850 691 847T716 839T728 827Q728 820 715 808Q686 782 650 756T585 706Q578 701 574 699T567 697Z" />
<glyph unicode="&#xc2;" horiz-adv-x="658" d="M-36 -5Q-48 -5 -53 -2T-60 8Q-61 16 -52 20T-26 29Q2 37 25 48T69 74T105 108Q179 190 240 266T359 417T476 569Q488 584 497 596T512 615T522 622Q543 622 550 629T570 649Q584 665 589 670T600 676Q605 676 607
670T605 644L501 122Q491 74 499 54T536 25Q552 21 560 18T568 7Q568 1 561 -2T537 -5Q524 -5 504 -4T460 -1T416 1Q398 1 380 1T345 1T317 0Q296 0 293 12Q292 19 300 24T321 32Q354 38 372 45T401 68T419 112L450 231Q454 246 445 252T421 258L309 256Q293 256
284 253T266 238L163 102Q145 78 144 65T150 45T170 34Q181 30 188 25T195 12Q195 5 187 2T167 -1Q154 -1 135 0T89 1Q58 1 23 -2T-36 -5ZM334 290L441 291Q452 291 458 297T468 319L516 538Q519 550 519 555T513 561Q509 561 504 559T494 549L316 312Q309 302
308 296T334 290ZM474 696Q459 696 459 706Q459 712 466 718L590 800Q609 812 618 817T635 822Q645 822 655 815T672 800L744 718Q747 714 748 712T750 706Q750 695 736 695Q730 695 711 705T671 728T638 750Q626 759 612 751Q603 746 583 737T539 719T497 703T474
696Z" />
<glyph unicode="&#xc3;" horiz-adv-x="658" d="M-36 -5Q-48 -5 -53 -2T-60 8Q-61 16 -52 20T-26 29Q2 37 25 48T69 74T105 108Q179 190 240 266T359 417T476 569Q488 584 497 596T512 615T522 622Q543 622 550 629T570 649Q584 665 589 670T600 676Q605 676 607
670T605 644L501 122Q491 74 499 54T536 25Q552 21 560 18T568 7Q568 1 561 -2T537 -5Q524 -5 504 -4T460 -1T416 1Q398 1 380 1T345 1T317 0Q296 0 293 12Q292 19 300 24T321 32Q354 38 372 45T401 68T419 112L450 231Q454 246 445 252T421 258L309 256Q293 256
284 253T266 238L163 102Q145 78 144 65T150 45T170 34Q181 30 188 25T195 12Q195 5 187 2T167 -1Q154 -1 135 0T89 1Q58 1 23 -2T-36 -5ZM334 290L441 291Q452 291 458 297T468 319L516 538Q519 550 519 555T513 561Q509 561 504 559T494 549L316 312Q309 302
308 296T334 290ZM484 692Q479 692 474 697T468 708Q468 712 477 725T499 753T527 780T550 792Q567 792 585 792T618 789Q635 788 652 787T682 785Q693 785 703 791T721 804Q728 811 733 817T741 824Q749 824 754 820T760 807Q760 804 756 799T746 789Q734 777
722 761T699 733Q693 726 683 723T670 719Q664 719 648 720T610 723T570 726T539 727Q532 727 522 724T506 715Q497 708 492 700T484 692Z" />
<glyph unicode="&#xc4;" horiz-adv-x="658" d="M-36 -5Q-48 -5 -53 -2T-60 8Q-61 16 -52 20T-26 29Q2 37 25 48T69 74T105 108Q179 190 240 266T359 417T476 569Q488 584 497 596T512 615T522 622Q543 622 550 629T570 649Q584 665 589 670T600 676Q605 676 607
670T605 644L501 122Q491 74 499 54T536 25Q552 21 560 18T568 7Q568 1 561 -2T537 -5Q524 -5 504 -4T460 -1T416 1Q398 1 380 1T345 1T317 0Q296 0 293 12Q292 19 300 24T321 32Q354 38 372 45T401 68T419 112L450 231Q454 246 445 252T421 258L309 256Q293 256
284 253T266 238L163 102Q145 78 144 65T150 45T170 34Q181 30 188 25T195 12Q195 5 187 2T167 -1Q154 -1 135 0T89 1Q58 1 23 -2T-36 -5ZM334 290L441 291Q452 291 458 297T468 319L516 538Q519 550 519 555T513 561Q509 561 504 559T494 549L316 312Q309 302
308 296T334 290ZM704 700Q688 700 678 712T667 739Q667 764 683 782T725 800Q741 800 751 787T761 757Q761 742 753 729T732 708T704 700ZM503 700Q487 700 477 712T466 739Q466 764 482 782T524 800Q540 800 550 787T560 757Q560 735 543 718T503 700Z" />
<glyph unicode="&#xc5;" horiz-adv-x="658" d="M-36 -5Q-48 -5 -53 -2T-60 8Q-61 16 -52 20T-26 29Q2 37 25 48T69 74T105 108Q179 190 240 266T359 417T476 569Q488 584 497 596T512 615T522 622Q543 622 550 629T570 649Q584 665 589 670T600 676Q605 676 607
670T605 644L501 122Q491 74 499 54T536 25Q552 21 560 18T568 7Q568 1 561 -2T537 -5Q524 -5 504 -4T460 -1T416 1Q398 1 380 1T345 1T317 0Q296 0 293 12Q292 19 300 24T321 32Q354 38 372 45T401 68T419 112L450 231Q454 246 445 252T421 258L309 256Q293 256
284 253T266 238L163 102Q145 78 144 65T150 45T170 34Q181 30 188 25T195 12Q195 5 187 2T167 -1Q154 -1 135 0T89 1Q58 1 23 -2T-36 -5ZM334 290L441 291Q452 291 458 297T468 319L516 538Q519 550 519 555T513 561Q509 561 504 559T494 549L316 312Q309 302
308 296T334 290ZM611 700Q586 700 564 714T541 754Q541 793 570 818T639 844Q656 844 672 837T698 817T709 786Q709 747 680 724T611 700ZM620 722Q643 722 655 739T667 783Q667 799 657 810T632 821Q609 821 596 803T583 758Q583 743 594 733T620 722Z" />
<glyph unicode="&#xc6;" horiz-adv-x="800" d="M-38 -5Q-50 -5 -56 -3T-62 6Q-60 13 -51 18T-24 28Q2 36 37 63T102 126L495 593Q501 600 498 605T481 613L405 626Q392 629 392 637Q392 642 398 646T413 651Q433 651 460 650T518 649T581 648Q616 648 656 649T735
650Q778 650 804 653T846 658T874 661Q879 661 884 659T888 648Q886 623 879 591T866 538Q863 527 858 524T848 520Q843 520 842 522T841 530Q841 547 840 565T833 593Q826 607 812 612T780 618H658Q647 618 640 610T627 592Q613 563 597 520T568 434T547 364Q541
342 542 333T552 323Q586 323 607 323T647 326Q662 328 672 333T690 345Q698 353 703 362T712 381Q716 389 722 393T735 398Q739 398 742 394T742 382Q725 344 718 309T701 235Q699 228 696 223T687 218Q678 218 676 227T673 241Q673 264 663 276T641 288Q613 289
592 289T545 290Q535 290 527 282T512 251Q501 215 493 186T473 113Q464 82 470 59T508 35H605Q634 35 654 42T691 62Q705 74 716 89T739 124Q743 130 748 134T758 139Q764 139 766 134T766 123Q758 99 750 80T734 44T717 12Q714 6 710 1T698 -5Q659 -5 619 -4T540
-2T466 0T399 1Q378 1 363 0T332 -3T290 -5Q278 -5 272 -3T267 6Q271 18 303 24Q340 31 362 47T395 99Q407 140 420 189T443 271Q445 279 444 284T428 289H304Q294 289 286 283T269 266Q251 243 233 220T194 170T148 112Q126 85 128 69T144 44T175 30Q190 26 195
22T199 10Q198 4 190 2T169 -1Q156 -1 132 0T81 1Q50 1 18 -2T-38 -5ZM337 322H443Q454 322 456 324T462 337L539 586Q541 591 541 593T538 596Q534 596 527 587L331 337Q324 327 324 325T337 322Z" />
<glyph unicode="&#xc7;" horiz-adv-x="631" d="M330 -14Q289 -14 245 3T163 54T102 135T78 240Q78 330 110 407T200 542T330 632T485 665Q513 665 540 661T596 646Q615 640 629 635T653 630Q658 630 663 632T674 638Q680 640 686 642T697 645Q706 645 706 639T704
629Q693 614 679 589T654 537T637 487Q636 480 630 474T619 467Q610 467 607 475T604 493Q609 516 608 539T589 585Q572 607 545 620T482 634Q439 634 394 614T309 558T236 471T185 361T166 232Q166 171 183 130T229 64T291 28T357 17Q408 17 440 33T494 77T536
139Q541 147 546 152T559 158Q564 158 565 153T566 138Q566 131 557 108T535 57T511 11T494 -9Q490 -9 485 -6T475 2Q471 6 466 8T454 11Q447 11 437 8T413 0Q398 -5 377 -9T330 -14ZM252 -281Q229 -281 212 -274T185 -254T175 -225Q175 -198 195 -198Q204 -198
213 -203T229 -217Q240 -226 251 -234T279 -243Q290 -243 297 -235T305 -215Q305 -198 295 -187T274 -163Q264 -152 255 -139T246 -108Q246 -91 263 -68T305 -22T358 17H388Q342 -20 327 -47T312 -88Q312 -98 321 -109T342 -132Q353 -143 362 -154T371 -180Q371
-196 357 -213T323 -246T284 -271T252 -281Z" />
<glyph unicode="&#xc8;" horiz-adv-x="576" d="M-8 -5Q-20 -5 -26 -3T-32 6Q-32 18 4 24Q54 32 75 48T107 99L244 549Q258 592 245 605T188 625Q173 627 168 631T162 642Q162 648 171 650T193 653Q201 653 221 652T267 651T314 650H475Q530 650 558 652T598 657T612
660Q616 660 619 656T623 647Q623 641 617 626T604 587T593 535Q592 525 587 521T576 516Q571 516 568 523T565 541Q568 587 557 604T506 622H384Q360 622 350 616T335 592L268 380Q262 362 265 355T284 349L408 352Q434 353 449 363T477 389Q484 397 492 408T510
420Q518 420 518 412T514 392Q505 375 499 360T487 331Q481 315 477 298T467 258Q466 251 463 244T454 237Q446 237 444 248T441 264Q441 295 431 307T403 320L288 322Q271 322 259 318T240 291L189 109Q175 58 183 42T223 26H378Q403 26 422 34T458 53Q473 64
486 79T512 116Q516 122 520 128T530 134Q535 134 536 127T537 114Q537 105 530 86T514 48T498 16Q492 6 485 1T465 -5Q424 -5 385 -5T308 -3T237 -1T172 0T112 1Q88 1 70 0T35 -3T-8 -5ZM461 697Q459 697 455 699T443 706Q414 729 378 755T313 808Q300 820 300
827Q300 834 311 839T337 847T358 850Q376 850 385 837Q405 808 424 778T462 718Q467 710 467 703Q467 697 461 697Z" />
<glyph unicode="&#xc9;" horiz-adv-x="576" d="M-8 -5Q-20 -5 -26 -3T-32 6Q-32 18 4 24Q54 32 75 48T107 99L244 549Q258 592 245 605T188 625Q173 627 168 631T162 642Q162 648 171 650T193 653Q201 653 221 652T267 651T314 650H475Q530 650 558 652T598 657T612
660Q616 660 619 656T623 647Q623 641 617 626T604 587T593 535Q592 525 587 521T576 516Q571 516 568 523T565 541Q568 587 557 604T506 622H384Q360 622 350 616T335 592L268 380Q262 362 265 355T284 349L408 352Q434 353 449 363T477 389Q484 397 492 408T510
420Q518 420 518 412T514 392Q505 375 499 360T487 331Q481 315 477 298T467 258Q466 251 463 244T454 237Q446 237 444 248T441 264Q441 295 431 307T403 320L288 322Q271 322 259 318T240 291L189 109Q175 58 183 42T223 26H378Q403 26 422 34T458 53Q473 64
486 79T512 116Q516 122 520 128T530 134Q535 134 536 127T537 114Q537 105 530 86T514 48T498 16Q492 6 485 1T465 -5Q424 -5 385 -5T308 -3T237 -1T172 0T112 1Q88 1 70 0T35 -3T-8 -5ZM395 697Q389 697 389 703Q389 710 394 718Q412 748 431 778T471 837Q480
850 498 850Q505 850 519 847T544 839T556 827Q556 820 543 808Q514 782 478 756T413 706Q406 701 402 699T395 697Z" />
<glyph unicode="&#xca;" horiz-adv-x="576" d="M-8 -5Q-20 -5 -26 -3T-32 6Q-32 18 4 24Q54 32 75 48T107 99L244 549Q258 592 245 605T188 625Q173 627 168 631T162 642Q162 648 171 650T193 653Q201 653 221 652T267 651T314 650H475Q530 650 558 652T598 657T612
660Q616 660 619 656T623 647Q623 641 617 626T604 587T593 535Q592 525 587 521T576 516Q571 516 568 523T565 541Q568 587 557 604T506 622H384Q360 622 350 616T335 592L268 380Q262 362 265 355T284 349L408 352Q434 353 449 363T477 389Q484 397 492 408T510
420Q518 420 518 412T514 392Q505 375 499 360T487 331Q481 315 477 298T467 258Q466 251 463 244T454 237Q446 237 444 248T441 264Q441 295 431 307T403 320L288 322Q271 322 259 318T240 291L189 109Q175 58 183 42T223 26H378Q403 26 422 34T458 53Q473 64
486 79T512 116Q516 122 520 128T530 134Q535 134 536 127T537 114Q537 105 530 86T514 48T498 16Q492 6 485 1T465 -5Q424 -5 385 -5T308 -3T237 -1T172 0T112 1Q88 1 70 0T35 -3T-8 -5ZM302 696Q287 696 287 706Q287 712 294 718L418 800Q437 812 446 817T463
822Q473 822 483 815T500 800L572 718Q575 714 576 712T578 706Q578 695 564 695Q558 695 539 705T499 728T466 750Q454 759 440 751Q431 746 411 737T367 719T325 703T302 696Z" />
<glyph unicode="&#xcb;" horiz-adv-x="576" d="M-8 -5Q-20 -5 -26 -3T-32 6Q-32 18 4 24Q54 32 75 48T107 99L244 549Q258 592 245 605T188 625Q173 627 168 631T162 642Q162 648 171 650T193 653Q201 653 221 652T267 651T314 650H475Q530 650 558 652T598 657T612
660Q616 660 619 656T623 647Q623 641 617 626T604 587T593 535Q592 525 587 521T576 516Q571 516 568 523T565 541Q568 587 557 604T506 622H384Q360 622 350 616T335 592L268 380Q262 362 265 355T284 349L408 352Q434 353 449 363T477 389Q484 397 492 408T510
420Q518 420 518 412T514 392Q505 375 499 360T487 331Q481 315 477 298T467 258Q466 251 463 244T454 237Q446 237 444 248T441 264Q441 295 431 307T403 320L288 322Q271 322 259 318T240 291L189 109Q175 58 183 42T223 26H378Q403 26 422 34T458 53Q473 64
486 79T512 116Q516 122 520 128T530 134Q535 134 536 127T537 114Q537 105 530 86T514 48T498 16Q492 6 485 1T465 -5Q424 -5 385 -5T308 -3T237 -1T172 0T112 1Q88 1 70 0T35 -3T-8 -5ZM532 700Q516 700 506 712T495 739Q495 764 511 782T553 800Q569 800 579
787T589 757Q589 742 581 729T560 708T532 700ZM331 700Q315 700 305 712T294 739Q294 764 310 782T352 800Q368 800 378 787T388 757Q388 735 371 718T331 700Z" />
<glyph unicode="&#xcc;" horiz-adv-x="362" d="M4 -5Q-8 -5 -14 -3T-20 6Q-20 18 16 24Q53 31 77 47T112 98L250 550Q261 585 252 600T209 622Q194 625 190 630T185 642Q185 648 194 650T215 653Q240 653 256 652T287 651T323 650Q343 650 356 650T385 652T425
653Q449 653 449 642Q449 635 439 630T412 622Q388 618 371 610T342 588T324 550L186 98Q179 75 183 60T201 37T237 24Q252 21 257 17T262 6Q262 0 253 -2T232 -5Q207 -5 191 -4T161 -1T124 0Q90 0 66 -2T4 -5ZM366 697Q364 697 360 699T348 706Q319 729 283 755T218
808Q205 820 205 827Q205 834 216 839T242 847T263 850Q281 850 290 837Q310 808 329 778T367 718Q372 710 372 703Q372 697 366 697Z" />
<glyph unicode="&#xcd;" horiz-adv-x="362" d="M4 -5Q-8 -5 -14 -3T-20 6Q-20 18 16 24Q53 31 77 47T112 98L250 550Q261 585 252 600T209 622Q194 625 190 630T185 642Q185 648 194 650T215 653Q240 653 256 652T287 651T323 650Q343 650 356 650T385 652T425
653Q449 653 449 642Q449 635 439 630T412 622Q388 618 371 610T342 588T324 550L186 98Q179 75 183 60T201 37T237 24Q252 21 257 17T262 6Q262 0 253 -2T232 -5Q207 -5 191 -4T161 -1T124 0Q90 0 66 -2T4 -5ZM300 697Q294 697 294 703Q294 710 299 718Q317 748
336 778T376 837Q385 850 403 850Q410 850 424 847T449 839T461 827Q461 820 448 808Q419 782 383 756T318 706Q311 701 307 699T300 697Z" />
<glyph unicode="&#xce;" horiz-adv-x="362" d="M4 -5Q-8 -5 -14 -3T-20 6Q-20 18 16 24Q53 31 77 47T112 98L250 550Q261 585 252 600T209 622Q194 625 190 630T185 642Q185 648 194 650T215 653Q240 653 256 652T287 651T323 650Q343 650 356 650T385 652T425
653Q449 653 449 642Q449 635 439 630T412 622Q388 618 371 610T342 588T324 550L186 98Q179 75 183 60T201 37T237 24Q252 21 257 17T262 6Q262 0 253 -2T232 -5Q207 -5 191 -4T161 -1T124 0Q90 0 66 -2T4 -5ZM207 696Q192 696 192 706Q192 712 199 718L323 800Q342
812 351 817T368 822Q378 822 388 815T405 800L477 718Q480 714 481 712T483 706Q483 695 469 695Q463 695 444 705T404 728T371 750Q359 759 345 751Q336 746 316 737T272 719T230 703T207 696Z" />
<glyph unicode="&#xcf;" horiz-adv-x="362" d="M4 -5Q-8 -5 -14 -3T-20 6Q-20 18 16 24Q53 31 77 47T112 98L250 550Q261 585 252 600T209 622Q194 625 190 630T185 642Q185 648 194 650T215 653Q240 653 256 652T287 651T323 650Q343 650 356 650T385 652T425
653Q449 653 449 642Q449 635 439 630T412 622Q388 618 371 610T342 588T324 550L186 98Q179 75 183 60T201 37T237 24Q252 21 257 17T262 6Q262 0 253 -2T232 -5Q207 -5 191 -4T161 -1T124 0Q90 0 66 -2T4 -5ZM437 700Q421 700 411 712T400 739Q400 764 416 782T458
800Q474 800 484 787T494 757Q494 742 486 729T465 708T437 700ZM236 700Q220 700 210 712T199 739Q199 764 215 782T257 800Q273 800 283 787T293 757Q293 735 276 718T236 700Z" />
<glyph unicode="&#xd0;" horiz-adv-x="752" d="M103 317Q97 317 96 324T95 335Q97 342 106 347T123 353H459Q464 353 467 349T466 339Q459 329 451 323T431 317H103ZM317 -7Q308 -7 276 -5T202 -2T124 0Q106 0 92 -1T61 -3T20 -5Q8 -5 2 -3T-4 6Q-4 22 32 24Q64
25 80 33T106 58T123 99L273 560Q281 584 268 595T231 612T186 622Q171 625 167 630T162 642Q162 648 171 650T192 653Q232 653 265 651T329 649Q349 649 363 650T393 653T432 655Q526 655 596 624T705 531T745 377Q745 301 714 232T626 109T491 24T317 -7ZM322
23Q397 23 458 54T565 138T634 258T659 395Q659 472 633 522T559 597T442 622Q400 622 382 617T359 600T347 571L211 141Q197 97 207 71T246 34T322 23Z" />
<glyph unicode="&#xd1;" horiz-adv-x="771" d="M16 -5Q4 -5 -2 -3T-8 6Q-8 13 -2 16T21 24Q68 35 87 53T113 95L252 526Q262 556 263 577T250 610T197 625Q180 627 169 631T158 644Q158 654 168 656T183 658Q210 658 233 657T275 655T312 653Q320 653 327 649T338
636L567 154Q569 150 575 143T587 135Q592 135 600 155Q604 166 614 196T637 267T663 354T689 439T709 508T719 544Q727 579 708 596T641 620Q614 624 614 639Q614 645 624 648T647 651Q674 651 699 649T754 647Q774 647 789 648T822 651T869 653Q892 653 892 642Q892
635 882 630T855 622Q830 620 816 615T792 595T772 555Q770 549 759 518T732 440T698 342T664 242T637 159T622 113Q618 97 619 88T626 66Q632 52 641 46T659 33Q667 27 672 22T678 6Q678 2 676 1T670 0Q652 0 638 -1T613 -3T593 -5Q577 -5 568 0T551 21Q533 59
515 100T478 184T440 270T402 355T363 438T324 515Q318 526 312 532T300 539Q295 539 288 531T276 505Q266 468 252 420T222 318T190 207T161 96Q154 68 169 50T223 23Q238 20 245 17T252 6Q252 0 243 -2T222 -5Q197 -5 182 -4T153 -1T123 0Q103 0 88 -1T57 -3T16
-5ZM420 692Q415 692 410 697T404 708Q404 712 413 725T435 753T463 780T486 792Q503 792 521 792T554 789Q571 788 588 787T618 785Q629 785 639 791T657 804Q664 811 669 817T677 824Q685 824 690 820T696 807Q696 804 692 799T682 789Q670 777 658 761T635 733Q629
726 619 723T606 719Q600 719 584 720T546 723T506 726T475 727Q468 727 458 724T442 715Q433 708 428 700T420 692Z" />
<glyph unicode="&#xd2;" horiz-adv-x="694" d="M303 -14Q225 -14 176 21T102 115T78 243Q78 315 103 389T179 525T301 626T468 664Q546 664 596 629T669 535T693 407Q693 335 668 261T592 125T470 24T303 -14ZM306 17Q360 17 406 42T490 111T554 210T594 326T608
445Q608 492 594 536T548 608T465 636Q413 636 367 610T284 540T220 441T178 324T163 205Q163 158 177 115T223 45T306 17ZM524 697Q522 697 518 699T506 706Q477 729 441 755T376 808Q363 820 363 827Q363 834 374 839T400 847T421 850Q439 850 448 837Q468 808
487 778T525 718Q530 710 530 703Q530 697 524 697Z" />
<glyph unicode="&#xd3;" horiz-adv-x="694" d="M303 -14Q225 -14 176 21T102 115T78 243Q78 315 103 389T179 525T301 626T468 664Q546 664 596 629T669 535T693 407Q693 335 668 261T592 125T470 24T303 -14ZM306 17Q360 17 406 42T490 111T554 210T594 326T608
445Q608 492 594 536T548 608T465 636Q413 636 367 610T284 540T220 441T178 324T163 205Q163 158 177 115T223 45T306 17ZM458 697Q452 697 452 703Q452 710 457 718Q475 748 494 778T534 837Q543 850 561 850Q568 850 582 847T607 839T619 827Q619 820 606 808Q577
782 541 756T476 706Q469 701 465 699T458 697Z" />
<glyph unicode="&#xd4;" horiz-adv-x="694" d="M303 -14Q225 -14 176 21T102 115T78 243Q78 315 103 389T179 525T301 626T468 664Q546 664 596 629T669 535T693 407Q693 335 668 261T592 125T470 24T303 -14ZM306 17Q360 17 406 42T490 111T554 210T594 326T608
445Q608 492 594 536T548 608T465 636Q413 636 367 610T284 540T220 441T178 324T163 205Q163 158 177 115T223 45T306 17ZM365 696Q350 696 350 706Q350 712 357 718L481 800Q500 812 509 817T526 822Q536 822 546 815T563 800L635 718Q638 714 639 712T641 706Q641
695 627 695Q621 695 602 705T562 728T529 750Q517 759 503 751Q494 746 474 737T430 719T388 703T365 696Z" />
<glyph unicode="&#xd5;" horiz-adv-x="694" d="M303 -14Q225 -14 176 21T102 115T78 243Q78 315 103 389T179 525T301 626T468 664Q546 664 596 629T669 535T693 407Q693 335 668 261T592 125T470 24T303 -14ZM306 17Q360 17 406 42T490 111T554 210T594 326T608
445Q608 492 594 536T548 608T465 636Q413 636 367 610T284 540T220 441T178 324T163 205Q163 158 177 115T223 45T306 17ZM375 692Q370 692 365 697T359 708Q359 712 368 725T390 753T418 780T441 792Q458 792 476 792T509 789Q526 788 543 787T573 785Q584 785
594 791T612 804Q619 811 624 817T632 824Q640 824 645 820T651 807Q651 804 647 799T637 789Q625 777 613 761T590 733Q584 726 574 723T561 719Q555 719 539 720T501 723T461 726T430 727Q423 727 413 724T397 715Q388 708 383 700T375 692Z" />
<glyph unicode="&#xd6;" horiz-adv-x="694" d="M303 -14Q225 -14 176 21T102 115T78 243Q78 315 103 389T179 525T301 626T468 664Q546 664 596 629T669 535T693 407Q693 335 668 261T592 125T470 24T303 -14ZM306 17Q360 17 406 42T490 111T554 210T594 326T608
445Q608 492 594 536T548 608T465 636Q413 636 367 610T284 540T220 441T178 324T163 205Q163 158 177 115T223 45T306 17ZM595 700Q579 700 569 712T558 739Q558 764 574 782T616 800Q632 800 642 787T652 757Q652 742 644 729T623 708T595 700ZM394 700Q378 700
368 712T357 739Q357 764 373 782T415 800Q431 800 441 787T451 757Q451 735 434 718T394 700Z" />
<glyph unicode="&#xd7;" horiz-adv-x="600" d="M462 53Q456 53 452 57L303 207Q300 211 296 207L153 64Q149 60 144 60T135 63Q131 67 122 79T113 102Q113 109 118 114L252 248Q255 251 255 253T251 258L130 379Q125 384 125 393Q125 405 132 418T141 434Q145
438 150 438T160 434L295 299Q299 295 300 296T302 298L446 441Q451 446 456 446Q462 446 465 441Q470 431 476 421T482 401Q482 393 475 386L344 255Q342 253 344 250L487 107Q492 102 492 95Q492 82 481 68T462 53Z" />
<glyph unicode="&#xd8;" horiz-adv-x="713" d="M106 -14Q99 -14 89 -9T79 4Q79 17 95 33L139 74L169 102L612 577L631 593L684 650Q689 655 696 660T710 666Q718 666 724 662T730 649Q730 633 711 612L660 557L634 534L196 63L167 36L133 7Q127 2 119 -6T106 -14ZM303
-14Q225 -14 176 21T102 115T78 243Q78 315 103 389T179 525T301 626T468 664Q546 664 596 629T669 535T693 407Q693 335 668 261T592 125T470 24T303 -14ZM306 17Q360 17 406 42T490 111T554 210T594 326T608 445Q608 492 594 536T548 608T465 636Q413 636 367
610T284 540T220 441T178 324T163 205Q163 158 177 115T223 45T306 17Z" />
<glyph unicode="&#xd9;" horiz-adv-x="700" d="M301 -14Q253 -14 212 1T143 49T109 131T123 251L213 547Q224 583 216 599T193 620Q162 629 162 642Q162 648 175 650T200 653Q221 653 242 652T289 650Q311 650 330 651T364 652Q388 652 387 641Q386 634 377 630T350
621Q334 617 315 597T284 535L196 238Q174 164 188 117T241 48T328 26Q401 26 450 60T532 150T582 269Q593 307 605 346T629 420T646 474Q666 534 667 563T657 604T620 622Q611 624 603 628T594 640Q594 646 603 648T625 651Q639 651 657 651T695 651T727 650Q742
650 755 650T781 652T803 653Q815 653 821 651T827 642Q826 630 789 622Q773 618 761 611T736 580T704 506Q683 451 662 387T615 254Q587 177 548 116T450 21T301 -14ZM539 697Q537 697 533 699T521 706Q492 729 456 755T391 808Q378 820 378 827Q378 834 389 839T415
847T436 850Q454 850 463 837Q483 808 502 778T540 718Q545 710 545 703Q545 697 539 697Z" />
<glyph unicode="&#xda;" horiz-adv-x="700" d="M301 -14Q253 -14 212 1T143 49T109 131T123 251L213 547Q224 583 216 599T193 620Q162 629 162 642Q162 648 175 650T200 653Q221 653 242 652T289 650Q311 650 330 651T364 652Q388 652 387 641Q386 634 377 630T350
621Q334 617 315 597T284 535L196 238Q174 164 188 117T241 48T328 26Q401 26 450 60T532 150T582 269Q593 307 605 346T629 420T646 474Q666 534 667 563T657 604T620 622Q611 624 603 628T594 640Q594 646 603 648T625 651Q639 651 657 651T695 651T727 650Q742
650 755 650T781 652T803 653Q815 653 821 651T827 642Q826 630 789 622Q773 618 761 611T736 580T704 506Q683 451 662 387T615 254Q587 177 548 116T450 21T301 -14ZM473 697Q467 697 467 703Q467 710 472 718Q490 748 509 778T549 837Q558 850 576 850Q583 850
597 847T622 839T634 827Q634 820 621 808Q592 782 556 756T491 706Q484 701 480 699T473 697Z" />
<glyph unicode="&#xdb;" horiz-adv-x="700" d="M301 -14Q253 -14 212 1T143 49T109 131T123 251L213 547Q224 583 216 599T193 620Q162 629 162 642Q162 648 175 650T200 653Q221 653 242 652T289 650Q311 650 330 651T364 652Q388 652 387 641Q386 634 377 630T350
621Q334 617 315 597T284 535L196 238Q174 164 188 117T241 48T328 26Q401 26 450 60T532 150T582 269Q593 307 605 346T629 420T646 474Q666 534 667 563T657 604T620 622Q611 624 603 628T594 640Q594 646 603 648T625 651Q639 651 657 651T695 651T727 650Q742
650 755 650T781 652T803 653Q815 653 821 651T827 642Q826 630 789 622Q773 618 761 611T736 580T704 506Q683 451 662 387T615 254Q587 177 548 116T450 21T301 -14ZM380 696Q365 696 365 706Q365 712 372 718L496 800Q515 812 524 817T541 822Q551 822 561 815T578
800L650 718Q653 714 654 712T656 706Q656 695 642 695Q636 695 617 705T577 728T544 750Q532 759 518 751Q509 746 489 737T445 719T403 703T380 696Z" />
<glyph unicode="&#xdc;" horiz-adv-x="700" d="M301 -14Q253 -14 212 1T143 49T109 131T123 251L213 547Q224 583 216 599T193 620Q162 629 162 642Q162 648 175 650T200 653Q221 653 242 652T289 650Q311 650 330 651T364 652Q388 652 387 641Q386 634 377 630T350
621Q334 617 315 597T284 535L196 238Q174 164 188 117T241 48T328 26Q401 26 450 60T532 150T582 269Q593 307 605 346T629 420T646 474Q666 534 667 563T657 604T620 622Q611 624 603 628T594 640Q594 646 603 648T625 651Q639 651 657 651T695 651T727 650Q742
650 755 650T781 652T803 653Q815 653 821 651T827 642Q826 630 789 622Q773 618 761 611T736 580T704 506Q683 451 662 387T615 254Q587 177 548 116T450 21T301 -14ZM610 700Q594 700 584 712T573 739Q573 764 589 782T631 800Q647 800 657 787T667 757Q667 742
659 729T638 708T610 700ZM409 700Q393 700 383 712T372 739Q372 764 388 782T430 800Q446 800 456 787T466 757Q466 735 449 718T409 700Z" />
<glyph unicode="&#xdd;" horiz-adv-x="575" d="M123 -5Q111 -5 105 -3T99 6Q99 13 108 17T135 24Q172 31 197 51T234 108L285 268Q292 288 291 304T284 342L228 548Q219 582 205 600T167 620Q153 622 146 628T139 642Q139 648 150 650T174 653Q195 653 222 652T282
650Q304 650 323 651T357 652Q369 652 374 650T380 641Q380 634 371 629T343 621Q315 617 308 606T310 560L352 401Q357 382 361 373T371 363Q376 363 385 372T407 395Q440 432 464 463T523 537Q556 578 555 595T524 620Q514 622 507 627T500 640Q500 646 509 648T530
651Q551 651 568 651T608 650Q637 650 663 651T706 653Q718 653 724 651T731 642Q731 635 721 632T697 623Q678 617 654 602T607 568T570 534Q545 508 514 473T453 405T404 352Q382 328 372 307T353 256L308 108Q298 74 310 53T356 24Q371 21 376 17T381 6Q381
0 372 -2T351 -5Q326 -5 310 -4T279 -1T243 0Q220 0 202 -1T166 -3T123 -5ZM406 697Q400 697 400 703Q400 710 405 718Q423 748 442 778T482 837Q491 850 509 850Q516 850 530 847T555 839T567 827Q567 820 554 808Q525 782 489 756T424 706Q417 701 413 699T406
697Z" />
<glyph unicode="&#xde;" horiz-adv-x="551" d="M4 -5Q-8 -5 -14 -3T-20 6Q-20 18 16 24Q53 31 77 47T112 98L250 550Q261 585 252 600T209 622Q194 625 190 630T185 642Q185 648 194 650T215 653Q240 653 256 652T287 651T323 650Q343 650 356 650T385 652T425
653Q449 653 449 642Q449 635 439 630T412 622Q388 618 371 610T343 588T324 550L307 498L302 527Q309 528 324 528T352 529Q415 529 462 506T537 441T564 341Q564 292 541 252T479 184T390 140T285 124Q275 124 259 126T243 137Q243 143 250 146T266 150Q280 152
295 153T323 159Q355 168 383 184T432 225T466 281T479 352Q479 394 461 427T411 480T338 500Q324 500 317 497T305 484T296 460L186 98Q176 63 190 47T237 24Q252 21 257 17T262 6Q262 0 253 -2T232 -5Q207 -5 191 -4T161 -1T124 0Q90 0 66 -2T4 -5Z" />
<glyph unicode="&#xdf;" horiz-adv-x="522" d="M-82 -288Q-107 -288 -127 -284T-160 -268T-173 -238Q-173 -220 -161 -207T-134 -194Q-126 -194 -119 -202T-102 -219Q-93 -227 -81 -234T-50 -241Q-18 -241 -4 -213T24 -124Q27 -109 34 -77T49 -7T64 66T76 118Q93
197 114 272T162 414Q203 517 254 581T367 675T503 706Q568 706 597 682T626 626Q626 602 607 576T559 525T498 475T443 431Q426 417 410 404T383 372T372 324Q372 316 378 297T393 258T407 227Q420 201 428 177T436 130Q436 93 417 69T381 31Q359 14 329 0T260
-14Q232 -14 215 -2T198 30Q198 50 206 63T226 76Q232 76 240 71T256 57Q266 49 278 42T313 34Q336 34 356 51T377 98Q377 116 370 139T349 188Q339 210 326 240T313 292Q313 317 324 341T358 390T417 443Q430 453 452 470T498 510T538 558T555 609Q555 635 534
655T470 675Q427 675 388 650T317 583T259 495T219 406Q199 350 179 283T142 143T112 0Q104 -44 89 -94T51 -188T-5 -260T-82 -288Z" />
<glyph unicode="&#xe0;" horiz-adv-x="491" d="M45 -14Q33 -14 21 -8T2 9T-6 30Q-6 66 18 113T85 213T184 315Q238 362 272 385T322 409Q338 409 350 395Q364 377 363 378T362 380Q364 380 365 381T368 386Q382 410 385 415T385 416Q391 426 397 426Q406 426 415
423T429 415T435 405Q435 400 428 380L316 83Q303 49 329 49Q347 49 372 66T417 109Q419 111 421 112T426 114Q430 114 431 112T433 103Q433 96 419 76T390 40Q362 14 334 0T281 -14Q271 -14 261 -8T245 7T238 25Q238 36 244 48Q240 39 243 48T255 76T274 116T291
153Q296 164 296 169T289 168Q228 100 185 60T108 3T45 -14ZM101 49Q123 49 166 85T265 187Q303 231 325 268T347 323Q347 331 334 342Q328 347 321 350T309 353Q291 353 260 335T202 292Q169 260 139 220T91 143T72 83Q72 68 80 59T101 49ZM352 475Q360 475 361
481T358 495L283 639Q278 649 272 656T258 664Q253 664 244 658T227 644T219 628Q219 624 223 617T237 598L329 490Q333 484 339 480T352 475Z" />
<glyph unicode="&#xe1;" horiz-adv-x="491" d="M45 -14Q33 -14 21 -8T2 9T-6 30Q-6 66 18 113T85 213T184 315Q238 362 272 385T322 409Q338 409 350 395Q364 377 363 378T362 380Q364 380 365 381T368 386Q382 410 385 415T385 416Q391 426 397 426Q406 426 415
423T429 415T435 405Q435 400 428 380L316 83Q303 49 329 49Q347 49 372 66T417 109Q419 111 421 112T426 114Q430 114 431 112T433 103Q433 96 419 76T390 40Q362 14 334 0T281 -14Q271 -14 261 -8T245 7T238 25Q238 36 244 48Q240 39 243 48T255 76T274 116T291
153Q296 164 296 169T289 168Q228 100 185 60T108 3T45 -14ZM101 49Q123 49 166 85T265 187Q303 231 325 268T347 323Q347 331 334 342Q328 347 321 350T309 353Q291 353 260 335T202 292Q169 260 139 220T91 143T72 83Q72 68 80 59T101 49ZM349 475Q341 475 340
481T343 495L418 639Q423 649 429 656T443 664Q448 664 457 658T474 644T482 628Q482 624 478 617T464 598L372 490Q368 484 362 480T349 475Z" />
<glyph unicode="&#xe2;" horiz-adv-x="491" d="M45 -14Q33 -14 21 -8T2 9T-6 30Q-6 66 18 113T85 213T184 315Q238 362 272 385T322 409Q338 409 350 395Q364 377 363 378T362 380Q364 380 365 381T368 386Q382 410 385 415T385 416Q391 426 397 426Q406 426 415
423T429 415T435 405Q435 400 428 380L316 83Q303 49 329 49Q347 49 372 66T417 109Q419 111 421 112T426 114Q430 114 431 112T433 103Q433 96 419 76T390 40Q362 14 334 0T281 -14Q271 -14 261 -8T245 7T238 25Q238 36 244 48Q240 39 243 48T255 76T274 116T291
153Q296 164 296 169T289 168Q228 100 185 60T108 3T45 -14ZM101 49Q123 49 166 85T265 187Q303 231 325 268T347 323Q347 331 334 342Q328 347 321 350T309 353Q291 353 260 335T202 292Q169 260 139 220T91 143T72 83Q72 68 80 59T101 49ZM410 641Q417 641 420
634T428 611Q432 596 436 574T443 528T449 488T451 467Q451 461 449 454T443 446Q434 446 426 463Q420 478 410 504T390 554Q387 562 381 554Q358 531 332 505T288 462Q283 457 276 452T265 446Q256 446 256 455Q256 459 258 463T263 473Q271 485 289 509T328 559T360
599Q373 615 387 628T410 641Z" />
<glyph unicode="&#xe3;" horiz-adv-x="491" d="M45 -14Q33 -14 21 -8T2 9T-6 30Q-6 66 18 113T85 213T184 315Q238 362 272 385T322 409Q338 409 350 395Q364 377 363 378T362 380Q364 380 365 381T368 386Q382 410 385 415T385 416Q391 426 397 426Q406 426 415
423T429 415T435 405Q435 400 428 380L316 83Q303 49 329 49Q347 49 372 66T417 109Q419 111 421 112T426 114Q430 114 431 112T433 103Q433 96 419 76T390 40Q362 14 334 0T281 -14Q271 -14 261 -8T245 7T238 25Q238 36 244 48Q240 39 243 48T255 76T274 116T291
153Q296 164 296 169T289 168Q228 100 185 60T108 3T45 -14ZM101 49Q123 49 166 85T265 187Q303 231 325 268T347 323Q347 331 334 342Q328 347 321 350T309 353Q291 353 260 335T202 292Q169 260 139 220T91 143T72 83Q72 68 80 59T101 49ZM243 469Q236 469 232
473T227 484Q227 488 237 501T261 529T290 556T314 567Q331 567 341 566T365 562Q382 561 395 560T421 558Q441 558 456 573Q467 584 472 590T480 597Q488 597 493 593T499 580Q499 577 494 571T481 558Q469 546 459 532T438 506Q432 499 422 496T409 492Q403 492
391 493T362 496T327 499T290 500Q278 500 270 493Q262 486 254 478T243 469Z" />
<glyph unicode="&#xe4;" horiz-adv-x="491" d="M45 -14Q33 -14 21 -8T2 9T-6 30Q-6 66 18 113T85 213T184 315Q238 362 272 385T322 409Q338 409 350 395Q364 377 363 378T362 380Q364 380 365 381T368 386Q382 410 385 415T385 416Q391 426 397 426Q406 426 415
423T429 415T435 405Q435 400 428 380L316 83Q303 49 329 49Q347 49 372 66T417 109Q419 111 421 112T426 114Q430 114 431 112T433 103Q433 96 419 76T390 40Q362 14 334 0T281 -14Q271 -14 261 -8T245 7T238 25Q238 36 244 48Q240 39 243 48T255 76T274 116T291
153Q296 164 296 169T289 168Q228 100 185 60T108 3T45 -14ZM101 49Q123 49 166 85T265 187Q303 231 325 268T347 323Q347 331 334 342Q328 347 321 350T309 353Q291 353 260 335T202 292Q169 260 139 220T91 143T72 83Q72 68 80 59T101 49ZM450 513Q435 513 425
525T415 552Q415 568 422 582T442 604T471 613Q487 613 496 600T505 570Q505 548 489 531T450 513ZM279 513Q264 513 254 525T244 552Q244 568 251 582T271 604T300 613Q316 613 325 600T334 570Q334 548 318 531T279 513Z" />
<glyph unicode="&#xe5;" horiz-adv-x="491" d="M45 -14Q33 -14 21 -8T2 9T-6 30Q-6 66 18 113T85 213T184 315Q238 362 272 385T322 409Q338 409 350 395Q364 377 363 378T362 380Q364 380 365 381T368 386Q382 410 385 415T385 416Q391 426 397 426Q406 426 415
423T429 415T435 405Q435 400 428 380L316 83Q303 49 329 49Q347 49 372 66T417 109Q419 111 421 112T426 114Q430 114 431 112T433 103Q433 96 419 76T390 40Q362 14 334 0T281 -14Q271 -14 261 -8T245 7T238 25Q238 36 244 48Q240 39 243 48T255 76T274 116T291
153Q296 164 296 169T289 168Q228 100 185 60T108 3T45 -14ZM101 49Q123 49 166 85T265 187Q303 231 325 268T347 323Q347 331 334 342Q328 347 321 350T309 353Q291 353 260 335T202 292Q169 260 139 220T91 143T72 83Q72 68 80 59T101 49ZM356 493Q331 493 317
509T302 551Q302 581 320 605T363 645T412 660Q437 660 452 645T468 605Q468 570 450 545T405 507T356 493ZM371 521Q385 521 398 531T421 558T431 592Q431 609 421 620T395 632Q381 632 368 622T347 596T339 560Q339 544 347 533T371 521Z" />
<glyph unicode="&#xe6;" horiz-adv-x="521" d="M44 -14Q33 -14 21 -8T1 8T-7 30Q-7 61 18 111T87 217T192 318Q246 360 288 380T362 407T418 414L331 360Q303 360 272 343T208 298Q170 265 140 224T92 142T75 74Q75 61 82 55T103 49Q119 49 153 76T235 183L273
151Q217 89 176 53T104 2T44 -14ZM303 -14Q280 -14 257 3T219 44T203 90Q200 140 217 196T265 301T340 382T434 414Q469 414 489 400T511 359Q513 328 491 302T434 258T364 229T303 219Q293 219 289 209Q282 185 278 165T276 113Q278 76 289 57T325 37Q359 37 384
58T423 99Q430 110 439 110Q450 110 450 98Q450 97 450 93T448 86Q429 55 406 33T358 -2T303 -14ZM308 242Q319 242 342 248T391 269T434 305T450 357Q449 370 443 380T421 391Q402 391 381 375T342 336T312 288T301 248Q301 242 308 242Z" />
<glyph unicode="&#xe7;" horiz-adv-x="313" d="M99 -15Q81 -15 62 -2T29 35T15 90Q16 126 27 169T59 256T111 335T184 392T276 414Q303 414 317 405T331 382Q331 366 322 350T301 333Q293 333 288 340T277 357Q271 368 262 377T236 387Q212 387 186 358T138 284T101
189T87 98Q87 65 100 53T135 41Q167 41 186 53T224 84Q231 91 234 94T244 97Q252 97 252 84Q252 76 240 60T206 27T157 -3T99 -15ZM28 -281Q5 -281 -12 -274T-39 -254T-49 -225Q-49 -198 -29 -198Q-20 -198 -11 -203T5 -217Q16 -226 27 -234T55 -243Q66 -243 73
-235T81 -215Q81 -198 71 -187T50 -163Q40 -152 31 -139T22 -108Q22 -91 39 -68T81 -22T134 17H164Q118 -20 103 -47T88 -88Q88 -98 97 -109T118 -132Q129 -143 138 -154T147 -180Q147 -196 133 -213T99 -246T60 -271T28 -281Z" />
<glyph unicode="&#xe8;" horiz-adv-x="341" d="M106 -15Q85 -15 64 1T28 41T14 89Q14 139 34 195T91 301T174 382T275 414Q310 414 329 400T349 359Q349 328 330 305T277 266T204 238T121 219Q115 218 112 217T106 209Q99 187 92 161T85 112Q85 77 98 58T138 39Q174
39 199 57T240 93Q250 104 258 104Q268 104 268 94Q268 93 268 91T266 86Q246 53 221 31T168 -3T106 -15ZM128 242Q139 242 165 248T221 269T270 305T291 357Q291 370 284 379T264 389Q243 389 219 372T172 330T136 282T121 248Q121 242 128 242ZM284 475Q292 475
293 481T290 495L215 639Q210 649 204 656T190 664Q185 664 176 658T159 644T151 628Q151 624 155 617T169 598L261 490Q265 484 271 480T284 475Z" />
<glyph unicode="&#xe9;" horiz-adv-x="341" d="M106 -15Q85 -15 64 1T28 41T14 89Q14 139 34 195T91 301T174 382T275 414Q310 414 329 400T349 359Q349 328 330 305T277 266T204 238T121 219Q115 218 112 217T106 209Q99 187 92 161T85 112Q85 77 98 58T138 39Q174
39 199 57T240 93Q250 104 258 104Q268 104 268 94Q268 93 268 91T266 86Q246 53 221 31T168 -3T106 -15ZM128 242Q139 242 165 248T221 269T270 305T291 357Q291 370 284 379T264 389Q243 389 219 372T172 330T136 282T121 248Q121 242 128 242ZM281 475Q273 475
272 481T275 495L350 639Q355 649 361 656T375 664Q380 664 389 658T406 644T414 628Q414 624 410 617T396 598L304 490Q300 484 294 480T281 475Z" />
<glyph unicode="&#xea;" horiz-adv-x="341" d="M106 -15Q85 -15 64 1T28 41T14 89Q14 139 34 195T91 301T174 382T275 414Q310 414 329 400T349 359Q349 328 330 305T277 266T204 238T121 219Q115 218 112 217T106 209Q99 187 92 161T85 112Q85 77 98 58T138 39Q174
39 199 57T240 93Q250 104 258 104Q268 104 268 94Q268 93 268 91T266 86Q246 53 221 31T168 -3T106 -15ZM128 242Q139 242 165 248T221 269T270 305T291 357Q291 370 284 379T264 389Q243 389 219 372T172 330T136 282T121 248Q121 242 128 242ZM342 641Q349 641
352 634T360 611Q364 596 368 574T375 528T381 488T383 467Q383 461 381 454T375 446Q366 446 358 463Q352 478 342 504T322 554Q319 562 313 554Q290 531 264 505T220 462Q215 457 208 452T197 446Q188 446 188 455Q188 459 190 463T195 473Q203 485 221 509T260
559T292 599Q305 615 319 628T342 641Z" />
<glyph unicode="&#xeb;" horiz-adv-x="341" d="M106 -15Q85 -15 64 1T28 41T14 89Q14 139 34 195T91 301T174 382T275 414Q310 414 329 400T349 359Q349 328 330 305T277 266T204 238T121 219Q115 218 112 217T106 209Q99 187 92 161T85 112Q85 77 98 58T138 39Q174
39 199 57T240 93Q250 104 258 104Q268 104 268 94Q268 93 268 91T266 86Q246 53 221 31T168 -3T106 -15ZM128 242Q139 242 165 248T221 269T270 305T291 357Q291 370 284 379T264 389Q243 389 219 372T172 330T136 282T121 248Q121 242 128 242ZM382 513Q367 513
357 525T347 552Q347 568 354 582T374 604T403 613Q419 613 428 600T437 570Q437 548 421 531T382 513ZM211 513Q196 513 186 525T176 552Q176 568 183 582T203 604T232 613Q248 613 257 600T266 570Q266 548 250 531T211 513Z" />
<glyph unicode="&#xec;" horiz-adv-x="294" d="M66 -14Q49 -14 38 -3T27 20Q27 24 27 28T30 36Q71 119 99 192T149 321Q153 333 144 333Q139 333 125 328T94 313T66 295Q61 291 56 293T51 300Q51 305 58 314T79 336T112 361T153 388T201 413Q210 417 219 411T233
396T237 382L115 93Q111 85 110 78T108 64Q108 57 113 55T124 52Q138 52 156 65T194 98T234 137Q236 139 238 139Q240 139 242 138T244 134Q244 118 225 94T178 45T119 3T66 -14ZM237 475Q245 475 246 481T243 495L168 639Q163 649 157 656T143 664Q138 664 129
658T112 644T104 628Q104 624 108 617T122 598L214 490Q218 484 224 480T237 475Z" />
<glyph unicode="&#xed;" horiz-adv-x="294" d="M66 -14Q49 -14 38 -3T27 20Q27 24 27 28T30 36Q71 119 99 192T149 321Q153 333 144 333Q139 333 125 328T94 313T66 295Q61 291 56 293T51 300Q51 305 58 314T79 336T112 361T153 388T201 413Q210 417 219 411T233
396T237 382L115 93Q111 85 110 78T108 64Q108 57 113 55T124 52Q138 52 156 65T194 98T234 137Q236 139 238 139Q240 139 242 138T244 134Q244 118 225 94T178 45T119 3T66 -14ZM234 475Q226 475 225 481T228 495L303 639Q308 649 314 656T328 664Q333 664 342
658T359 644T367 628Q367 624 363 617T349 598L257 490Q253 484 247 480T234 475Z" />
<glyph unicode="&#xee;" horiz-adv-x="294" d="M66 -14Q49 -14 38 -3T27 20Q27 24 27 28T30 36Q71 119 99 192T149 321Q153 333 144 333Q139 333 125 328T94 313T66 295Q61 291 56 293T51 300Q51 305 58 314T79 336T112 361T153 388T201 413Q210 417 219 411T233
396T237 382L115 93Q111 85 110 78T108 64Q108 57 113 55T124 52Q138 52 156 65T194 98T234 137Q236 139 238 139Q240 139 242 138T244 134Q244 118 225 94T178 45T119 3T66 -14ZM295 641Q302 641 305 634T313 611Q317 596 321 574T328 528T334 488T336 467Q336
461 334 454T328 446Q319 446 311 463Q305 478 295 504T275 554Q272 562 266 554Q243 531 217 505T173 462Q168 457 161 452T150 446Q141 446 141 455Q141 459 143 463T148 473Q156 485 174 509T213 559T245 599Q258 615 272 628T295 641Z" />
<glyph unicode="&#xef;" horiz-adv-x="294" d="M66 -14Q49 -14 38 -3T27 20Q27 24 27 28T30 36Q71 119 99 192T149 321Q153 333 144 333Q139 333 125 328T94 313T66 295Q61 291 56 293T51 300Q51 305 58 314T79 336T112 361T153 388T201 413Q210 417 219 411T233
396T237 382L115 93Q111 85 110 78T108 64Q108 57 113 55T124 52Q138 52 156 65T194 98T234 137Q236 139 238 139Q240 139 242 138T244 134Q244 118 225 94T178 45T119 3T66 -14ZM591 513Q576 513 566 525T556 552Q556 568 563 582T583 604T612 613Q628 613 637
600T646 570Q646 548 630 531T591 513ZM420 513Q405 513 395 525T385 552Q385 568 392 582T412 604T441 613Q457 613 466 600T475 570Q475 548 459 531T420 513Z" />
<glyph unicode="&#xf0;" horiz-adv-x="415" d="M152 -14Q132 -14 110 -1T73 39T57 104Q57 149 74 202T124 304T203 383T305 414Q316 414 326 412T343 404Q346 403 349 401T355 398Q358 398 361 412T364 454Q364 511 346 557L202 487Q192 483 185 483T178 492Q178
501 184 514T200 533L327 595Q307 627 276 649T201 678Q197 679 193 682T188 692Q188 702 196 703T214 705Q267 705 308 682T378 619L467 663Q478 668 486 667T495 655Q495 642 486 631T465 615L398 583Q427 522 427 442Q427 380 415 316T381 192T325 87T248 13T152
-14ZM164 16Q188 16 212 36T259 90T299 162T327 238T338 304Q338 342 330 363T295 384Q271 384 247 364T200 310T160 238T132 162T121 96Q121 59 130 38T164 16Z" />
<glyph unicode="&#xf1;" horiz-adv-x="527" d="M63 -16Q57 -16 52 -12T42 -1T37 14T38 28L154 312Q172 356 156 356Q146 356 135 354T111 341T82 310Q78 306 74 306T67 314Q67 320 70 329T79 348T88 364Q103 387 128 400T188 414Q199 414 208 409T221 393T221
371L155 201Q152 194 156 193T164 197Q205 267 247 315T329 389T398 414Q419 414 434 400T454 361T445 304L353 86Q338 50 358 50Q370 50 387 59T423 80T454 103T472 118Q473 119 473 119T475 119Q478 119 480 117T483 110Q483 102 479 96Q453 65 424 40T363 1T299
-14Q290 -14 281 -8T268 9T268 30Q297 97 326 163T382 297Q398 338 393 354T374 372Q363 373 348 365T314 339T273 294Q261 280 241 251T196 183T145 101T94 15Q85 -1 78 -8T63 -16ZM223 469Q216 469 212 473T207 484Q207 488 217 501T241 529T270 556T294 567Q311
567 321 566T345 562Q362 561 375 560T401 558Q421 558 436 573Q447 584 452 590T460 597Q468 597 473 593T479 580Q479 577 474 571T461 558Q449 546 439 532T418 506Q412 499 402 496T389 492Q383 492 371 493T342 496T307 499T270 500Q258 500 250 493Q242 486
234 478T223 469Z" />
<glyph unicode="&#xf2;" horiz-adv-x="380" d="M108 -14Q84 -14 63 2T30 44T17 99Q17 146 35 200T87 303T163 383T257 414Q307 414 334 380T362 296Q362 251 344 198T293 96T213 17T108 -14ZM124 16Q148 16 172 37T219 92T259 167T287 249T298 324Q298 350 290
367T255 384Q232 384 208 365T161 314T120 243T92 161T81 78Q81 45 92 31T124 16ZM295 475Q303 475 304 481T301 495L226 639Q221 649 215 656T201 664Q196 664 187 658T170 644T162 628Q162 624 166 617T180 598L272 490Q276 484 282 480T295 475Z" />
<glyph unicode="&#xf3;" horiz-adv-x="380" d="M108 -14Q84 -14 63 2T30 44T17 99Q17 146 35 200T87 303T163 383T257 414Q307 414 334 380T362 296Q362 251 344 198T293 96T213 17T108 -14ZM124 16Q148 16 172 37T219 92T259 167T287 249T298 324Q298 350 290
367T255 384Q232 384 208 365T161 314T120 243T92 161T81 78Q81 45 92 31T124 16ZM292 475Q284 475 283 481T286 495L361 639Q366 649 372 656T386 664Q391 664 400 658T417 644T425 628Q425 624 421 617T407 598L315 490Q311 484 305 480T292 475Z" />
<glyph unicode="&#xf4;" horiz-adv-x="380" d="M108 -14Q84 -14 63 2T30 44T17 99Q17 146 35 200T87 303T163 383T257 414Q307 414 334 380T362 296Q362 251 344 198T293 96T213 17T108 -14ZM124 16Q148 16 172 37T219 92T259 167T287 249T298 324Q298 350 290
367T255 384Q232 384 208 365T161 314T120 243T92 161T81 78Q81 45 92 31T124 16ZM353 641Q360 641 363 634T371 611Q375 596 379 574T386 528T392 488T394 467Q394 461 392 454T386 446Q377 446 369 463Q363 478 353 504T333 554Q330 562 324 554Q301 531 275
505T231 462Q226 457 219 452T208 446Q199 446 199 455Q199 459 201 463T206 473Q214 485 232 509T271 559T303 599Q316 615 330 628T353 641Z" />
<glyph unicode="&#xf5;" horiz-adv-x="380" d="M108 -14Q84 -14 63 2T30 44T17 99Q17 146 35 200T87 303T163 383T257 414Q307 414 334 380T362 296Q362 251 344 198T293 96T213 17T108 -14ZM124 16Q148 16 172 37T219 92T259 167T287 249T298 324Q298 350 290
367T255 384Q232 384 208 365T161 314T120 243T92 161T81 78Q81 45 92 31T124 16ZM195 469Q188 469 184 473T179 484Q179 488 189 501T213 529T242 556T266 567Q283 567 293 566T317 562Q334 561 347 560T373 558Q393 558 408 573Q419 584 424 590T432 597Q440
597 445 593T451 580Q451 577 446 571T433 558Q421 546 411 532T390 506Q384 499 374 496T361 492Q355 492 343 493T314 496T279 499T242 500Q230 500 222 493Q214 486 206 478T195 469Z" />
<glyph unicode="&#xf6;" horiz-adv-x="380" d="M108 -14Q84 -14 63 2T30 44T17 99Q17 146 35 200T87 303T163 383T257 414Q307 414 334 380T362 296Q362 251 344 198T293 96T213 17T108 -14ZM124 16Q148 16 172 37T219 92T259 167T287 249T298 324Q298 350 290
367T255 384Q232 384 208 365T161 314T120 243T92 161T81 78Q81 45 92 31T124 16ZM393 513Q378 513 368 525T358 552Q358 568 365 582T385 604T414 613Q430 613 439 600T448 570Q448 548 432 531T393 513ZM222 513Q207 513 197 525T187 552Q187 568 194 582T214
604T243 613Q259 613 268 600T277 570Q277 548 261 531T222 513Z" />
<glyph unicode="&#xf7;" horiz-adv-x="586" d="M80 231Q75 231 71 234T66 241Q66 245 67 255T74 273T89 282H542Q546 282 550 279T554 272Q554 258 546 245T524 231H80ZM310 67Q291 67 277 81T263 114Q263 134 277 147T310 161Q330 161 343 148T357 114Q357 95
344 81T310 67ZM309 352Q290 352 276 366T262 399Q262 419 276 432T309 446Q329 446 342 433T356 399Q356 380 343 366T309 352Z" />
<glyph unicode="&#xf8;" horiz-adv-x="380" d="M2 -14Q-6 -14 -14 -8T-22 5Q-22 17 -12 25L35 71L60 88L306 340L331 360L380 409Q382 411 385 412T391 414Q399 414 401 410T405 399Q406 392 403 385T394 373L344 322L317 299L75 47L56 36L9 -11Q8 -12 7 -13T2
-14ZM108 -14Q84 -14 63 2T30 44T17 99Q17 146 35 200T87 303T163 383T257 414Q307 414 334 380T362 296Q362 251 344 198T293 96T213 17T108 -14ZM124 16Q148 16 172 37T219 92T259 167T287 249T298 324Q298 350 290 367T255 384Q232 384 208 365T161 314T120
243T92 161T81 78Q81 45 92 31T124 16Z" />
<glyph unicode="&#xf9;" horiz-adv-x="509" d="M67 -14Q56 -14 45 -5T27 18T24 39L129 292Q136 309 138 321T132 333Q127 333 116 325T90 305T60 280Q58 278 53 279T47 283Q47 287 49 294T59 313Q84 347 114 370T172 405T214 418Q219 418 225 413T236 400T236
385Q203 317 173 247T113 109Q104 89 102 72T110 55Q120 55 140 72T185 116T239 174Q277 217 312 263T374 346T408 398Q413 408 420 411T433 414Q439 414 445 408T454 394T455 380L327 86Q319 67 320 57T330 47Q343 47 364 61T407 93T444 127Q445 128 447 128Q450
128 453 126T456 119Q456 117 455 115T453 110T449 103T443 95T434 84Q415 60 390 38T337 1T276 -14Q263 -14 253 3T248 33Q262 63 278 97T306 160T324 203Q329 215 323 216T312 211Q260 154 220 112T151 42T101 0T67 -14ZM346 475Q354 475 355 481T352 495L277
639Q272 649 266 656T252 664Q247 664 238 658T221 644T213 628Q213 624 217 617T231 598L323 490Q327 484 333 480T346 475Z" />
<glyph unicode="&#xfa;" horiz-adv-x="509" d="M67 -14Q56 -14 45 -5T27 18T24 39L129 292Q136 309 138 321T132 333Q127 333 116 325T90 305T60 280Q58 278 53 279T47 283Q47 287 49 294T59 313Q84 347 114 370T172 405T214 418Q219 418 225 413T236 400T236
385Q203 317 173 247T113 109Q104 89 102 72T110 55Q120 55 140 72T185 116T239 174Q277 217 312 263T374 346T408 398Q413 408 420 411T433 414Q439 414 445 408T454 394T455 380L327 86Q319 67 320 57T330 47Q343 47 364 61T407 93T444 127Q445 128 447 128Q450
128 453 126T456 119Q456 117 455 115T453 110T449 103T443 95T434 84Q415 60 390 38T337 1T276 -14Q263 -14 253 3T248 33Q262 63 278 97T306 160T324 203Q329 215 323 216T312 211Q260 154 220 112T151 42T101 0T67 -14ZM343 475Q335 475 334 481T337 495L412
639Q417 649 423 656T437 664Q442 664 451 658T468 644T476 628Q476 624 472 617T458 598L366 490Q362 484 356 480T343 475Z" />
<glyph unicode="&#xfb;" horiz-adv-x="509" d="M67 -14Q56 -14 45 -5T27 18T24 39L129 292Q136 309 138 321T132 333Q127 333 116 325T90 305T60 280Q58 278 53 279T47 283Q47 287 49 294T59 313Q84 347 114 370T172 405T214 418Q219 418 225 413T236 400T236
385Q203 317 173 247T113 109Q104 89 102 72T110 55Q120 55 140 72T185 116T239 174Q277 217 312 263T374 346T408 398Q413 408 420 411T433 414Q439 414 445 408T454 394T455 380L327 86Q319 67 320 57T330 47Q343 47 364 61T407 93T444 127Q445 128 447 128Q450
128 453 126T456 119Q456 117 455 115T453 110T449 103T443 95T434 84Q415 60 390 38T337 1T276 -14Q263 -14 253 3T248 33Q262 63 278 97T306 160T324 203Q329 215 323 216T312 211Q260 154 220 112T151 42T101 0T67 -14ZM404 641Q411 641 414 634T422 611Q426
596 430 574T437 528T443 488T445 467Q445 461 443 454T437 446Q428 446 420 463Q414 478 404 504T384 554Q381 562 375 554Q352 531 326 505T282 462Q277 457 270 452T259 446Q250 446 250 455Q250 459 252 463T257 473Q265 485 283 509T322 559T354 599Q367 615
381 628T404 641Z" />
<glyph unicode="&#xfc;" horiz-adv-x="509" d="M67 -14Q56 -14 45 -5T27 18T24 39L129 292Q136 309 138 321T132 333Q127 333 116 325T90 305T60 280Q58 278 53 279T47 283Q47 287 49 294T59 313Q84 347 114 370T172 405T214 418Q219 418 225 413T236 400T236
385Q203 317 173 247T113 109Q104 89 102 72T110 55Q120 55 140 72T185 116T239 174Q277 217 312 263T374 346T408 398Q413 408 420 411T433 414Q439 414 445 408T454 394T455 380L327 86Q319 67 320 57T330 47Q343 47 364 61T407 93T444 127Q445 128 447 128Q450
128 453 126T456 119Q456 117 455 115T453 110T449 103T443 95T434 84Q415 60 390 38T337 1T276 -14Q263 -14 253 3T248 33Q262 63 278 97T306 160T324 203Q329 215 323 216T312 211Q260 154 220 112T151 42T101 0T67 -14ZM444 513Q429 513 419 525T409 552Q409
568 416 582T436 604T465 613Q481 613 490 600T499 570Q499 548 483 531T444 513ZM273 513Q258 513 248 525T238 552Q238 568 245 582T265 604T294 613Q310 613 319 600T328 570Q328 548 312 531T273 513Z" />
<glyph unicode="&#xfd;" horiz-adv-x="405" d="M-54 -290Q-69 -290 -84 -280T-99 -248Q-99 -234 -93 -223T-78 -205T-60 -198Q-50 -198 -43 -203T-29 -215Q-22 -221 -15 -225T1 -230Q36 -230 74 -186T146 -74Q169 -27 176 29T184 154Q184 228 174 272T150 335T126
355Q116 355 105 344T84 317T70 290Q69 285 63 273T51 261Q47 261 45 269T42 289Q42 312 51 334T76 374T110 403T145 414Q169 414 185 397T212 348Q226 305 237 242T243 78Q242 60 246 61T258 75Q291 138 317 221T344 404Q344 409 351 416T363 423Q367 423 375
418T389 402T396 380Q396 318 365 234T278 56T148 -130Q113 -173 77 -209T8 -268T-54 -290ZM253 475Q245 475 244 481T247 495L322 639Q327 649 333 656T347 664Q352 664 361 658T378 644T386 628Q386 624 382 617T368 598L276 490Q272 484 266 480T253 475Z" />
<glyph unicode="&#xfe;" horiz-adv-x="451" d="M-114 -286Q-119 -286 -124 -284T-130 -277Q-130 -269 -120 -264T-100 -257Q-79 -253 -67 -246T-48 -220L202 576Q207 593 209 608T212 633Q212 638 204 641T185 647Q174 651 164 654T154 662Q154 666 155 668T160
671Q171 677 190 683T229 694T266 703T288 707Q293 707 298 706T304 697Q304 689 303 682T297 664Q296 660 286 632T260 559T226 461T189 353T156 250Q152 236 155 237T165 249Q192 287 227 325T301 388T377 414Q403 414 424 395T445 335Q445 298 428 253T381 161T312
77T229 16T138 -8Q123 -8 110 -5T80 8L96 26L25 -208Q18 -229 29 -238T64 -249Q74 -250 84 -253T94 -264Q94 -270 85 -272T65 -275Q50 -275 36 -275T10 -277T-15 -279Q-40 -281 -63 -283T-114 -286ZM164 24Q179 24 200 39T246 79T291 132Q318 168 339 210T371 290T378
352T349 376Q331 376 304 358T245 308T185 234Q175 219 165 203T145 170T128 140T116 113T112 91Q112 60 129 42T164 24Z" />
<glyph unicode="&#xff;" horiz-adv-x="405" d="M-54 -290Q-69 -290 -84 -280T-99 -248Q-99 -234 -93 -223T-78 -205T-60 -198Q-50 -198 -43 -203T-29 -215Q-22 -221 -15 -225T1 -230Q36 -230 74 -186T146 -74Q169 -27 176 29T184 154Q184 228 174 272T150 335T126
355Q116 355 105 344T84 317T70 290Q69 285 63 273T51 261Q47 261 45 269T42 289Q42 312 51 334T76 374T110 403T145 414Q169 414 185 397T212 348Q226 305 237 242T243 78Q242 60 246 61T258 75Q291 138 317 221T344 404Q344 409 351 416T363 423Q367 423 375
418T389 402T396 380Q396 318 365 234T278 56T148 -130Q113 -173 77 -209T8 -268T-54 -290ZM354 513Q339 513 329 525T319 552Q319 568 326 582T346 604T375 613Q391 613 400 600T409 570Q409 548 393 531T354 513ZM183 513Q168 513 158 525T148 552Q148 568 155
582T175 604T204 613Q220 613 229 600T238 570Q238 548 222 531T183 513Z" />
<glyph unicode="&#x2013;" horiz-adv-x="519" d="M58 185Q53 185 51 189T49 197Q51 202 55 212T67 230T84 239H468Q473 239 476 235T476 225Q468 211 459 198T435 185H58Z" />
<glyph unicode="&#x2014;" horiz-adv-x="891" d="M58 185Q53 185 51 189T49 197Q51 202 55 212T67 230T84 239H840Q845 239 848 235T848 225Q840 211 831 198T807 185H58Z" />
<glyph unicode="&#x2018;" horiz-adv-x="215" d="M297 692Q304 692 309 692T315 686Q315 681 308 678T290 669Q261 653 241 635T210 597T199 557Q199 540 209 532T231 519Q242 513 251 506T261 483Q261 466 244 455T206 443Q179 443 160 460T140 513Q140 550 155
583T195 640T247 678T297 692Z" />
<glyph unicode="&#x2019;" horiz-adv-x="215" d="M145 443Q138 443 133 443T127 449Q127 454 134 457T152 466Q181 482 201 500T232 538T243 578Q243 595 233 603T211 616Q200 622 191 629T181 652Q181 669 198 680T236 692Q263 692 282 675T302 622Q302 585 287
552T247 495T195 457T145 443Z" />
<glyph unicode="&#x201a;" horiz-adv-x="215" d="M-32 -129Q-39 -129 -44 -129T-50 -123Q-50 -118 -43 -115T-25 -106Q4 -90 24 -72T55 -34T66 6Q66 23 56 31T34 44Q23 50 14 57T4 80Q4 97 21 108T59 120Q86 120 105 103T125 50Q125 13 110 -20T70 -77T18 -115T-32 -129Z" />
<glyph unicode="&#x201c;" horiz-adv-x="389" d="M472 693Q479 693 484 693T490 687Q490 682 483 679T465 670Q436 654 416 636T385 598T374 558Q374 541 384 533T406 520Q417 514 426 507T436 484Q436 467 419 456T381 444Q354 444 335 461T315 514Q315 551 330
584T370 641T422 679T472 693ZM298 693Q305 693 310 693T316 687Q316 682 309 679T291 670Q262 654 242 636T211 598T200 558Q200 541 210 533T232 520Q243 514 252 507T262 484Q262 467 245 456T207 444Q180 444 161 461T141 514Q141 551 156 584T196 641T248
679T298 693Z" />
<glyph unicode="&#x201d;" horiz-adv-x="390" d="M146 444Q139 444 134 444T128 450Q128 455 135 458T153 467Q182 483 202 501T233 539T244 579Q244 596 234 604T212 617Q201 623 192 630T182 653Q182 670 199 681T237 693Q264 693 283 676T303 623Q303 586 288
553T248 496T196 458T146 444ZM320 444Q313 444 308 444T302 450Q302 455 309 458T327 467Q356 483 376 501T407 539T418 579Q418 596 408 604T386 617Q375 623 366 630T356 653Q356 670 373 681T411 693Q438 693 457 676T477 623Q477 586 462 553T422 496T370
458T320 444Z" />
<glyph unicode="&#x201e;" horiz-adv-x="389" d="M-32 -129Q-39 -129 -44 -129T-50 -123Q-50 -118 -43 -115T-25 -106Q4 -90 24 -72T55 -34T66 6Q66 23 56 31T34 44Q23 50 14 57T4 80Q4 97 21 108T59 120Q86 120 105 103T125 50Q125 13 110 -20T70 -77T18 -115T-32
-129ZM142 -129Q135 -129 130 -129T124 -123Q124 -118 131 -115T149 -106Q178 -90 198 -72T229 -34T240 6Q240 23 230 31T208 44Q197 50 188 57T178 80Q178 97 195 108T233 120Q260 120 279 103T299 50Q299 13 284 -20T244 -77T192 -115T142 -129Z" />
<glyph unicode="&#x2022;" horiz-adv-x="341" d="M197 231Q168 231 145 246T109 288T96 343Q96 383 116 416T169 468T242 488Q271 488 294 473T330 432T344 376Q344 336 324 303T271 251T197 231Z" />
<glyph unicode="&#x2039;" horiz-adv-x="409" d="M289 19Q281 19 271 26T258 37Q242 53 217 73T165 115T112 153T70 181Q66 183 63 186T59 196Q59 201 63 204T70 209Q116 233 170 261T276 319T364 371Q369 375 375 378T392 381Q397 381 395 373T385 357Q352 328
313 298T237 242T175 200Q168 196 169 193T175 184Q192 166 214 142T257 92T292 42Q296 35 295 27T289 19Z" />
<glyph unicode="&#x203a;" horiz-adv-x="409" d="M120 381Q128 381 138 374T151 363Q167 347 192 327T244 285T297 247T339 219Q343 217 346 214T350 204Q350 199 346 196T339 191Q293 167 239 139T133 81T45 29Q40 25 34 22T17 19Q12 19 14 27T24 43Q57 72 96
102T172 158T234 200Q241 204 240 207T234 216Q217 234 195 258T152 308T117 358Q113 365 114 373T120 381Z" />
</font>
</defs>
</svg>
